<?xml version="1.0" encoding="utf-8"?>
<!-- Generator: Adobe Illustrator 22.1.0, SVG Export Plug-In . SVG Version: 6.00 Build 0)  -->
<svg version="1.1" xmlns="http://www.w3.org/2000/svg" xmlns:xlink="http://www.w3.org/1999/xlink" x="0px" y="0px"
	 viewBox="0 0 101 102" style="enable-background:new 0 0 101 102;" xml:space="preserve">
<style type="text/css">
	.st0{display:none;}
	.st1{display:inline;}
	.st2{fill:#A2FFEE;}
	.st3{fill:#1A1A1A;}
	.st4{fill:none;stroke:#FFFFFF;stroke-miterlimit:10;}
	.st5{fill:#FFFFFF;}
	.st6{fill:#FFFFFF;stroke:#FFFFFF;stroke-miterlimit:10;}
	.st7{fill:#1A1A1A;stroke:#FFFFFF;stroke-miterlimit:10;}
	.st8{fill-rule:evenodd;clip-rule:evenodd;fill:none;stroke:#FFFFFF;stroke-miterlimit:10;}
	.st9{fill:#FF0000;stroke:#FFFFFF;stroke-miterlimit:10;}
</style>
<g id="Extra" class="st0">
	<g class="st1">
		<g>
			<path class="st2" d="M233.4,361c-22.5,0-40.7-18.3-40.7-40.7s18.3-40.7,40.7-40.7s40.7,18.3,40.7,40.7c0,3.5-0.5,7-1.4,10.4
				l-34.6-34.6l-15.8,41l22.3,22.3C241,360.5,237.2,361,233.4,361z"/>
			<g>
				<path class="st2" d="M233.4,280c22.2,0,40.2,18.1,40.2,40.2c0,3.2-0.4,6.3-1.1,9.4l-33.4-33.4l-1.1-1.1l-0.6,1.4l-15.4,40
					l-0.2,0.6l0.5,0.5l21.5,21.5c-3.4,0.9-6.8,1.3-10.3,1.3c-22.2,0-40.2-18.1-40.2-40.2C193.1,298.1,211.2,280,233.4,280
					 M233.4,279c-22.8,0-41.2,18.5-41.2,41.2s18.5,41.2,41.2,41.2c4.3,0,8.4-0.6,12.2-1.8L222.9,337l15.4-40l34.6,34.6
					c1-3.6,1.6-7.4,1.6-11.4C274.6,297.5,256.2,279,233.4,279L233.4,279z"/>
			</g>
		</g>
	</g>
	<g class="st1">
		<path class="st2" d="M139.4,301c-22.8,0-41.2,18.5-41.2,41.2s18.5,41.2,41.2,41.2c4.3,0,8.4-0.6,12.2-1.8
			c13.2-4.1,23.6-14.7,27.4-28c1-3.6,1.6-7.4,1.6-11.4C180.6,319.5,162.2,301,139.4,301z"/>
	</g>
	<g class="st1">
		<path class="st2" d="M181.4,211c-22.8,0-41.2,18.5-41.2,41.2s18.5,41.2,41.2,41.2c4.3,0,8.4-0.6,12.2-1.8
			c13.2-4.1,23.6-14.7,27.4-28c1-3.6,1.6-7.4,1.6-11.4C222.6,229.5,204.2,211,181.4,211z"/>
	</g>
	<g class="st1">
		<path class="st2" d="M171.4,412c-22.8,0-41.2,18.5-41.2,41.2s18.5,41.2,41.2,41.2c4.3,0,8.4-0.6,12.2-1.8
			c13.2-4.1,23.6-14.7,27.4-28c1-3.6,1.6-7.4,1.6-11.4C212.6,430.5,194.2,412,171.4,412z"/>
	</g>
	<g class="st1">
		<path class="st2" d="M306.4,222c-22.8,0-41.2,18.5-41.2,41.2s18.5,41.2,41.2,41.2c4.3,0,8.4-0.6,12.2-1.8
			c13.2-4.1,23.6-14.7,27.4-28c1-3.6,1.6-7.4,1.6-11.4C347.6,240.5,329.2,222,306.4,222z"/>
	</g>
	<g class="st1">
		<path class="st2" d="M381.4,339c-22.8,0-41.2,18.5-41.2,41.2s18.5,41.2,41.2,41.2c4.3,0,8.4-0.6,12.2-1.8
			c13.2-4.1,23.6-14.7,27.4-28c1-3.6,1.6-7.4,1.6-11.4C422.6,357.5,404.2,339,381.4,339z"/>
	</g>
	<g class="st1">
		<path class="st2" d="M262.4,385c-22.8,0-41.2,18.5-41.2,41.2s18.5,41.2,41.2,41.2c4.3,0,8.4-0.6,12.2-1.8
			c13.2-4.1,23.6-14.7,27.4-28c1-3.6,1.6-7.4,1.6-11.4C303.6,403.5,285.2,385,262.4,385z"/>
	</g>
</g>
<g id="Saving_x5F_Water" class="st0">
	<g id="save_x5F_background_2_" class="st1">
		<path class="st3" d="M484.4,9c-22.8,0-41.2,18.5-41.2,41.2s18.5,41.2,41.2,41.2c4.3,0,8.4-0.6,12.2-1.8
			c13.2-4.1,23.6-14.7,27.4-28c1-3.6,1.6-7.4,1.6-11.4C525.6,27.5,507.2,9,484.4,9z"/>
	</g>
	<g id="save_x5F_details_2_" class="st1">
		<g>
			<g>
				<path d="M502.8,86.6c-0.2,0.1-0.3,0.2-0.5,0.3C502.4,86.7,502.6,86.6,502.8,86.6z"/>
			</g>
			<g>
				<path d="M511.8,80.3c-0.2,0.2-0.4,0.4-0.6,0.5C511.4,80.7,511.6,80.5,511.8,80.3z"/>
			</g>
			<g>
				<path d="M500.5,87.6c-0.2,0.1-0.4,0.2-0.6,0.3C500.1,87.8,500.3,87.7,500.5,87.6z"/>
			</g>
			<g>
				<path d="M507.5,83.7c-0.2,0.1-0.4,0.3-0.6,0.4C507.1,84,507.3,83.9,507.5,83.7z"/>
			</g>
			<g>
				<path d="M497.6,88.7c-0.1,0-0.2,0.1-0.3,0.1C497.4,88.8,497.5,88.8,497.6,88.7z"/>
			</g>
			<g>
				<path d="M509.8,82c-0.2,0.1-0.3,0.3-0.5,0.4C509.5,82.3,509.7,82.1,509.8,82z"/>
			</g>
			<g>
				<path d="M505.4,85.1c-0.2,0.1-0.4,0.2-0.6,0.3C505,85.3,505.2,85.2,505.4,85.1z"/>
			</g>
			<g>
				<path d="M517.1,74.5c-0.1,0.2-0.2,0.3-0.4,0.5C516.9,74.8,517,74.7,517.1,74.5z"/>
			</g>
			<g>
				<path d="M495.3,89.5c-0.2,0.1-0.4,0.1-0.6,0.2C494.8,89.6,495,89.5,495.3,89.5z"/>
			</g>
			<g>
				<path d="M513.4,78.8c0.1-0.1,0.3-0.3,0.4-0.4C513.7,78.5,513.5,78.7,513.4,78.8z"/>
			</g>
			<g>
				<path d="M515.6,76.4c-0.2,0.2-0.4,0.4-0.6,0.7C515.3,76.8,515.4,76.6,515.6,76.4z"/>
			</g>
			<path d="M509.4,82.4c-0.6,0.5-1.2,0.9-1.8,1.3C508.1,83.3,508.8,82.9,509.4,82.4z"/>
			<path d="M515.1,77c-0.4,0.5-0.8,0.9-1.3,1.4C514.2,78,514.7,77.5,515.1,77z"/>
			<path d="M516.8,75c-0.4,0.5-0.7,0.9-1.1,1.4C516,75.9,516.4,75.5,516.8,75z"/>
			<path d="M511.2,80.9c-0.4,0.4-0.9,0.8-1.4,1.1C510.3,81.6,510.8,81.2,511.2,80.9z"/>
			<path d="M513.4,78.8c-0.5,0.5-1,1-1.6,1.5C512.4,79.8,512.9,79.3,513.4,78.8z"/>
			<path d="M504.8,85.4c-0.7,0.4-1.4,0.8-2.1,1.1C503.5,86.2,504.1,85.8,504.8,85.4z"/>
			<path d="M497.3,88.9c-0.7,0.2-1.4,0.4-2,0.6C495.9,89.3,496.6,89.1,497.3,88.9z"/>
			<path d="M506.9,84.1c-0.5,0.3-1,0.7-1.5,1C505.9,84.8,506.4,84.5,506.9,84.1z"/>
			<path d="M494.6,89.6c-0.8,0.2-1.6,0.4-2.4,0.6C493,90.1,493.8,89.9,494.6,89.6z"/>
			<path d="M499.9,87.9c-0.7,0.3-1.5,0.6-2.3,0.9C498.4,88.5,499.2,88.2,499.9,87.9z"/>
			<path class="st0" d="M502.2,86.8c-0.6,0.3-1.2,0.6-1.8,0.8C501.1,87.4,501.7,87.1,502.2,86.8z"/>
			<path d="M483.3,40.7l7.1,7.1L475,46.9l20,1.1l0,2l15,0.1l13.4,12.4c0.1-0.4,0.3-0.8,0.4-1.2L488,26L483.3,40.7z"/>
			<path d="M510,50.2l-15-0.1l0-2l-20-1.1l-2,2l-11.1,13.2l30.3,28.1c0.8-0.2,1.6-0.4,2.4-0.6c0.2-0.1,0.4-0.1,0.6-0.2
				c0.7-0.2,1.4-0.4,2-0.6c0.1,0,0.2-0.1,0.3-0.1c0.8-0.3,1.5-0.6,2.3-0.9c0.2-0.1,0.4-0.2,0.6-0.3c0.6-0.3,1.2-0.5,1.8-0.8
				c0.2-0.1,0.3-0.2,0.5-0.3c0.7-0.4,1.4-0.7,2.1-1.1c0.2-0.1,0.4-0.2,0.6-0.3c0.5-0.3,1-0.6,1.5-1c0.2-0.1,0.4-0.3,0.6-0.4
				c0.6-0.4,1.2-0.9,1.8-1.3c0.2-0.1,0.3-0.3,0.5-0.4c0.5-0.4,0.9-0.8,1.4-1.1c0.2-0.2,0.4-0.4,0.6-0.5c0.5-0.5,1.1-1,1.6-1.5
				c0.1-0.1,0.3-0.3,0.4-0.4c0.4-0.4,0.9-0.9,1.3-1.4c0.2-0.2,0.4-0.4,0.6-0.7c0.4-0.5,0.8-0.9,1.1-1.4c0.1-0.2,0.2-0.3,0.4-0.5
				c2.7-3.6,4.8-7.6,6.2-11.9L510,50.2z"/>
		</g>
		<g>
			<path class="st4" d="M495.5,50.5l13.4-0.4c0.5,0,0.9,0.4,0.9,1l-0.2,1.4c-0.1,0.5-0.6,1.1-1.1,1.2l-28,5.6
				c-0.5,0.1-1.3,0.6-1.6,1l-5.8,7.4c-0.3,0.4-1,0.5-1.5,0.3l-9.3-5.9c-0.5-0.3-0.6-0.9-0.2-1.3l1.1-1.3c0.3-0.4,0.9-1.1,1.3-1.5
				l9.2-10c0.4-0.4,1.1-0.7,1.7-0.7l19.2,0.3c0.5,0,1,0.5,1,1V50c0,0.5-0.4,1.1-1,1.1l-11,1.4"/>
		</g>
		<g>
			<path d="M487.9,42.9c-0.2,0-0.3,0-0.5,0c-2-0.2-3.7-1.9-4-3.9c-0.1-1.1,0.1-2.1,0.6-3c0.4-0.7,1.2-2,1.4-2.6l2.5-6l2.3,5.4
				c0.5,1.3,1,2.2,1.6,3.1c0.5,0.7,0.7,1.6,0.7,2.5c0,1.2-0.5,2.4-1.3,3.2S489.2,42.9,487.9,42.9L487.9,42.9z"/>
			<g>
				<path class="st5" d="M487.9,28.6l1.2,2.9l0.6,1.4c0.5,1.3,1,2.3,1.6,3.2c0.4,0.7,0.7,1.4,0.7,2.2c0,2.2-1.8,4.1-4.1,4.1
					c-0.2,0-0.3,0-0.5,0c-1.8-0.2-3.3-1.7-3.6-3.5c-0.1-1,0.1-1.9,0.6-2.7c0.1-0.2,1.2-1.9,1.4-2.7l0.8-1.9L487.9,28.6 M487.9,26
					l-2.1,5.2l-0.8,2c-0.2,0.5-0.8,1.7-1.3,2.5c-0.6,1-0.9,2.1-0.7,3.4c0.3,2.3,2.2,4.1,4.4,4.3c0.2,0,0.4,0,0.6,0
					c2.8,0,5.1-2.3,5.1-5.1c0-1-0.3-2-0.8-2.8c-0.6-0.9-1.1-2-1.5-3l-0.6-1.4L487.9,26L487.9,26z"/>
			</g>
		</g>
	</g>
</g>
<g id="Recycling" class="st0">
	<g id="recycling_x5F_background" class="st1">
		<path class="st3" d="M373.4,9c-22.8,0-41.2,18.5-41.2,41.2s18.5,41.2,41.2,41.2c4.3,0,8.4-0.6,12.2-1.8
			c13.2-4.1,23.6-14.7,27.4-28c1-3.6,1.6-7.4,1.6-11.4C414.6,27.5,396.2,9,373.4,9z"/>
	</g>
	<g id="recycling_x5F_details" class="st1">
		<g>
			<path d="M413.3,60.8L379,26l5,11l2-1l-4,8l-9-2l3-1l-3-6l-5,8l-6-3l20,19h6l-5-8l6-4l8,13l-4,8h-12v2l-6-7l2-2l-14-14l2,9l-3-1
				l-3,5h11v8l-16-1l0.5,1.5l22.4,22.4C394.3,89.5,408.7,77.2,413.3,60.8z"/>
		</g>
		<polygon class="st4" points="353.5,68.5 348.6,61.2 354.6,51 352.5,49.5 361.5,48.5 364.5,57.5 361.5,55.5 		"/>
		<polyline class="st4" points="353.5,68.5 368.5,68.5 368.5,61.5 357.9,61.5 		"/>
		<polygon class="st4" points="368.8,27.9 377.5,27.6 383,38.2 385.4,37.2 381.5,45.3 372.2,43.1 375.5,41.6 		"/>
		<polyline class="st4" points="368.8,27.9 360.8,40.6 366.7,44.3 372.4,35.4 		"/>
		<polygon class="st4" points="395.7,60.7 392,68.6 380.1,68.7 379.9,71.3 374.5,64.1 380.7,56.9 380.5,60.5 		"/>
		<polyline class="st4" points="395.7,60.7 388.1,47.8 382.1,51.4 387.5,60.5 		"/>
	</g>
</g>
<g id="Geothermal" class="st0">
	<g id="geo_x5F_background" class="st1">
		<path class="st3" d="M266.4,9c-22.8,0-41.2,18.5-41.2,41.2s18.5,41.2,41.2,41.2c4.3,0,8.4-0.6,12.2-1.8
			c13.2-4.1,23.6-14.7,27.4-28c1-3.6,1.6-7.4,1.6-11.4C307.6,27.5,289.2,9,266.4,9z"/>
	</g>
	<g id="geo_x5F_details" class="st1">
		<g>
			<path d="M303.6,66.6L287,50v16h-14l1-7l-3-3l-3,4h1v6l-21.4,0.4l24.2,24.2C286,88.6,297.9,79.3,303.6,66.6z"/>
		</g>
		<path class="st4" d="M287.5,71"/>
		<path class="st4" d="M286.5,68"/>
		<line class="st4" x1="250.5" y1="53.5" x2="253" y2="53.5"/>
		<path class="st4" d="M256,47.5"/>
		<path class="st4" d="M253.5,47.5"/>
		<line class="st4" x1="258.5" y1="53.5" x2="261" y2="53.5"/>
		<line class="st4" x1="254.5" y1="53.5" x2="257" y2="53.5"/>
		<path class="st4" d="M261,53.5"/>
		<path class="st4" d="M257,47.5"/>
		<path class="st4" d="M258.9,28.5c1.1,2.2,2.9,3.3,4.4,3.2c2.1-0.2,3.6-2,5.1-2.1c1.6-0.1,4.3,1.2,4,6"/>
		<path class="st4" d="M270.6,22.4"/>
		<path class="st4" d="M257.4,31.9c1.8,4.5,4.8,4.5,6.2,3.7"/>
		<path class="st4" d="M273.5,60.5V66h13V50h-6.8l-5-11h-7l-5,11h-15c0,5.3,0,10.7,0,16h20.8v-5.5H267l2-2.6l2-2.6l2,2.6l2,2.6h-1.9
			H273.5z"/>
		<line class="st4" x1="273.5" y1="60.5" x2="273" y2="60.5"/>
		<line x1="274" y1="68" x2="271.2" y2="66.3"/>
	</g>
</g>
<g id="Scientific_x5F_research" class="st0">
	<g id="research_x5F_background" class="st1">
		<path class="st3" d="M159.1,9.4c-22.8,0-41.2,18.5-41.2,41.2s18.5,41.2,41.2,41.2c4.3,0,8.4-0.6,12.2-1.8
			c13.2-4.1,23.6-14.7,27.4-28c1-3.6,1.6-7.4,1.6-11.4C200.4,27.8,181.9,9.4,159.1,9.4z"/>
	</g>
	<g id="research_x5F_details" class="st1">
		<g>
			<g>
				<path d="M199.1,57.2L176,32l1,3l-1,3l-1,2l-2,5l7,2l3,2l1,2l-3,3l-8,3l3,8l-1,3h-3l-8-3l-3,9l-2,2h-2l-2-3l-3-8l-5,3l-6.5,1.5
					l20.6,22.4C180.5,90.6,196.2,76,199.1,57.2z"/>
			</g>
		</g>
		<g>
			<path class="st5" d="M158.2,25.7c1.2,0,3,1.8,4.5,6.9c1.4,4.8,2.2,11.2,2.2,18.1s-0.8,13.3-2.2,18.1c-1.5,5.1-3.3,6.9-4.5,6.9
				s-3-1.8-4.5-6.9c-1.4-4.8-2.2-11.2-2.2-18.1s0.8-13.3,2.2-18.1C155.2,27.5,157,25.7,158.2,25.7 M158.2,24.7
				c-4.2,0-7.7,11.6-7.7,26c0,14.4,3.4,26,7.7,26s7.7-11.6,7.7-26C165.8,36.3,162.4,24.7,158.2,24.7L158.2,24.7z"/>
		</g>
		<g>
			<path class="st5" d="M158.2,44c6.9,0,13.3,0.8,18.1,2.2c5.1,1.5,6.9,3.3,6.9,4.5s-1.8,3-6.9,4.5c-4.8,1.4-11.2,2.2-18.1,2.2
				s-13.3-0.8-18.1-2.2c-5.1-1.5-6.9-3.3-6.9-4.5s1.8-3,6.9-4.5C144.9,44.8,151.3,44,158.2,44 M158.2,43c-14.4,0-26,3.4-26,7.7
				c0,4.2,11.6,7.7,26,7.7s26-3.4,26-7.7C184.2,46.4,172.5,43,158.2,43L158.2,43z"/>
		</g>
		<g>
			<path class="st5" d="M174.3,32.5L174.3,32.5c0.7,0,1.3,0.2,1.6,0.5c0.8,0.8,0.8,3.4-1.7,8c-2.4,4.4-6.4,9.5-11.2,14.4
				c-7.9,7.9-16.5,13.5-20.8,13.5c-0.7,0-1.3-0.2-1.6-0.5c-0.8-0.8-0.8-3.4,1.7-8c2.4-4.4,6.4-9.5,11.2-14.4
				C161.4,38,169.9,32.5,174.3,32.5 M174.3,31.5c-4.5,0-13.2,5.4-21.5,13.7c-10.2,10.2-16,20.8-13,23.8c0.5,0.5,1.3,0.8,2.3,0.8
				c4.5,0,13.2-5.4,21.5-13.7c10.2-10.2,16-20.8,13-23.8C176,31.7,175.2,31.5,174.3,31.5L174.3,31.5z"/>
		</g>
		<g>
			<path class="st5" d="M141.2,31.6L141.2,31.6c4.3,0,12.9,5.5,20.8,13.5c4.8,4.8,8.8,9.9,11.2,14.4c2.5,4.7,2.6,7.2,1.7,8
				c-0.3,0.3-0.9,0.5-1.6,0.5c-4.3,0-12.9-5.5-20.8-13.5c-4.8-4.8-8.8-9.9-11.2-14.4c-2.5-4.7-2.6-7.2-1.7-8
				C140,31.8,140.5,31.6,141.2,31.6 M141.2,30.6c-1,0-1.8,0.3-2.3,0.8c-3,3,2.8,13.7,13,23.8c8.3,8.3,17,13.7,21.5,13.7
				c1,0,1.8-0.3,2.3-0.8c3-3-2.8-13.7-13-23.8C154.4,36,145.7,30.6,141.2,30.6L141.2,30.6z"/>
		</g>
		<circle class="st5" cx="158.3" cy="51" r="0.8"/>
	</g>
</g>
<g id="Biofuel">
	<g id="fuel_x5F_background">
		<path class="st3" d="M50.4,9C27.6,9,9.1,27.5,9.1,50.2s18.5,41.2,41.2,41.2c4.3,0,8.4-0.6,12.2-1.8C75.8,85.5,86.2,75,90,61.6
			c1-3.6,1.6-7.4,1.6-11.4C91.6,27.5,73.2,9,50.4,9z"/>
	</g>
	<g>
		<g>
			<g>
				<path d="M90.5,56.7L70.9,35.1l0.3,7.5L61,31l2,3v16v18v4H48H35l17,18.9C71.4,89.9,87.3,75.5,90.5,56.7z"/>
			</g>
		</g>
		<g>
			<path class="st5" d="M57.2,29.8l0.5,0.1c2.9,0.4,5.1,3,5.1,5.9v35.5h-5h-17h-5V35.8c0-2.9,2.2-5.5,5.1-5.9l0.5-0.1h0.4h15H57.2
				 M57.9,28.8h-1h-15h-1v0.1c-3.4,0.5-6,3.4-6,6.9v36.5h6h17h6V35.8C63.8,32.2,61.2,29.3,57.9,28.8L57.9,28.8L57.9,28.8z"/>
		</g>
		<g>
			<path class="st4" d="M63.4,42.8h2.4c0.6,0,1,0.5,1,1v18.5c0,0.5,0.4,1,1,1h2.3c0.6,0,1-0.5,1-1V36.2c0-0.5-0.3-1.4-0.6-1.8
				l-3.7-5.2"/>
		</g>
		<rect x="40.5" y="35.5" class="st4" width="18" height="5"/>
		<g>
			<g>
				<path class="st5" d="M53,51.7l-0.7,1.7l-0.4,1.1c-0.4,1-0.7,1.8-0.9,2.6c-0.1,0.5-0.4,1-0.8,1.4c-0.5,0.5-1.3,0.8-2,0.8
					c-0.9,0-1.7-0.4-2.3-1.1c-0.8-1-0.8-2.5,0-3.5c0.4-0.5,1-0.9,1.6-1.1c0.3-0.1,1.7-0.4,2.3-0.7l1.5-0.6L53,51.7 M54.8,49.9
					l-4,1.6l-1.5,0.6c-0.3,0.2-1.4,0.5-2.1,0.6c-0.8,0.2-1.6,0.7-2.2,1.4c-1.1,1.4-1,3.4,0.1,4.8c0.8,1,1.9,1.5,3.1,1.5
					c1,0,2-0.4,2.8-1.1c0.6-0.6,0.9-1.2,1.1-1.9c0.2-0.8,0.5-1.7,0.8-2.5l0.4-1.1L54.8,49.9L54.8,49.9z"/>
			</g>
		</g>
		<line class="st4" x1="49.9" y1="54.9" x2="42.9" y2="61.9"/>
		<g>
			<path class="st4" d="M69.5,33.5l-0.9,1.3c-0.3,0.4-0.3,1.2,0,1.6l1.3,1.8c0.3,0.4,0.7,0.4,0.7-0.2l0.2-1.5
				c0.1-0.5-0.1-1.4-0.4-1.8L69.5,33.5"/>
		</g>
	</g>
</g>
<g id="Electric_x5F_vehicles" class="st0">
	<g id="car_x5F_background" class="st1">
		<path class="st3" d="M482.4-99c-22.8,0-41.2,18.5-41.2,41.2s18.5,41.2,41.2,41.2c4.3,0,8.4-0.6,12.2-1.8
			c13.2-4.1,23.6-14.7,27.4-28c1-3.6,1.6-7.4,1.6-11.4C523.6-80.5,505.2-99,482.4-99z"/>
	</g>
	<g id="car_x5F_details" class="st1">
		<g>
			<g>
				<path d="M522.7-50.5L499-74l5,13l-8,16l-21.3-0.4L470-45l-1,5.5h-7.5l22.9,23C503.6-17.6,519.4-31.9,522.7-50.5z"/>
			</g>
		</g>
		<g>
			<path class="st4" d="M499.7-73.1c-0.2-0.5-0.8-0.9-1.3-0.9h-11c-0.5,0-1.4,0-2,0h-1.9c-0.5,0-1.5,0-2,0h-11
				c-0.6,0-1.2,0.4-1.3,0.9l-4.5,12.6c-0.2,0.5,0.1,0.9,0.7,0.9h16.2c0.5,0,1.5,0,2,0h1.9c0.6,0,1.5,0,2,0h16.2
				c0.5,0,0.8-0.4,0.7-0.9L499.7-73.1z"/>
		</g>
		<g>
			<path class="st3" d="M485.1-60.6c-0.5,0-1.5,0-2,0h-18.4c-2.6,0-4.7,2.1-4.7,4.7l0,0c0,0,0,0.5,0,1v8.5c0,0.5,0.3,1,0.6,1
				c0.3,0,0.6,0.5,0.6,1v3.9c0,0.5,0.5,1,1,1h6.4c0.6,0,1-0.5,1-1v-3.9c0-0.5,0.5-1,1-1h12.5c0.5,0,1.5,0,2,0h12.5c0.5,0,1,0.5,1,1
				v3.9c0,0.5,0.5,1,1,1h6.4c0.5,0,1-0.5,1-1v-3.9c0-0.5,0.3-1,0.6-1s0.6-0.5,0.6-1v-8.5c0-0.5,0-1,0-1l0,0c0-2.6-2.1-4.7-4.7-4.7
				H485.1z"/>
			<path class="st4" d="M485.1-60.6c-0.5,0-1.5,0-2,0h-18.4c-2.6,0-4.7,2.1-4.7,4.7l0,0c0,0,0,0.5,0,1v8.5c0,0.5,0.3,1,0.6,1
				c0.3,0,0.6,0.5,0.6,1v3.9c0,0.5,0.5,1,1,1h6.4c0.6,0,1-0.5,1-1v-3.9c0-0.5,0.5-1,1-1h12.5c0.5,0,1.5,0,2,0h12.5c0.5,0,1,0.5,1,1
				v3.9c0,0.5,0.5,1,1,1h6.4c0.5,0,1-0.5,1-1v-3.9c0-0.5,0.3-1,0.6-1s0.6-0.5,0.6-1v-8.5c0-0.5,0-1,0-1l0,0c0-2.6-2.1-4.7-4.7-4.7
				H485.1z"/>
		</g>
		<g>
			<path class="st5" d="M469.5-55.6v3.1h-4.2v-3.1H469.5 M470.5-56.6h-6.2v5.1h6.2V-56.6L470.5-56.6z"/>
		</g>
		<g>
			<path class="st5" d="M502.3-55.6v3.1h-4.2v-3.1H502.3 M503.3-56.6h-6.2v5.1h6.2V-56.6L503.3-56.6z"/>
		</g>
		<g>
			<path class="st4" d="M465.4-64H458c-0.5,0-1-0.4-1-1v-15.1c0-0.5,0.5-1,1-1h21.3"/>
		</g>
		<g>
			<path class="st5" d="M484.7-84v5.2h-4.2c-0.5,0-1-0.4-1-1V-83c0-0.5,0.4-1,1-1H484.7 M485.6-85h-5.2c-1.1,0-2,0.9-2,2v3.3
				c0,1.1,0.9,2,2,2h5.2c0,0,0.1,0,0.1-0.1L485.6-85C485.7-85,485.7-85,485.6-85L485.6-85z"/>
		</g>
		<line class="st4" x1="484.7" y1="-79.5" x2="488.3" y2="-79.5"/>
		<line class="st4" x1="484.7" y1="-83.1" x2="488.3" y2="-83.1"/>
		<polygon class="st6" points="484.7,-68.7 483,-66.3 483.8,-66.3 483.4,-64.6 485,-66.8 484.1,-66.8 		"/>
		<path class="st7" d="M496-41.5"/>
	</g>
</g>
<g id="Efficient_x5F_bulbs" class="st0">
	<g id="bulb_x5F_background" class="st1">
		<g>
			<path class="st3" d="M375.4-99c-22.8,0-41.2,18.5-41.2,41.2s18.5,41.2,41.2,41.2c4.3,0,8.4-0.6,12.2-1.8
				c13.2-4.1,23.6-14.7,27.4-28c1-3.6,1.6-7.4,1.6-11.4C416.6-80.5,398.2-99,375.4-99z"/>
		</g>
	</g>
	<g id="bulb_x5F_details" class="st1">
		<g>
			<path d="M412.9-45.2L383.6-75H383l-1-1l3,3l2,5l-1,5l-3,5l-1,2l-2,2l-1,5v6l-1,1v3h-8l19.3,19.4
				C400.5-24.2,409.2-33.6,412.9-45.2z"/>
		</g>
		<g>
			<path class="st5" d="M374.6-77.8c6.5,0,11.8,5.3,11.8,11.8c0,4.3-5.3,9.6-5.4,9.6c-0.5,0.5-1,1.5-1.2,2.2l-1.5,8
				c0,0.1-0.1,0.2-0.2,0.2H378h-2h-3.9h-2H370c-0.1,0-0.2-0.1-0.2-0.2l-1.5-8c-0.1-0.7-0.6-1.7-1.2-2.2c-0.1-0.1-5.4-5.4-5.4-9.6
				c0-6.5,5.3-11.8,11.8-11.8h0.1c0.1,0,0.2,0,0.4,0s0.3,0,0.4,0H374.6 M374.6-78.8c-0.2,0-0.2,0-0.2,0c-0.1,0-0.2,0-0.3,0
				s-0.2,0-0.3,0c0,0,0,0-0.2,0c-7.1,0-12.8,5.7-12.8,12.8c0,4.7,5.7,10.4,5.7,10.4c0.4,0.4,0.8,1.1,0.9,1.7l1.5,8
				c0.1,0.5,0.6,1,1.2,1h0.1c0.5,0,1.5,0,2,0h3.9c0.5,0,1.5,0,2,0h0.1c0.5,0,1.1-0.4,1.2-1l1.5-8c0.1-0.5,0.5-1.3,0.9-1.7
				c0,0,5.7-5.6,5.7-10.4C387.3-73.1,381.6-78.8,374.6-78.8L374.6-78.8z"/>
		</g>
		<g>
			<path class="st5" d="M378-44v1h-8v-1H378 M378-45h-8c-0.5,0-1,0.4-1,1v1c0,0.6,0.5,1,1,1h8c0.5,0,1-0.4,1-1v-1
				C379-44.6,378.5-45,378-45L378-45z"/>
		</g>
		<g>
			<path class="st5" d="M377-41v1h-6v-1H377 M378-42h-8v3h8V-42L378-42z"/>
		</g>
		<g>
			<g>
				<path class="st5" d="M379-70.3l-0.7,1.7l-0.4,1.1c-0.4,1-0.7,1.8-0.9,2.6c-0.1,0.5-0.4,1-0.8,1.4c-0.5,0.5-1.3,0.8-2,0.8
					c-0.9,0-1.7-0.4-2.3-1.1c-0.8-1-0.8-2.5,0-3.5c0.4-0.5,1-0.9,1.6-1.1c0.3-0.1,1.7-0.4,2.3-0.7l1.5-0.6L379-70.3 M380.8-72.1
					l-4,1.6l-1.5,0.6c-0.3,0.2-1.4,0.5-2.1,0.6c-0.8,0.2-1.6,0.7-2.2,1.4c-1.1,1.4-1,3.4,0.1,4.8c0.8,1,1.9,1.5,3.1,1.5
					c1,0,2-0.4,2.8-1.1c0.6-0.6,0.9-1.2,1.1-1.9c0.2-0.8,0.5-1.7,0.8-2.5l0.4-1.1L380.8-72.1L380.8-72.1z"/>
			</g>
		</g>
		<line class="st4" x1="375.9" y1="-67.1" x2="368.9" y2="-60.1"/>
	</g>
</g>
<g id="Wind" class="st0">
	<g id="wind_x5F_background" class="st1">
		<path class="st3" d="M267.4-99c-22.8,0-41.2,18.5-41.2,41.2s18.5,41.2,41.2,41.2c4.3,0,8.4-0.6,12.2-1.8
			c13.2-4.1,23.6-14.7,27.4-28c1-3.6,1.6-7.4,1.6-11.4C308.6-80.5,290.2-99,267.4-99z"/>
	</g>
	<g id="wind_x5F_details" class="st1">
		<g>
			<g>
				<path d="M307.7-53.7L282-84l-14,13l-0.8,2l-1.2,5l0.7,17.1L265-32.3l12,14.1C293.4-22.4,305.8-36.5,307.7-53.7z"/>
			</g>
		</g>
		<g>
			<path class="st5" d="M265.8-64.3C265.8-64.3,265.8-64.3,265.8-64.3l-0.6,32c0,0.1,0.1,0.2,0.2,0.2h2.9c0.1,0,0.2-0.1,0.2-0.2
				L267.8-52c-0.4-1.4-0.7-2.9-1-4.6C266.2-59.6,265.8-62.4,265.8-64.3z"/>
			<g>
				<path class="st5" d="M258.2-74.6c-5.4-2.4-10-3.7-10.4-2.9c-0.4,0.8,3.7,3.3,9.1,5.7c3.5,1.6,6.8,2.7,8.6,3
					c-0.1-0.6,0.1-1.1,0.5-1.5C264.5-71.5,261.6-73.1,258.2-74.6z"/>
			</g>
			<g>
				<path class="st5" d="M282.1-84c-0.6-0.6-4.4,2.3-8.5,6.4c-2.7,2.7-4.8,5.3-5.8,6.9c0.4,0.1,0.7,0.3,0.9,0.7
					c0.1,0.1,0.1,0.3,0.2,0.4c1.6-1,4.2-3.2,6.9-5.9C279.9-79.6,282.7-83.4,282.1-84z"/>
			</g>
			<g>
				<path class="st5" d="M268.4-67.9c-0.1,0.1-0.1,0.1-0.2,0.2c-0.5,0.3-1,0.3-1.5,0.2c0,0.2,0,0.5,0,0.7c0,1.9,0.2,4.7,0.7,7.8
					c0.3,1.7,0.6,3.2,0.9,4.6c0.8,3.3,1.7,5.6,2.3,5.5c0.9-0.1,0.8-4.9-0.2-10.6C269.9-63,269.1-66.1,268.4-67.9z"/>
			</g>
		</g>
		<circle class="st5" cx="267.3" cy="-69" r="0.8"/>
		<path d="M269-46.8"/>
		<path d="M265.8-64.1"/>
	</g>
</g>
<g id="Hydro_x5F_Water" class="st0">
	<g id="hydro_x5F_background_1_" class="st1">
		<path class="st3" d="M157.4-99c-22.8,0-41.2,18.5-41.2,41.2s18.5,41.2,41.2,41.2c4.3,0,8.4-0.6,12.2-1.8
			c13.2-4.1,23.6-14.7,27.4-28c1-3.6,1.6-7.4,1.6-11.4C198.6-80.5,180.2-99,157.4-99z"/>
	</g>
	<g id="hydro_x5F_details_1_" class="st1">
		<g>
			<g>
				<path d="M197-46.4L162.4-81l-15.4,40l22.7,22.7C182.8-22.5,193.2-33,197-46.4z"/>
			</g>
		</g>
		<g>
			<path d="M162.1-59.4c-0.2,0-0.5,0-0.7,0c-2.7-0.3-5-2.5-5.3-5.2c-0.2-1.4,0.1-2.8,0.9-4.1c0.6-1,1.3-2.1,1.8-3.3l3.4-8.2l3.1,7.4
				c0.7,1.7,1.3,2.9,2,4c0.6,1,1,2.1,1,3.3c0,1.6-0.6,3.2-1.8,4.3C165.2-60.1,163.7-59.4,162.1-59.4L162.1-59.4z"/>
			<g>
				<path class="st5" d="M162.1-79l1.9,4.5l0.8,1.8c0.7,1.7,1.3,3,2.1,4.1c0.6,0.9,0.9,2,0.9,3.1c0,3.1-2.5,5.6-5.6,5.6
					c-0.2,0-0.4,0-0.6,0c-2.5-0.3-4.6-2.3-4.9-4.8c-0.2-1.3,0.1-2.6,0.8-3.7c0.6-1,1.3-2.2,1.8-3.4l1.1-2.6L162.1-79 M162.1-81.6
					l-2.8,6.7l-1.1,2.6c-0.5,1.1-1.1,2.2-1.7,3.3c-0.8,1.2-1.1,2.8-0.9,4.4c0.4,3,2.8,5.3,5.8,5.6c0.3,0,0.5,0,0.8,0
					c3.6,0,6.6-3,6.6-6.6c0-1.3-0.4-2.6-1.1-3.6c-0.8-1.2-1.4-2.6-2-3.9l-0.8-1.8L162.1-81.6L162.1-81.6z"/>
			</g>
		</g>
		<g>
			<path d="M154.6-38.1c-0.4,0-0.8,0-1.2-0.1c-4.7-0.5-8.6-4.3-9.3-9c-0.3-2.5,0.2-4.9,1.5-7c0.9-1.4,2.6-4.4,3-5.6l6-14.5l5.5,13.2
				c1.2,2.8,2.2,4.8,3.4,6.6c1.1,1.7,1.7,3.7,1.7,5.8c0,2.8-1.1,5.5-3.1,7.5C160.1-39.2,157.4-38.1,154.6-38.1
				C154.6-38.1,154.6-38.1,154.6-38.1z"/>
			<g>
				<path class="st5" d="M154.6-73l3.8,9.1l1.3,3c1.2,2.8,2.2,4.9,3.4,6.7c1.1,1.6,1.6,3.5,1.6,5.5c0,5.6-4.5,10.1-10.1,10.1
					c-0.4,0-0.8,0-1.2-0.1c-4.5-0.5-8.2-4.1-8.8-8.6c-0.3-2.4,0.2-4.7,1.4-6.7c0.9-1.5,2.6-4.3,3-5.7l1.8-4.3L154.6-73 M154.6-75.6
					l-4.7,11.3l-1.8,4.3c-0.3,1.1-1.8,3.7-2.9,5.5c-1.3,2.1-1.9,4.6-1.6,7.4c0.7,5,4.7,8.9,9.7,9.5c0.4,0,0.9,0.1,1.3,0.1
					c6.1,0,11.1-5,11.1-11.1c0-2.2-0.7-4.3-1.8-6c-1.3-2.1-2.4-4.3-3.3-6.6l-1.3-3L154.6-75.6L154.6-75.6z"/>
			</g>
		</g>
		<polygon class="st6" points="156.2,-56.8 151.5,-50.2 153.7,-50.2 152.6,-45.5 157,-51.5 154.5,-51.5 		"/>
	</g>
</g>
<g id="Solar" class="st0">
	<g id="solar_x5F_background_1_" class="st1">
		<path class="st3" d="M50.4-99C27.6-99,9.1-80.5,9.1-57.8s18.5,41.2,41.2,41.2c4.3,0,8.4-0.6,12.2-1.8C75.8-22.5,86.2-33,90-46.4
			c1-3.6,1.6-7.4,1.6-11.4C91.6-80.5,73.2-99,50.4-99z"/>
	</g>
	<g id="solar_x5F_details_1_" class="st1">
		<g>
			<g>
				<path d="M91.1-57.8c0-0.3,0-0.6,0-0.9L78-69H37L24-43l31.9,26C75.8-19.9,91.1-37.1,91.1-57.8z"/>
			</g>
		</g>
		<circle cx="37" cy="-68" r="7"/>
		<path class="st6" d="M23.5-46.6"/>
		<path class="st6" d="M90.4-59.8"/>
		<path class="st6" d="M76.3-73.9"/>
		<path class="st8" d="M33.5-62.2l3.3-6.5h7.6c-0.2-3.8-3.3-6.7-7.1-6.7c-4,0-7.2,3.2-7.2,7.2C30-65.7,31.4-63.5,33.5-62.2z"/>
		<polyline class="st8" points="36.7,-68.8 24.1,-43.5 65.4,-43.5 78,-68.8 44.3,-68.8 		"/>
		<polygon class="st8" points="44.8,-58.7 48.1,-65.3 38.4,-65.3 35.1,-58.7 		"/>
		<polygon class="st8" points="57.4,-58.7 60.7,-65.3 51,-65.3 47.7,-58.7 		"/>
		<polygon class="st8" points="70,-58.7 73.4,-65.3 63.6,-65.3 60.3,-58.7 		"/>
		<polygon class="st8" points="38.9,-47.7 42.2,-54.3 32.5,-54.3 29.2,-47.7 		"/>
		<polygon class="st8" points="51.5,-47.7 54.8,-54.3 45.1,-54.3 41.8,-47.7 		"/>
		<polygon class="st8" points="64.2,-47.7 67.5,-54.3 57.7,-54.3 54.4,-47.7 		"/>
		<line class="st9" x1="29.8" y1="-80.4" x2="32.4" y2="-76.3"/>
		<line class="st9" x1="24.5" y1="-60" x2="28.6" y2="-62.6"/>
		<line class="st9" x1="45" y1="-72.8" x2="49.1" y2="-75.3"/>
		<line class="st9" x1="40.2" y1="-77.4" x2="41.3" y2="-82.1"/>
		<line class="st9" x1="23.5" y1="-71.9" x2="28.2" y2="-70.8"/>
	</g>
</g>
</svg>
