<?xml version="1.0" encoding="utf-8"?>
<!-- Generator: Adobe Illustrator 22.1.0, SVG Export Plug-In . SVG Version: 6.00 Build 0)  -->
<svg version="1.1" xmlns="http://www.w3.org/2000/svg" xmlns:xlink="http://www.w3.org/1999/xlink" x="0px" y="0px"
	 viewBox="0 0 101 102" style="enable-background:new 0 0 101 102;" xml:space="preserve">
<style type="text/css">
	.st0{display:none;}
	.st1{display:inline;}
	.st2{fill:#A2FFEE;}
	.st3{fill:#1A1A1A;}
	.st4{fill:none;stroke:#FFFFFF;stroke-miterlimit:10;}
	.st5{fill:#FFFFFF;}
	.st6{fill:#FFFFFF;stroke:#FFFFFF;stroke-miterlimit:10;}
	.st7{fill:#1A1A1A;stroke:#FFFFFF;stroke-miterlimit:10;}
	.st8{fill-rule:evenodd;clip-rule:evenodd;fill:none;stroke:#FFFFFF;stroke-miterlimit:10;}
	.st9{fill:#FF0000;stroke:#FFFFFF;stroke-miterlimit:10;}
</style>
<g id="Extra" class="st0">
	<g class="st1">
		<g>
			<path class="st2" d="M-91.6,469c-22.5,0-40.7-18.3-40.7-40.7s18.3-40.7,40.7-40.7s40.7,18.3,40.7,40.7c0,3.5-0.5,7-1.4,10.4
				l-34.6-34.6l-15.8,41l22.3,22.3C-84,468.5-87.8,469-91.6,469z"/>
			<g>
				<path class="st2" d="M-91.6,388c22.2,0,40.2,18.1,40.2,40.2c0,3.2-0.4,6.3-1.1,9.4l-33.4-33.4l-1.1-1.1l-0.6,1.4l-15.4,40
					l-0.2,0.6l0.5,0.5l21.5,21.5c-3.4,0.9-6.8,1.3-10.3,1.3c-22.2,0-40.2-18.1-40.2-40.2C-131.9,406.1-113.8,388-91.6,388
					 M-91.6,387c-22.8,0-41.2,18.5-41.2,41.2s18.5,41.2,41.2,41.2c4.3,0,8.4-0.6,12.2-1.8l-22.7-22.7l15.4-40l34.6,34.6
					c1-3.6,1.6-7.4,1.6-11.4C-50.4,405.5-68.8,387-91.6,387L-91.6,387z"/>
			</g>
		</g>
	</g>
	<g class="st1">
		<path class="st2" d="M-185.6,409c-22.8,0-41.2,18.5-41.2,41.2s18.5,41.2,41.2,41.2c4.3,0,8.4-0.6,12.2-1.8
			c13.2-4.1,23.6-14.7,27.4-28c1-3.6,1.6-7.4,1.6-11.4C-144.4,427.5-162.8,409-185.6,409z"/>
	</g>
	<g class="st1">
		<path class="st2" d="M-143.6,319c-22.8,0-41.2,18.5-41.2,41.2s18.5,41.2,41.2,41.2c4.3,0,8.4-0.6,12.2-1.8
			c13.2-4.1,23.6-14.7,27.4-28c1-3.6,1.6-7.4,1.6-11.4C-102.4,337.5-120.8,319-143.6,319z"/>
	</g>
	<g class="st1">
		<path class="st2" d="M-153.6,520c-22.8,0-41.2,18.5-41.2,41.2s18.5,41.2,41.2,41.2c4.3,0,8.4-0.6,12.2-1.8
			c13.2-4.1,23.6-14.7,27.4-28c1-3.6,1.6-7.4,1.6-11.4C-112.4,538.5-130.8,520-153.6,520z"/>
	</g>
	<g class="st1">
		<path class="st2" d="M-18.6,330c-22.8,0-41.2,18.5-41.2,41.2s18.5,41.2,41.2,41.2c4.3,0,8.4-0.6,12.2-1.8
			c13.2-4.1,23.6-14.7,27.4-28c1-3.6,1.6-7.4,1.6-11.4C22.6,348.5,4.2,330-18.6,330z"/>
	</g>
	<g class="st1">
		<path class="st2" d="M56.4,447c-22.8,0-41.2,18.5-41.2,41.2s18.5,41.2,41.2,41.2c4.3,0,8.4-0.6,12.2-1.8
			c13.2-4.1,23.6-14.7,27.4-28c1-3.6,1.6-7.4,1.6-11.4C97.6,465.5,79.2,447,56.4,447z"/>
	</g>
	<g class="st1">
		<path class="st2" d="M-62.6,493c-22.8,0-41.2,18.5-41.2,41.2s18.5,41.2,41.2,41.2c4.3,0,8.4-0.6,12.2-1.8
			c13.2-4.1,23.6-14.7,27.4-28c1-3.6,1.6-7.4,1.6-11.4C-21.4,511.5-39.8,493-62.6,493z"/>
	</g>
</g>
<g id="Saving_x5F_Water" class="st0">
	<g id="save_x5F_background_2_" class="st1">
		<path class="st3" d="M159.4,117c-22.8,0-41.2,18.5-41.2,41.2s18.5,41.2,41.2,41.2c4.3,0,8.4-0.6,12.2-1.8
			c13.2-4.1,23.6-14.7,27.4-28c1-3.6,1.6-7.4,1.6-11.4C200.6,135.5,182.2,117,159.4,117z"/>
	</g>
	<g id="save_x5F_details_2_" class="st1">
		<g>
			<g>
				<path d="M177.8,194.6c-0.2,0.1-0.3,0.2-0.5,0.3C177.4,194.7,177.6,194.6,177.8,194.6z"/>
			</g>
			<g>
				<path d="M186.8,188.3c-0.2,0.2-0.4,0.4-0.6,0.5C186.4,188.7,186.6,188.5,186.8,188.3z"/>
			</g>
			<g>
				<path d="M175.5,195.6c-0.2,0.1-0.4,0.2-0.6,0.3C175.1,195.8,175.3,195.7,175.5,195.6z"/>
			</g>
			<g>
				<path d="M182.5,191.7c-0.2,0.1-0.4,0.3-0.6,0.4C182.1,192,182.3,191.9,182.5,191.7z"/>
			</g>
			<g>
				<path d="M172.6,196.7c-0.1,0-0.2,0.1-0.3,0.1C172.4,196.8,172.5,196.8,172.6,196.7z"/>
			</g>
			<g>
				<path d="M184.8,190c-0.2,0.1-0.3,0.3-0.5,0.4C184.5,190.3,184.7,190.1,184.8,190z"/>
			</g>
			<g>
				<path d="M180.4,193.1c-0.2,0.1-0.4,0.2-0.6,0.3C180,193.3,180.2,193.2,180.4,193.1z"/>
			</g>
			<g>
				<path d="M192.1,182.5c-0.1,0.2-0.2,0.3-0.4,0.5C191.9,182.8,192,182.7,192.1,182.5z"/>
			</g>
			<g>
				<path d="M170.3,197.5c-0.2,0.1-0.4,0.1-0.6,0.2C169.8,197.6,170,197.5,170.3,197.5z"/>
			</g>
			<g>
				<path d="M188.4,186.8c0.1-0.1,0.3-0.3,0.4-0.4C188.7,186.5,188.5,186.7,188.4,186.8z"/>
			</g>
			<g>
				<path d="M190.6,184.4c-0.2,0.2-0.4,0.4-0.6,0.7C190.3,184.8,190.4,184.6,190.6,184.4z"/>
			</g>
			<path d="M184.4,190.4c-0.6,0.5-1.2,0.9-1.8,1.3C183.1,191.3,183.8,190.9,184.4,190.4z"/>
			<path d="M190.1,185c-0.4,0.5-0.8,0.9-1.3,1.4C189.2,186,189.7,185.5,190.1,185z"/>
			<path d="M191.8,183c-0.4,0.5-0.7,0.9-1.1,1.4C191,183.9,191.4,183.5,191.8,183z"/>
			<path d="M186.2,188.9c-0.4,0.4-0.9,0.8-1.4,1.1C185.3,189.6,185.8,189.2,186.2,188.9z"/>
			<path d="M188.4,186.8c-0.5,0.5-1,1-1.6,1.5C187.4,187.8,187.9,187.3,188.4,186.8z"/>
			<path d="M179.8,193.4c-0.7,0.4-1.4,0.8-2.1,1.1C178.5,194.2,179.1,193.8,179.8,193.4z"/>
			<path d="M172.3,196.9c-0.7,0.2-1.4,0.4-2,0.6C170.9,197.3,171.6,197.1,172.3,196.9z"/>
			<path d="M181.9,192.1c-0.5,0.3-1,0.7-1.5,1C180.9,192.8,181.4,192.5,181.9,192.1z"/>
			<path d="M169.6,197.6c-0.8,0.2-1.6,0.4-2.4,0.6C168,198.1,168.8,197.9,169.6,197.6z"/>
			<path d="M174.9,195.9c-0.7,0.3-1.5,0.6-2.3,0.9C173.4,196.5,174.2,196.2,174.9,195.9z"/>
			<path class="st0" d="M177.2,194.8c-0.6,0.3-1.2,0.6-1.8,0.8C176.1,195.4,176.7,195.1,177.2,194.8z"/>
			<path d="M158.3,148.7l7.1,7.1l-15.4-0.9l20,1.1l0,2l15,0.1l13.4,12.4c0.1-0.4,0.3-0.8,0.4-1.2L163,134L158.3,148.7z"/>
			<path d="M185,158.2l-15-0.1l0-2l-20-1.1l-2,2l-11.1,13.2l30.3,28.1c0.8-0.2,1.6-0.4,2.4-0.6c0.2-0.1,0.4-0.1,0.6-0.2
				c0.7-0.2,1.4-0.4,2-0.6c0.1,0,0.2-0.1,0.3-0.1c0.8-0.3,1.5-0.6,2.3-0.9c0.2-0.1,0.4-0.2,0.6-0.3c0.6-0.3,1.2-0.5,1.8-0.8
				c0.2-0.1,0.3-0.2,0.5-0.3c0.7-0.4,1.4-0.7,2.1-1.1c0.2-0.1,0.4-0.2,0.6-0.3c0.5-0.3,1-0.6,1.5-1c0.2-0.1,0.4-0.3,0.6-0.4
				c0.6-0.4,1.2-0.9,1.8-1.3c0.2-0.1,0.3-0.3,0.5-0.4c0.5-0.4,0.9-0.8,1.4-1.1c0.2-0.2,0.4-0.4,0.6-0.5c0.5-0.5,1.1-1,1.6-1.5
				c0.1-0.1,0.3-0.3,0.4-0.4c0.4-0.4,0.9-0.9,1.3-1.4c0.2-0.2,0.4-0.4,0.6-0.7c0.4-0.5,0.8-0.9,1.1-1.4c0.1-0.2,0.2-0.3,0.4-0.5
				c2.7-3.6,4.8-7.6,6.2-11.9L185,158.2z"/>
		</g>
		<g>
			<path class="st4" d="M170.5,158.5l13.4-0.4c0.5,0,0.9,0.4,0.9,1l-0.2,1.4c-0.1,0.5-0.6,1.1-1.1,1.2l-28,5.6
				c-0.5,0.1-1.3,0.6-1.6,1l-5.8,7.4c-0.3,0.4-1,0.5-1.5,0.3l-9.3-5.9c-0.5-0.3-0.6-0.9-0.2-1.3l1.1-1.3c0.3-0.4,0.9-1.1,1.3-1.5
				l9.2-10c0.4-0.4,1.1-0.7,1.7-0.7l19.2,0.3c0.5,0,1,0.5,1,1v1.5c0,0.6-0.4,1.1-1,1.1l-11,1.4"/>
		</g>
		<g>
			<path d="M162.9,150.9c-0.2,0-0.3,0-0.5,0c-2-0.2-3.7-1.9-4-3.9c-0.1-1.1,0.1-2.1,0.6-3c0.4-0.7,1.2-2,1.4-2.6l2.5-6l2.3,5.4
				c0.5,1.3,1,2.2,1.6,3.1c0.5,0.7,0.7,1.6,0.7,2.5c0,1.2-0.5,2.4-1.3,3.2S164.2,150.9,162.9,150.9L162.9,150.9z"/>
			<g>
				<path class="st5" d="M162.9,136.6l1.2,2.9l0.6,1.4c0.5,1.3,1,2.3,1.6,3.2c0.4,0.7,0.7,1.4,0.7,2.2c0,2.2-1.8,4.1-4.1,4.1
					c-0.2,0-0.3,0-0.5,0c-1.8-0.2-3.3-1.7-3.6-3.5c-0.1-1,0.1-1.9,0.6-2.7c0.1-0.2,1.2-1.9,1.4-2.7l0.8-1.9L162.9,136.6 M162.9,134
					l-2.1,5.2l-0.8,2c-0.2,0.5-0.8,1.7-1.3,2.5c-0.6,1-0.9,2.1-0.7,3.4c0.3,2.3,2.2,4.1,4.4,4.3c0.2,0,0.4,0,0.6,0
					c2.8,0,5.1-2.3,5.1-5.1c0-1-0.3-2-0.8-2.8c-0.6-0.9-1.1-2-1.5-3l-0.6-1.4L162.9,134L162.9,134z"/>
			</g>
		</g>
	</g>
</g>
<g id="Recycling" class="st0">
	<g id="recycling_x5F_background" class="st1">
		<path class="st3" d="M48.4,117c-22.8,0-41.2,18.5-41.2,41.2s18.5,41.2,41.2,41.2c4.3,0,8.4-0.6,12.2-1.8
			c13.2-4.1,23.6-14.7,27.4-28c1-3.6,1.6-7.4,1.6-11.4C89.6,135.5,71.2,117,48.4,117z"/>
	</g>
	<g id="recycling_x5F_details" class="st1">
		<g>
			<path d="M88.3,168.8L54,134l5,11l2-1l-4,8l-9-2l3-1l-3-6l-5,8l-6-3l20,19h6l-5-8l6-4l8,13l-4,8H56v2l-6-7l2-2l-14-14l2,9l-3-1
				l-3,5h11v8l-16-1l0.5,1.5l22.4,22.4C69.3,197.5,83.7,185.2,88.3,168.8z"/>
		</g>
		<polygon class="st4" points="28.5,176.5 23.6,169.2 29.6,159 27.5,157.5 36.5,156.5 39.5,165.5 36.5,163.5 		"/>
		<polyline class="st4" points="28.5,176.5 43.5,176.5 43.5,169.5 32.9,169.5 		"/>
		<polygon class="st4" points="43.8,135.9 52.5,135.6 58,146.2 60.4,145.2 56.5,153.3 47.2,151.1 50.5,149.6 		"/>
		<polyline class="st4" points="43.8,135.9 35.8,148.6 41.7,152.3 47.4,143.4 		"/>
		<polygon class="st4" points="70.7,168.7 67,176.6 55.1,176.7 54.9,179.3 49.5,172.1 55.7,164.9 55.5,168.5 		"/>
		<polyline class="st4" points="70.7,168.7 63.1,155.8 57.1,159.4 62.5,168.5 		"/>
	</g>
</g>
<g id="Geothermal" class="st0">
	<g id="geo_x5F_background" class="st1">
		<path class="st3" d="M-58.6,117c-22.8,0-41.2,18.5-41.2,41.2s18.5,41.2,41.2,41.2c4.3,0,8.4-0.6,12.2-1.8
			c13.2-4.1,23.6-14.7,27.4-28c1-3.6,1.6-7.4,1.6-11.4C-17.4,135.5-35.8,117-58.6,117z"/>
	</g>
	<g id="geo_x5F_details" class="st1">
		<g>
			<path d="M-21.4,174.6L-38,158v16h-14l1-7l-3-3l-3,4h1v6l-21.4,0.4l24.2,24.2C-39,196.6-27.1,187.3-21.4,174.6z"/>
		</g>
		<path class="st4" d="M-37.5,179"/>
		<path class="st4" d="M-38.5,176"/>
		<line class="st4" x1="-74.5" y1="161.5" x2="-72" y2="161.5"/>
		<path class="st4" d="M-69,155.5"/>
		<path class="st4" d="M-71.5,155.5"/>
		<line class="st4" x1="-66.5" y1="161.5" x2="-64" y2="161.5"/>
		<line class="st4" x1="-70.5" y1="161.5" x2="-68" y2="161.5"/>
		<path class="st4" d="M-64,161.5"/>
		<path class="st4" d="M-68,155.5"/>
		<path class="st4" d="M-66.1,136.5c1.1,2.2,2.9,3.3,4.4,3.2c2.1-0.2,3.6-2,5.1-2.1c1.6-0.1,4.3,1.2,4,6"/>
		<path class="st4" d="M-54.4,130.4"/>
		<path class="st4" d="M-67.6,139.9c1.8,4.5,4.8,4.5,6.2,3.7"/>
		<path class="st4" d="M-51.5,168.5v5.5h13v-16h-6.8l-5-11h-7l-5,11h-15c0,5.3,0,10.7,0,16h20.8v-5.5H-58l2-2.6l2-2.6l2,2.6l2,2.6
			h-1.9H-51.5z"/>
		<line class="st4" x1="-51.5" y1="168.5" x2="-52" y2="168.5"/>
		<line x1="-51" y1="176" x2="-53.8" y2="174.3"/>
	</g>
</g>
<g id="Scientific_x5F_research" class="st0">
	<g id="research_x5F_background" class="st1">
		<path class="st3" d="M-165.9,117.4c-22.8,0-41.2,18.5-41.2,41.2s18.5,41.2,41.2,41.2c4.3,0,8.4-0.6,12.2-1.8
			c13.2-4.1,23.6-14.7,27.4-28c1-3.6,1.6-7.4,1.6-11.4C-124.6,135.8-143.1,117.4-165.9,117.4z"/>
	</g>
	<g id="research_x5F_details" class="st1">
		<g>
			<g>
				<path d="M-125.9,165.2L-149,140l1,3l-1,3l-1,2l-2,5l7,2l3,2l1,2l-3,3l-8,3l3,8l-1,3h-3l-8-3l-3,9l-2,2h-2l-2-3l-3-8l-5,3
					l-6.5,1.5l20.6,22.4C-144.5,198.6-128.8,184-125.9,165.2z"/>
			</g>
		</g>
		<g>
			<path class="st5" d="M-166.8,133.7c1.2,0,3,1.8,4.5,6.9c1.4,4.8,2.2,11.2,2.2,18.1s-0.8,13.3-2.2,18.1c-1.5,5.1-3.3,6.9-4.5,6.9
				s-3-1.8-4.5-6.9c-1.4-4.8-2.2-11.2-2.2-18.1s0.8-13.3,2.2-18.1C-169.8,135.5-168,133.7-166.8,133.7 M-166.8,132.7
				c-4.2,0-7.7,11.6-7.7,26c0,14.4,3.4,26,7.7,26s7.7-11.6,7.7-26C-159.2,144.3-162.6,132.7-166.8,132.7L-166.8,132.7z"/>
		</g>
		<g>
			<path class="st5" d="M-166.8,152c6.9,0,13.3,0.8,18.1,2.2c5.1,1.5,6.9,3.3,6.9,4.5s-1.8,3-6.9,4.5c-4.8,1.4-11.2,2.2-18.1,2.2
				s-13.3-0.8-18.1-2.2c-5.1-1.5-6.9-3.3-6.9-4.5s1.8-3,6.9-4.5C-180.1,152.8-173.7,152-166.8,152 M-166.8,151
				c-14.4,0-26,3.4-26,7.7c0,4.2,11.6,7.7,26,7.7s26-3.4,26-7.7C-140.8,154.4-152.5,151-166.8,151L-166.8,151z"/>
		</g>
		<g>
			<path class="st5" d="M-150.7,140.5L-150.7,140.5c0.7,0,1.3,0.2,1.6,0.5c0.8,0.8,0.8,3.4-1.7,8c-2.4,4.4-6.4,9.5-11.2,14.4
				c-7.9,7.9-16.5,13.5-20.8,13.5c-0.7,0-1.3-0.2-1.6-0.5c-0.8-0.8-0.8-3.4,1.7-8c2.4-4.4,6.4-9.5,11.2-14.4
				C-163.6,146-155.1,140.5-150.7,140.5 M-150.7,139.5c-4.5,0-13.2,5.4-21.5,13.7c-10.2,10.2-16,20.8-13,23.8
				c0.5,0.5,1.3,0.8,2.3,0.8c4.5,0,13.2-5.4,21.5-13.7c10.2-10.2,16-20.8,13-23.8C-149,139.7-149.8,139.5-150.7,139.5L-150.7,139.5z
				"/>
		</g>
		<g>
			<path class="st5" d="M-183.8,139.6L-183.8,139.6c4.3,0,12.9,5.5,20.8,13.5c4.8,4.8,8.8,9.9,11.2,14.4c2.5,4.7,2.6,7.2,1.7,8
				c-0.3,0.3-0.9,0.5-1.6,0.5c-4.3,0-12.9-5.5-20.8-13.5c-4.8-4.8-8.8-9.9-11.2-14.4c-2.5-4.7-2.6-7.2-1.7-8
				C-185,139.8-184.5,139.6-183.8,139.6 M-183.8,138.6c-1,0-1.8,0.3-2.3,0.8c-3,3,2.8,13.7,13,23.8c8.3,8.3,17,13.7,21.5,13.7
				c1,0,1.8-0.3,2.3-0.8c3-3-2.8-13.7-13-23.8C-170.6,144-179.3,138.6-183.8,138.6L-183.8,138.6z"/>
		</g>
		<circle class="st5" cx="-166.7" cy="159" r="0.8"/>
	</g>
</g>
<g id="Biofuel" class="st0">
	<g id="fuel_x5F_background" class="st1">
		<path class="st3" d="M-274.6,117c-22.8,0-41.2,18.5-41.2,41.2s18.5,41.2,41.2,41.2c4.3,0,8.4-0.6,12.2-1.8
			c13.2-4.1,23.6-14.7,27.4-28c1-3.6,1.6-7.4,1.6-11.4C-233.4,135.5-251.8,117-274.6,117z"/>
	</g>
	<g class="st1">
		<g>
			<g>
				<path d="M-234.5,164.7l-19.6-21.6l0.3,7.5L-264,139l2,3v16v18v4h-15h-13l17,18.9C-253.6,197.9-237.7,183.5-234.5,164.7z"/>
			</g>
		</g>
		<g>
			<path class="st5" d="M-267.8,137.8l0.5,0.1c2.9,0.4,5.1,3,5.1,5.9v35.5h-5h-17h-5v-35.5c0-2.9,2.2-5.5,5.1-5.9l0.5-0.1h0.4h15
				H-267.8 M-267.1,136.8h-1h-15h-1v0.1c-3.4,0.5-6,3.4-6,6.9v36.5h6h17h6v-36.5C-261.2,140.2-263.8,137.3-267.1,136.8L-267.1,136.8
				L-267.1,136.8z"/>
		</g>
		<g>
			<path class="st4" d="M-261.6,150.8h2.4c0.6,0,1,0.5,1,1v18.5c0,0.6,0.5,1,1,1h2.3c0.6,0,1-0.4,1-1v-26.1c0-0.6-0.3-1.4-0.6-1.8
				l-3.7-5.2"/>
		</g>
		<rect x="-284.5" y="143.5" class="st4" width="18" height="5"/>
		<g>
			<g>
				<path class="st5" d="M-272,159.7l-0.7,1.7l-0.4,1.1c-0.4,1-0.7,1.8-0.9,2.6c-0.1,0.5-0.4,1-0.8,1.4c-0.5,0.5-1.3,0.8-2,0.8
					c-0.9,0-1.7-0.4-2.3-1.1c-0.8-1-0.8-2.5,0-3.5c0.4-0.5,1-0.9,1.6-1.1c0.3-0.1,1.7-0.4,2.3-0.7l1.5-0.6L-272,159.7 M-270.2,157.9
					l-4,1.6l-1.5,0.6c-0.3,0.2-1.4,0.5-2.1,0.6c-0.8,0.2-1.6,0.7-2.2,1.4c-1.1,1.4-1,3.4,0.1,4.8c0.8,1,1.9,1.5,3.1,1.5
					c1,0,2-0.4,2.8-1.1c0.6-0.6,0.9-1.2,1.1-1.9c0.2-0.8,0.5-1.7,0.8-2.5l0.4-1.1L-270.2,157.9L-270.2,157.9z"/>
			</g>
		</g>
		<line class="st4" x1="-275.1" y1="162.9" x2="-282.1" y2="169.9"/>
		<g>
			<path class="st4" d="M-255.5,141.5l-0.9,1.3c-0.3,0.4-0.3,1.2,0,1.6l1.3,1.8c0.3,0.4,0.7,0.4,0.7-0.2l0.2-1.5
				c0.1-0.5-0.1-1.4-0.4-1.8L-255.5,141.5"/>
		</g>
	</g>
</g>
<g id="Electric_x5F_vehicles" class="st0">
	<g id="car_x5F_background" class="st1">
		<path class="st3" d="M157.4,9c-22.8,0-41.2,18.5-41.2,41.2s18.5,41.2,41.2,41.2c4.3,0,8.4-0.6,12.2-1.8
			c13.2-4.1,23.6-14.7,27.4-28c1-3.6,1.6-7.4,1.6-11.4C198.6,27.5,180.2,9,157.4,9z"/>
	</g>
	<g id="car_x5F_details" class="st1">
		<g>
			<g>
				<path d="M197.7,57.5L174,34l5,13l-8,16l-21.3-0.4L145,63l-1,5.5h-7.5l22.9,23C178.6,90.4,194.4,76.1,197.7,57.5z"/>
			</g>
		</g>
		<g>
			<path class="st4" d="M174.7,34.9c-0.2-0.5-0.8-0.9-1.3-0.9h-11c-0.6,0-1.4,0-2,0h-1.9c-0.6,0-1.4,0-2,0h-11
				c-0.5,0-1.2,0.4-1.3,0.9l-4.5,12.6c-0.2,0.5,0.1,0.9,0.7,0.9h16.2c0.6,0,1.4,0,2,0h1.9c0.6,0,1.4,0,2,0h16.2
				c0.6,0,0.8-0.4,0.7-0.9L174.7,34.9z"/>
		</g>
		<g>
			<path class="st3" d="M160.1,47.4c-0.6,0-1.4,0-2,0h-18.4c-2.6,0-4.7,2.1-4.7,4.7l0,0c0,0,0,0.5,0,1v8.5c0,0.5,0.3,1,0.6,1
				c0.3,0,0.6,0.5,0.6,1v3.9c0,0.6,0.4,1,1,1h6.4c0.6,0,1-0.4,1-1v-3.9c0-0.5,0.5-1,1-1h12.5c0.6,0,1.4,0,2,0h12.5c0.6,0,1,0.5,1,1
				v3.9c0,0.6,0.4,1,1,1h6.4c0.5,0,1-0.4,1-1v-3.9c0-0.5,0.3-1,0.6-1s0.6-0.5,0.6-1v-8.5c0-0.5,0-1,0-1l0,0c0-2.6-2.1-4.7-4.7-4.7
				H160.1z"/>
			<path class="st4" d="M160.1,47.4c-0.6,0-1.4,0-2,0h-18.4c-2.6,0-4.7,2.1-4.7,4.7l0,0c0,0,0,0.5,0,1v8.5c0,0.5,0.3,1,0.6,1
				c0.3,0,0.6,0.5,0.6,1v3.9c0,0.6,0.4,1,1,1h6.4c0.6,0,1-0.4,1-1v-3.9c0-0.5,0.5-1,1-1h12.5c0.6,0,1.4,0,2,0h12.5c0.6,0,1,0.5,1,1
				v3.9c0,0.6,0.4,1,1,1h6.4c0.5,0,1-0.4,1-1v-3.9c0-0.5,0.3-1,0.6-1s0.6-0.5,0.6-1v-8.5c0-0.5,0-1,0-1l0,0c0-2.6-2.1-4.7-4.7-4.7
				H160.1z"/>
		</g>
		<g>
			<path class="st5" d="M144.5,52.4v3.1h-4.2v-3.1H144.5 M145.5,51.4h-6.2v5.1h6.2V51.4L145.5,51.4z"/>
		</g>
		<g>
			<path class="st5" d="M177.3,52.4v3.1h-4.2v-3.1H177.3 M178.3,51.4h-6.2v5.1h6.2V51.4L178.3,51.4z"/>
		</g>
		<g>
			<path class="st4" d="M140.4,44H133c-0.6,0-1-0.4-1-1V27.9c0-0.6,0.4-1,1-1h21.3"/>
		</g>
		<g>
			<path class="st5" d="M159.7,24v5.2h-4.2c-0.5,0-1-0.4-1-1V25c0-0.5,0.4-1,1-1H159.7 M160.6,23h-5.2c-1.1,0-2,0.9-2,2v3.3
				c0,1.1,0.9,2,2,2h5.2c0,0,0.1,0,0.1-0.1L160.6,23C160.7,23,160.7,23,160.6,23L160.6,23z"/>
		</g>
		<line class="st4" x1="159.7" y1="28.5" x2="163.3" y2="28.5"/>
		<line class="st4" x1="159.7" y1="24.9" x2="163.3" y2="24.9"/>
		<polygon class="st6" points="159.7,39.3 158,41.7 158.8,41.7 158.4,43.4 160,41.2 159.1,41.2 		"/>
		<path class="st7" d="M171,66.5"/>
	</g>
</g>
<g id="Efficient_x5F_bulbs">
	<g id="bulb_x5F_background">
		<g>
			<path class="st3" d="M50.4,9C27.6,9,9.1,27.5,9.1,50.2s18.5,41.2,41.2,41.2c4.3,0,8.4-0.6,12.2-1.8C75.8,85.5,86.2,75,90,61.6
				c1-3.6,1.6-7.4,1.6-11.4C91.6,27.5,73.2,9,50.4,9z"/>
		</g>
	</g>
	<g id="bulb_x5F_details">
		<g>
			<path d="M87.9,62.8L58.6,33H58l-1-1l3,3l2,5l-1,5l-3,5l-1,2l-2,2l-1,5v6l-1,1v3h-8l19.3,19.4C75.5,83.8,84.2,74.4,87.9,62.8z"/>
		</g>
		<g>
			<path class="st5" d="M49.6,30.2c6.5,0,11.8,5.3,11.8,11.8c0,4.3-5.3,9.6-5.4,9.6c-0.5,0.5-1,1.5-1.2,2.2l-1.5,8
				c0,0.1-0.1,0.2-0.2,0.2H53h-2h-3.9h-2H45c-0.1,0-0.2-0.1-0.2-0.2l-1.5-8c-0.1-0.7-0.6-1.7-1.2-2.2c-0.1-0.1-5.4-5.4-5.4-9.6
				c0-6.5,5.3-11.8,11.8-11.8h0.1c0.1,0,0.2,0,0.4,0s0.3,0,0.4,0H49.6 M49.6,29.2c-0.2,0-0.2,0-0.2,0c-0.1,0-0.2,0-0.3,0
				s-0.2,0-0.3,0c0,0,0,0-0.2,0c-7.1,0-12.8,5.7-12.8,12.8c0,4.7,5.7,10.4,5.7,10.4c0.4,0.4,0.8,1.1,0.9,1.7l1.5,8
				c0.1,0.5,0.6,1,1.2,1h0.1c0.5,0,1.5,0,2,0H51c0.5,0,1.5,0,2,0h0.1c0.5,0,1.1-0.4,1.2-1l1.5-8c0.1-0.5,0.5-1.3,0.9-1.7
				c0,0,5.7-5.6,5.7-10.4C62.3,34.9,56.6,29.2,49.6,29.2L49.6,29.2z"/>
		</g>
		<g>
			<path class="st5" d="M53,64v1h-8v-1H53 M53,63h-8c-0.5,0-1,0.4-1,1v1c0,0.6,0.5,1,1,1h8c0.5,0,1-0.4,1-1v-1
				C54,63.4,53.5,63,53,63L53,63z"/>
		</g>
		<g>
			<path class="st5" d="M52,67v1h-6v-1H52 M53,66h-8v3h8V66L53,66z"/>
		</g>
		<g>
			<g>
				<path class="st5" d="M54,37.7l-0.7,1.7l-0.4,1.1c-0.4,1-0.7,1.8-0.9,2.6c-0.1,0.5-0.4,1-0.8,1.4c-0.5,0.5-1.3,0.8-2,0.8
					c-0.9,0-1.7-0.4-2.3-1.1c-0.8-1-0.8-2.5,0-3.5c0.4-0.5,1-0.9,1.6-1.1c0.3-0.1,1.7-0.4,2.3-0.7l1.5-0.6L54,37.7 M55.8,35.9
					l-4,1.6l-1.5,0.6c-0.3,0.2-1.4,0.5-2.1,0.6c-0.8,0.2-1.6,0.7-2.2,1.4c-1.1,1.4-1,3.4,0.1,4.8c0.8,1,1.9,1.5,3.1,1.5
					c1,0,2-0.4,2.8-1.1c0.6-0.6,0.9-1.2,1.1-1.9c0.2-0.8,0.5-1.7,0.8-2.5l0.4-1.1L55.8,35.9L55.8,35.9z"/>
			</g>
		</g>
		<line class="st4" x1="50.9" y1="40.9" x2="43.9" y2="47.9"/>
	</g>
</g>
<g id="Wind" class="st0">
	<g id="wind_x5F_background" class="st1">
		<path class="st3" d="M-57.6,9c-22.8,0-41.2,18.5-41.2,41.2s18.5,41.2,41.2,41.2c4.3,0,8.4-0.6,12.2-1.8
			c13.2-4.1,23.6-14.7,27.4-28c1-3.6,1.6-7.4,1.6-11.4C-16.4,27.5-34.8,9-57.6,9z"/>
	</g>
	<g id="wind_x5F_details" class="st1">
		<g>
			<g>
				<path d="M-17.3,54.3L-43,24l-14,13l-0.8,2l-1.2,5l0.7,17.1L-60,75.7l12,14.1C-31.6,85.6-19.2,71.5-17.3,54.3z"/>
			</g>
		</g>
		<g>
			<path class="st5" d="M-59.2,43.7C-59.2,43.7-59.2,43.7-59.2,43.7l-0.6,32c0,0.1,0.1,0.2,0.2,0.2h2.9c0.1,0,0.2-0.1,0.2-0.2
				L-57.2,56c-0.4-1.4-0.7-2.9-1-4.6C-58.8,48.4-59.2,45.6-59.2,43.7z"/>
			<g>
				<path class="st5" d="M-66.8,33.4c-5.4-2.4-10-3.7-10.4-2.9c-0.4,0.8,3.7,3.3,9.1,5.7c3.5,1.6,6.8,2.7,8.6,3
					c-0.1-0.6,0.1-1.1,0.5-1.5C-60.5,36.5-63.4,34.9-66.8,33.4z"/>
			</g>
			<g>
				<path class="st5" d="M-42.9,24c-0.6-0.6-4.4,2.3-8.5,6.4c-2.7,2.7-4.8,5.3-5.8,6.9c0.4,0.1,0.7,0.3,0.9,0.7
					c0.1,0.1,0.1,0.3,0.2,0.4c1.6-1,4.2-3.2,6.9-5.9C-45.1,28.4-42.3,24.6-42.9,24z"/>
			</g>
			<g>
				<path class="st5" d="M-56.6,40.1c-0.1,0.1-0.1,0.1-0.2,0.2c-0.5,0.3-1,0.3-1.5,0.2c0,0.2,0,0.5,0,0.7c0,1.9,0.2,4.7,0.7,7.8
					c0.3,1.7,0.6,3.2,0.9,4.6c0.8,3.3,1.7,5.6,2.3,5.5c0.9-0.1,0.8-4.9-0.2-10.6C-55.1,45-55.9,41.9-56.6,40.1z"/>
			</g>
		</g>
		<circle class="st5" cx="-57.7" cy="39" r="0.8"/>
		<path d="M-56,61.2"/>
		<path d="M-59.2,43.9"/>
	</g>
</g>
<g id="Hydro_x5F_Water" class="st0">
	<g id="hydro_x5F_background_1_" class="st1">
		<path class="st3" d="M-167.6,9c-22.8,0-41.2,18.5-41.2,41.2s18.5,41.2,41.2,41.2c4.3,0,8.4-0.6,12.2-1.8
			c13.2-4.1,23.6-14.7,27.4-28c1-3.6,1.6-7.4,1.6-11.4C-126.4,27.5-144.8,9-167.6,9z"/>
	</g>
	<g id="hydro_x5F_details_1_" class="st1">
		<g>
			<g>
				<path d="M-128,61.6L-162.6,27l-15.4,40l22.7,22.7C-142.2,85.5-131.8,75-128,61.6z"/>
			</g>
		</g>
		<g>
			<path d="M-162.9,48.6c-0.2,0-0.5,0-0.7,0c-2.7-0.3-5-2.5-5.3-5.2c-0.2-1.4,0.1-2.8,0.9-4.1c0.6-1,1.3-2.1,1.8-3.3l3.4-8.2
				l3.1,7.4c0.7,1.7,1.3,2.9,2,4c0.6,1,1,2.1,1,3.3c0,1.6-0.6,3.2-1.8,4.3C-159.8,47.9-161.3,48.6-162.9,48.6L-162.9,48.6z"/>
			<g>
				<path class="st5" d="M-162.9,29l1.9,4.5l0.8,1.8c0.7,1.7,1.3,3,2.1,4.1c0.6,0.9,0.9,2,0.9,3.1c0,3.1-2.5,5.6-5.6,5.6
					c-0.2,0-0.4,0-0.6,0c-2.5-0.3-4.6-2.3-4.9-4.8c-0.2-1.3,0.1-2.6,0.8-3.7c0.6-1,1.3-2.2,1.8-3.4l1.1-2.6L-162.9,29 M-162.9,26.4
					l-2.8,6.7l-1.1,2.6c-0.5,1.1-1.1,2.2-1.7,3.3c-0.8,1.2-1.1,2.8-0.9,4.4c0.4,3,2.8,5.3,5.8,5.6c0.3,0,0.5,0,0.8,0
					c3.6,0,6.6-3,6.6-6.6c0-1.3-0.4-2.6-1.1-3.6c-0.8-1.2-1.4-2.6-2-3.9l-0.8-1.8L-162.9,26.4L-162.9,26.4z"/>
			</g>
		</g>
		<g>
			<path d="M-170.4,69.9c-0.4,0-0.8,0-1.2-0.1c-4.7-0.5-8.6-4.3-9.3-9c-0.3-2.5,0.2-4.9,1.5-7c0.9-1.4,2.6-4.4,3-5.6l6-14.5
				l5.5,13.2c1.2,2.8,2.2,4.8,3.4,6.6c1.1,1.7,1.7,3.7,1.7,5.8c0,2.8-1.1,5.5-3.1,7.5C-164.9,68.8-167.6,69.9-170.4,69.9
				C-170.4,69.9-170.4,69.9-170.4,69.9z"/>
			<g>
				<path class="st5" d="M-170.4,35l3.8,9.1l1.3,3c1.2,2.8,2.2,4.9,3.4,6.7c1.1,1.6,1.6,3.5,1.6,5.5c0,5.6-4.5,10.1-10.1,10.1
					c-0.4,0-0.8,0-1.2-0.1c-4.5-0.5-8.2-4.1-8.8-8.6c-0.3-2.4,0.2-4.7,1.4-6.7c0.9-1.5,2.6-4.3,3-5.7l1.8-4.3L-170.4,35
					 M-170.4,32.4l-4.7,11.3l-1.8,4.3c-0.3,1.1-1.8,3.7-2.9,5.5c-1.3,2.1-1.9,4.6-1.6,7.4c0.7,5,4.7,8.9,9.7,9.5
					c0.4,0,0.9,0.1,1.3,0.1c6.1,0,11.1-5,11.1-11.1c0-2.2-0.7-4.3-1.8-6c-1.3-2.1-2.4-4.3-3.3-6.6l-1.3-3L-170.4,32.4L-170.4,32.4z"
					/>
			</g>
		</g>
		<polygon class="st6" points="-168.8,51.2 -173.5,57.8 -171.3,57.8 -172.4,62.5 -168,56.5 -170.5,56.5 		"/>
	</g>
</g>
<g id="Solar" class="st0">
	<g id="solar_x5F_background_1_" class="st1">
		<path class="st3" d="M-274.6,9c-22.8,0-41.2,18.5-41.2,41.2s18.5,41.2,41.2,41.2c4.3,0,8.4-0.6,12.2-1.8
			c13.2-4.1,23.6-14.7,27.4-28c1-3.6,1.6-7.4,1.6-11.4C-233.4,27.5-251.8,9-274.6,9z"/>
	</g>
	<g id="solar_x5F_details_1_" class="st1">
		<g>
			<g>
				<path d="M-233.9,50.2c0-0.3,0-0.6,0-0.9L-247,39h-41l-13,26l31.9,26C-249.2,88.1-233.9,70.9-233.9,50.2z"/>
			</g>
		</g>
		<circle cx="-288" cy="40" r="7"/>
		<path class="st6" d="M-301.5,61.4"/>
		<path class="st6" d="M-234.6,48.2"/>
		<path class="st6" d="M-248.7,34.1"/>
		<path class="st8" d="M-291.5,45.8l3.3-6.5h7.6c-0.2-3.8-3.3-6.7-7.1-6.7c-4,0-7.2,3.2-7.2,7.2C-295,42.3-293.6,44.5-291.5,45.8z"
			/>
		<polyline class="st8" points="-288.3,39.2 -300.9,64.5 -259.6,64.5 -247,39.2 -280.7,39.2 		"/>
		<polygon class="st8" points="-280.2,49.3 -276.9,42.7 -286.6,42.7 -289.9,49.3 		"/>
		<polygon class="st8" points="-267.6,49.3 -264.3,42.7 -274,42.7 -277.3,49.3 		"/>
		<polygon class="st8" points="-255,49.3 -251.6,42.7 -261.4,42.7 -264.7,49.3 		"/>
		<polygon class="st8" points="-286.1,60.3 -282.8,53.7 -292.5,53.7 -295.8,60.3 		"/>
		<polygon class="st8" points="-273.5,60.3 -270.2,53.7 -279.9,53.7 -283.2,60.3 		"/>
		<polygon class="st8" points="-260.8,60.3 -257.5,53.7 -267.3,53.7 -270.6,60.3 		"/>
		<line class="st9" x1="-295.2" y1="27.6" x2="-292.6" y2="31.7"/>
		<line class="st9" x1="-300.5" y1="48" x2="-296.4" y2="45.4"/>
		<line class="st9" x1="-280" y1="35.2" x2="-275.9" y2="32.7"/>
		<line class="st9" x1="-284.8" y1="30.6" x2="-283.7" y2="25.9"/>
		<line class="st9" x1="-301.5" y1="36.1" x2="-296.8" y2="37.2"/>
	</g>
</g>
</svg>
