<?xml version="1.0" encoding="utf-8"?>
<!-- Generator: Adobe Illustrator 22.1.0, SVG Export Plug-In . SVG Version: 6.00 Build 0)  -->
<svg version="1.1" xmlns="http://www.w3.org/2000/svg" xmlns:xlink="http://www.w3.org/1999/xlink" x="0px" y="0px"
	 viewBox="0 0 101 102" style="enable-background:new 0 0 101 102;" xml:space="preserve">
<style type="text/css">
	.st0{display:none;}
	.st1{display:inline;}
	.st2{fill:#A2FFEE;}
	.st3{fill:#1A1A1A;}
	.st4{fill:none;stroke:#FFFFFF;stroke-miterlimit:10;}
	.st5{fill:#FFFFFF;}
	.st6{fill:#FFFFFF;stroke:#FFFFFF;stroke-miterlimit:10;}
	.st7{fill:#1A1A1A;stroke:#FFFFFF;stroke-miterlimit:10;}
	.st8{fill-rule:evenodd;clip-rule:evenodd;fill:none;stroke:#FFFFFF;stroke-miterlimit:10;}
	.st9{fill:#FF0000;stroke:#FFFFFF;stroke-miterlimit:10;}
</style>
<g id="Extra" class="st0">
	<g class="st1">
		<g>
			<path class="st2" d="M17.4,361c-22.5,0-40.7-18.3-40.7-40.7s18.3-40.7,40.7-40.7s40.7,18.3,40.7,40.7c0,3.5-0.5,7-1.4,10.4
				l-34.6-34.6l-15.8,41l22.3,22.3C25,360.5,21.2,361,17.4,361z"/>
			<g>
				<path class="st2" d="M17.4,280c22.2,0,40.2,18.1,40.2,40.2c0,3.2-0.4,6.3-1.1,9.4l-33.4-33.4l-1.1-1.1l-0.6,1.4L6,336.6
					l-0.2,0.6l0.5,0.5l21.5,21.5c-3.4,0.9-6.8,1.3-10.3,1.3c-22.2,0-40.2-18.1-40.2-40.2C-22.9,298.1-4.8,280,17.4,280 M17.4,279
					c-22.8,0-41.2,18.5-41.2,41.2s18.5,41.2,41.2,41.2c4.3,0,8.4-0.6,12.2-1.8L6.9,337l15.4-40L57,331.6c1-3.6,1.6-7.4,1.6-11.4
					C58.6,297.5,40.2,279,17.4,279L17.4,279z"/>
			</g>
		</g>
	</g>
	<g class="st1">
		<path class="st2" d="M-76.6,301c-22.8,0-41.2,18.5-41.2,41.2s18.5,41.2,41.2,41.2c4.3,0,8.4-0.6,12.2-1.8
			c13.2-4.1,23.6-14.7,27.4-28c1-3.6,1.6-7.4,1.6-11.4C-35.4,319.5-53.8,301-76.6,301z"/>
	</g>
	<g class="st1">
		<path class="st2" d="M-34.6,211c-22.8,0-41.2,18.5-41.2,41.2s18.5,41.2,41.2,41.2c4.3,0,8.4-0.6,12.2-1.8
			c13.2-4.1,23.6-14.7,27.4-28c1-3.6,1.6-7.4,1.6-11.4C6.6,229.5-11.8,211-34.6,211z"/>
	</g>
	<g class="st1">
		<path class="st2" d="M-44.6,412c-22.8,0-41.2,18.5-41.2,41.2s18.5,41.2,41.2,41.2c4.3,0,8.4-0.6,12.2-1.8
			c13.2-4.1,23.6-14.7,27.4-28c1-3.6,1.6-7.4,1.6-11.4C-3.4,430.5-21.8,412-44.6,412z"/>
	</g>
	<g class="st1">
		<path class="st2" d="M90.4,222c-22.8,0-41.2,18.5-41.2,41.2s18.5,41.2,41.2,41.2c4.3,0,8.4-0.6,12.2-1.8
			c13.2-4.1,23.6-14.7,27.4-28c1-3.6,1.6-7.4,1.6-11.4C131.6,240.5,113.2,222,90.4,222z"/>
	</g>
	<g class="st1">
		<path class="st2" d="M165.4,339c-22.8,0-41.2,18.5-41.2,41.2s18.5,41.2,41.2,41.2c4.3,0,8.4-0.6,12.2-1.8
			c13.2-4.1,23.6-14.7,27.4-28c1-3.6,1.6-7.4,1.6-11.4C206.6,357.5,188.2,339,165.4,339z"/>
	</g>
	<g class="st1">
		<path class="st2" d="M46.4,385c-22.8,0-41.2,18.5-41.2,41.2s18.5,41.2,41.2,41.2c4.3,0,8.4-0.6,12.2-1.8
			c13.2-4.1,23.6-14.7,27.4-28c1-3.6,1.6-7.4,1.6-11.4C87.6,403.5,69.2,385,46.4,385z"/>
	</g>
</g>
<g id="Saving_x5F_Water" class="st0">
	<g id="save_x5F_background_2_" class="st1">
		<path class="st3" d="M268.4,9c-22.8,0-41.2,18.5-41.2,41.2s18.5,41.2,41.2,41.2c4.3,0,8.4-0.6,12.2-1.8
			c13.2-4.1,23.6-14.7,27.4-28c1-3.6,1.6-7.4,1.6-11.4C309.6,27.5,291.2,9,268.4,9z"/>
	</g>
	<g id="save_x5F_details_2_" class="st1">
		<g>
			<g>
				<path d="M286.8,86.6c-0.2,0.1-0.3,0.2-0.5,0.3C286.4,86.7,286.6,86.6,286.8,86.6z"/>
			</g>
			<g>
				<path d="M295.8,80.3c-0.2,0.2-0.4,0.4-0.6,0.5C295.4,80.7,295.6,80.5,295.8,80.3z"/>
			</g>
			<g>
				<path d="M284.5,87.6c-0.2,0.1-0.4,0.2-0.6,0.3C284.1,87.8,284.3,87.7,284.5,87.6z"/>
			</g>
			<g>
				<path d="M291.5,83.7c-0.2,0.1-0.4,0.3-0.6,0.4C291.1,84,291.3,83.9,291.5,83.7z"/>
			</g>
			<g>
				<path d="M281.6,88.7c-0.1,0-0.2,0.1-0.3,0.1C281.4,88.8,281.5,88.8,281.6,88.7z"/>
			</g>
			<g>
				<path d="M293.8,82c-0.2,0.1-0.3,0.3-0.5,0.4C293.5,82.3,293.7,82.1,293.8,82z"/>
			</g>
			<g>
				<path d="M289.4,85.1c-0.2,0.1-0.4,0.2-0.6,0.3C289,85.3,289.2,85.2,289.4,85.1z"/>
			</g>
			<g>
				<path d="M301.1,74.5c-0.1,0.2-0.2,0.3-0.4,0.5C300.9,74.8,301,74.7,301.1,74.5z"/>
			</g>
			<g>
				<path d="M279.3,89.5c-0.2,0.1-0.4,0.1-0.6,0.2C278.8,89.6,279,89.5,279.3,89.5z"/>
			</g>
			<g>
				<path d="M297.4,78.8c0.1-0.1,0.3-0.3,0.4-0.4C297.7,78.5,297.5,78.7,297.4,78.8z"/>
			</g>
			<g>
				<path d="M299.6,76.4c-0.2,0.2-0.4,0.4-0.6,0.7C299.3,76.8,299.4,76.6,299.6,76.4z"/>
			</g>
			<path d="M293.4,82.4c-0.6,0.5-1.2,0.9-1.8,1.3C292.1,83.3,292.8,82.9,293.4,82.4z"/>
			<path d="M299.1,77c-0.4,0.5-0.8,0.9-1.3,1.4C298.2,78,298.7,77.5,299.1,77z"/>
			<path d="M300.8,75c-0.4,0.5-0.7,0.9-1.1,1.4C300,75.9,300.4,75.5,300.8,75z"/>
			<path d="M295.2,80.9c-0.4,0.4-0.9,0.8-1.4,1.1C294.3,81.6,294.8,81.2,295.2,80.9z"/>
			<path d="M297.4,78.8c-0.5,0.5-1,1-1.6,1.5C296.4,79.8,296.9,79.3,297.4,78.8z"/>
			<path d="M288.8,85.4c-0.7,0.4-1.4,0.8-2.1,1.1C287.5,86.2,288.1,85.8,288.8,85.4z"/>
			<path d="M281.3,88.9c-0.7,0.2-1.4,0.4-2,0.6C279.9,89.3,280.6,89.1,281.3,88.9z"/>
			<path d="M290.9,84.1c-0.5,0.3-1,0.7-1.5,1C289.9,84.8,290.4,84.5,290.9,84.1z"/>
			<path d="M278.6,89.6c-0.8,0.2-1.6,0.4-2.4,0.6C277,90.1,277.8,89.9,278.6,89.6z"/>
			<path d="M283.9,87.9c-0.7,0.3-1.5,0.6-2.3,0.9C282.4,88.5,283.2,88.2,283.9,87.9z"/>
			<path class="st0" d="M286.2,86.8c-0.6,0.3-1.2,0.6-1.8,0.8C285.1,87.4,285.7,87.1,286.2,86.8z"/>
			<path d="M267.3,40.7l7.1,7.1L259,46.9l20,1.1l0,2l15,0.1l13.4,12.4c0.1-0.4,0.3-0.8,0.4-1.2L272,26L267.3,40.7z"/>
			<path d="M294,50.2l-15-0.1l0-2l-20-1.1l-2,2l-11.1,13.2l30.3,28.1c0.8-0.2,1.6-0.4,2.4-0.6c0.2-0.1,0.4-0.1,0.6-0.2
				c0.7-0.2,1.4-0.4,2-0.6c0.1,0,0.2-0.1,0.3-0.1c0.8-0.3,1.5-0.6,2.3-0.9c0.2-0.1,0.4-0.2,0.6-0.3c0.6-0.3,1.2-0.5,1.8-0.8
				c0.2-0.1,0.3-0.2,0.5-0.3c0.7-0.4,1.4-0.7,2.1-1.1c0.2-0.1,0.4-0.2,0.6-0.3c0.5-0.3,1-0.6,1.5-1c0.2-0.1,0.4-0.3,0.6-0.4
				c0.6-0.4,1.2-0.9,1.8-1.3c0.2-0.1,0.3-0.3,0.5-0.4c0.5-0.4,0.9-0.8,1.4-1.1c0.2-0.2,0.4-0.4,0.6-0.5c0.5-0.5,1.1-1,1.6-1.5
				c0.1-0.1,0.3-0.3,0.4-0.4c0.4-0.4,0.9-0.9,1.3-1.4c0.2-0.2,0.4-0.4,0.6-0.7c0.4-0.5,0.8-0.9,1.1-1.4c0.1-0.2,0.2-0.3,0.4-0.5
				c2.7-3.6,4.8-7.6,6.2-11.9L294,50.2z"/>
		</g>
		<g>
			<path class="st4" d="M279.5,50.5l13.4-0.4c0.5,0,0.9,0.4,0.9,1l-0.2,1.4c-0.1,0.5-0.6,1.1-1.1,1.2l-28,5.6
				c-0.5,0.1-1.3,0.6-1.6,1l-5.8,7.4c-0.3,0.4-1,0.5-1.5,0.3l-9.3-5.9c-0.5-0.3-0.6-0.9-0.2-1.3l1.1-1.3c0.3-0.4,0.9-1.1,1.3-1.5
				l9.2-10c0.4-0.4,1.1-0.7,1.7-0.7l19.2,0.3c0.5,0,1,0.5,1,1V50c0,0.5-0.4,1.1-1,1.1l-11,1.4"/>
		</g>
		<g>
			<path d="M271.9,42.9c-0.2,0-0.3,0-0.5,0c-2-0.2-3.7-1.9-4-3.9c-0.1-1.1,0.1-2.1,0.6-3c0.4-0.7,1.2-2,1.4-2.6l2.5-6l2.3,5.4
				c0.5,1.3,1,2.2,1.6,3.1c0.5,0.7,0.7,1.6,0.7,2.5c0,1.2-0.5,2.4-1.3,3.2S273.2,42.9,271.9,42.9L271.9,42.9z"/>
			<g>
				<path class="st5" d="M271.9,28.6l1.2,2.9l0.6,1.4c0.5,1.3,1,2.3,1.6,3.2c0.4,0.7,0.7,1.4,0.7,2.2c0,2.2-1.8,4.1-4.1,4.1
					c-0.2,0-0.3,0-0.5,0c-1.8-0.2-3.3-1.7-3.6-3.5c-0.1-1,0.1-1.9,0.6-2.7c0.1-0.2,1.2-1.9,1.4-2.7l0.8-1.9L271.9,28.6 M271.9,26
					l-2.1,5.2l-0.8,2c-0.2,0.5-0.8,1.7-1.3,2.5c-0.6,1-0.9,2.1-0.7,3.4c0.3,2.3,2.2,4.1,4.4,4.3c0.2,0,0.4,0,0.6,0
					c2.8,0,5.1-2.3,5.1-5.1c0-1-0.3-2-0.8-2.8c-0.6-0.9-1.1-2-1.5-3l-0.6-1.4L271.9,26L271.9,26z"/>
			</g>
		</g>
	</g>
</g>
<g id="Recycling" class="st0">
	<g id="recycling_x5F_background" class="st1">
		<path class="st3" d="M157.4,9c-22.8,0-41.2,18.5-41.2,41.2s18.5,41.2,41.2,41.2c4.3,0,8.4-0.6,12.2-1.8
			c13.2-4.1,23.6-14.7,27.4-28c1-3.6,1.6-7.4,1.6-11.4C198.6,27.5,180.2,9,157.4,9z"/>
	</g>
	<g id="recycling_x5F_details" class="st1">
		<g>
			<path d="M197.3,60.8L163,26l5,11l2-1l-4,8l-9-2l3-1l-3-6l-5,8l-6-3l20,19h6l-5-8l6-4l8,13l-4,8h-12v2l-6-7l2-2l-14-14l2,9l-3-1
				l-3,5h11v8l-16-1l0.5,1.5l22.4,22.4C178.3,89.5,192.7,77.2,197.3,60.8z"/>
		</g>
		<polygon class="st4" points="137.5,68.5 132.6,61.2 138.6,51 136.5,49.5 145.5,48.5 148.5,57.5 145.5,55.5 		"/>
		<polyline class="st4" points="137.5,68.5 152.5,68.5 152.5,61.5 141.9,61.5 		"/>
		<polygon class="st4" points="152.8,27.9 161.5,27.6 167,38.2 169.4,37.2 165.5,45.3 156.2,43.1 159.5,41.6 		"/>
		<polyline class="st4" points="152.8,27.9 144.8,40.6 150.7,44.3 156.4,35.4 		"/>
		<polygon class="st4" points="179.7,60.7 176,68.6 164.1,68.7 163.9,71.3 158.5,64.1 164.7,56.9 164.5,60.5 		"/>
		<polyline class="st4" points="179.7,60.7 172.1,47.8 166.1,51.4 171.5,60.5 		"/>
	</g>
</g>
<g id="Geothermal">
	<g id="geo_x5F_background">
		<path class="st3" d="M50.4,9C27.6,9,9.1,27.5,9.1,50.2s18.5,41.2,41.2,41.2c4.3,0,8.4-0.6,12.2-1.8C75.8,85.5,86.2,75,90,61.6
			c1-3.6,1.6-7.4,1.6-11.4C91.6,27.5,73.2,9,50.4,9z"/>
	</g>
	<g id="geo_x5F_details">
		<g>
			<path d="M87.6,66.6L71,50v16H57l1-7l-3-3l-3,4h1v6l-21.4,0.4l24.2,24.2C70,88.6,81.9,79.3,87.6,66.6z"/>
		</g>
		<path class="st4" d="M71.5,71"/>
		<path class="st4" d="M70.5,68"/>
		<line class="st4" x1="34.5" y1="53.5" x2="37" y2="53.5"/>
		<path class="st4" d="M40,47.5"/>
		<path class="st4" d="M37.5,47.5"/>
		<line class="st4" x1="42.5" y1="53.5" x2="45" y2="53.5"/>
		<line class="st4" x1="38.5" y1="53.5" x2="41" y2="53.5"/>
		<path class="st4" d="M45,53.5"/>
		<path class="st4" d="M41,47.5"/>
		<path class="st4" d="M42.9,28.5c1.1,2.2,2.9,3.3,4.4,3.2c2.1-0.2,3.6-2,5.1-2.1c1.6-0.1,4.3,1.2,4,6"/>
		<path class="st4" d="M54.6,22.4"/>
		<path class="st4" d="M41.4,31.9c1.8,4.5,4.8,4.5,6.2,3.7"/>
		<path class="st4" d="M57.5,60.5V66h13V50h-6.8l-5-11h-7l-5,11h-15c0,5.3,0,10.7,0,16h20.8v-5.5H51l2-2.6l2-2.6l2,2.6l2,2.6h-1.9
			H57.5z"/>
		<line class="st4" x1="57.5" y1="60.5" x2="57" y2="60.5"/>
		<line x1="58" y1="68" x2="55.2" y2="66.3"/>
	</g>
</g>
<g id="Scientific_x5F_research" class="st0">
	<g id="research_x5F_background" class="st1">
		<path class="st3" d="M-56.9,9.4c-22.8,0-41.2,18.5-41.2,41.2s18.5,41.2,41.2,41.2c4.3,0,8.4-0.6,12.2-1.8
			c13.2-4.1,23.6-14.7,27.4-28c1-3.6,1.6-7.4,1.6-11.4C-15.6,27.8-34.1,9.4-56.9,9.4z"/>
	</g>
	<g id="research_x5F_details" class="st1">
		<g>
			<g>
				<path d="M-16.9,57.2L-40,32l1,3l-1,3l-1,2l-2,5l7,2l3,2l1,2l-3,3l-8,3l3,8l-1,3h-3l-8-3l-3,9l-2,2h-2l-2-3l-3-8l-5,3l-6.5,1.5
					l20.6,22.4C-35.5,90.6-19.8,76-16.9,57.2z"/>
			</g>
		</g>
		<g>
			<path class="st5" d="M-57.8,25.7c1.2,0,3,1.8,4.5,6.9c1.4,4.8,2.2,11.2,2.2,18.1s-0.8,13.3-2.2,18.1c-1.5,5.1-3.3,6.9-4.5,6.9
				s-3-1.8-4.5-6.9c-1.4-4.8-2.2-11.2-2.2-18.1s0.8-13.3,2.2-18.1C-60.8,27.5-59,25.7-57.8,25.7 M-57.8,24.7c-4.2,0-7.7,11.6-7.7,26
				c0,14.4,3.4,26,7.7,26s7.7-11.6,7.7-26C-50.2,36.3-53.6,24.7-57.8,24.7L-57.8,24.7z"/>
		</g>
		<g>
			<path class="st5" d="M-57.8,44c6.9,0,13.3,0.8,18.1,2.2c5.1,1.5,6.9,3.3,6.9,4.5s-1.8,3-6.9,4.5c-4.8,1.4-11.2,2.2-18.1,2.2
				s-13.3-0.8-18.1-2.2c-5.1-1.5-6.9-3.3-6.9-4.5s1.8-3,6.9-4.5C-71.1,44.8-64.7,44-57.8,44 M-57.8,43c-14.4,0-26,3.4-26,7.7
				c0,4.2,11.6,7.7,26,7.7s26-3.4,26-7.7C-31.8,46.4-43.5,43-57.8,43L-57.8,43z"/>
		</g>
		<g>
			<path class="st5" d="M-41.7,32.5L-41.7,32.5c0.7,0,1.3,0.2,1.6,0.5c0.8,0.8,0.8,3.4-1.7,8c-2.4,4.4-6.4,9.5-11.2,14.4
				c-7.9,7.9-16.5,13.5-20.8,13.5c-0.7,0-1.3-0.2-1.6-0.5c-0.8-0.8-0.8-3.4,1.7-8c2.4-4.4,6.4-9.5,11.2-14.4
				C-54.6,38-46.1,32.5-41.7,32.5 M-41.7,31.5c-4.5,0-13.2,5.4-21.5,13.7c-10.2,10.2-16,20.8-13,23.8c0.5,0.5,1.3,0.8,2.3,0.8
				c4.5,0,13.2-5.4,21.5-13.7c10.2-10.2,16-20.8,13-23.8C-40,31.7-40.8,31.5-41.7,31.5L-41.7,31.5z"/>
		</g>
		<g>
			<path class="st5" d="M-74.8,31.6L-74.8,31.6c4.3,0,12.9,5.5,20.8,13.5c4.8,4.8,8.8,9.9,11.2,14.4c2.5,4.7,2.6,7.2,1.7,8
				c-0.3,0.3-0.9,0.5-1.6,0.5c-4.3,0-12.9-5.5-20.8-13.5c-4.8-4.8-8.8-9.9-11.2-14.4c-2.5-4.7-2.6-7.2-1.7-8
				C-76,31.8-75.5,31.6-74.8,31.6 M-74.8,30.6c-1,0-1.8,0.3-2.3,0.8c-3,3,2.8,13.7,13,23.8c8.3,8.3,17,13.7,21.5,13.7
				c1,0,1.8-0.3,2.3-0.8c3-3-2.8-13.7-13-23.8C-61.6,36-70.3,30.6-74.8,30.6L-74.8,30.6z"/>
		</g>
		<circle class="st5" cx="-57.7" cy="51" r="0.8"/>
	</g>
</g>
<g id="Biofuel" class="st0">
	<g id="fuel_x5F_background" class="st1">
		<path class="st3" d="M-165.6,9c-22.8,0-41.2,18.5-41.2,41.2s18.5,41.2,41.2,41.2c4.3,0,8.4-0.6,12.2-1.8
			c13.2-4.1,23.6-14.7,27.4-28c1-3.6,1.6-7.4,1.6-11.4C-124.4,27.5-142.8,9-165.6,9z"/>
	</g>
	<g class="st1">
		<g>
			<g>
				<path d="M-125.5,56.7l-19.6-21.6l0.3,7.5L-155,31l2,3v16v18v4h-15h-13l17,18.9C-144.6,89.9-128.7,75.5-125.5,56.7z"/>
			</g>
		</g>
		<g>
			<path class="st5" d="M-158.8,29.8l0.5,0.1c2.9,0.4,5.1,3,5.1,5.9v35.5h-5h-17h-5V35.8c0-2.9,2.2-5.5,5.1-5.9l0.5-0.1h0.4h15
				H-158.8 M-158.1,28.8h-1h-15h-1v0.1c-3.4,0.5-6,3.4-6,6.9v36.5h6h17h6V35.8C-152.2,32.2-154.8,29.3-158.1,28.8L-158.1,28.8
				L-158.1,28.8z"/>
		</g>
		<g>
			<path class="st4" d="M-152.6,42.8h2.4c0.6,0,1,0.5,1,1v18.5c0,0.5,0.4,1,1,1h2.3c0.6,0,1-0.5,1-1V36.2c0-0.5-0.3-1.4-0.6-1.8
				l-3.7-5.2"/>
		</g>
		<rect x="-175.5" y="35.5" class="st4" width="18" height="5"/>
		<g>
			<g>
				<path class="st5" d="M-163,51.7l-0.7,1.7l-0.4,1.1c-0.4,1-0.7,1.8-0.9,2.6c-0.1,0.5-0.4,1-0.8,1.4c-0.5,0.5-1.3,0.8-2,0.8
					c-0.9,0-1.7-0.4-2.3-1.1c-0.8-1-0.8-2.5,0-3.5c0.4-0.5,1-0.9,1.6-1.1c0.3-0.1,1.7-0.4,2.3-0.7l1.5-0.6L-163,51.7 M-161.2,49.9
					l-4,1.6l-1.5,0.6c-0.3,0.2-1.4,0.5-2.1,0.6c-0.8,0.2-1.6,0.7-2.2,1.4c-1.1,1.4-1,3.4,0.1,4.8c0.8,1,1.9,1.5,3.1,1.5
					c1,0,2-0.4,2.8-1.1c0.6-0.6,0.9-1.2,1.1-1.9c0.2-0.8,0.5-1.7,0.8-2.5l0.4-1.1L-161.2,49.9L-161.2,49.9z"/>
			</g>
		</g>
		<line class="st4" x1="-166.1" y1="54.9" x2="-173.1" y2="61.9"/>
		<g>
			<path class="st4" d="M-146.5,33.5l-0.9,1.3c-0.3,0.4-0.3,1.2,0,1.6l1.3,1.8c0.3,0.4,0.7,0.4,0.7-0.2l0.2-1.5
				c0.1-0.5-0.1-1.4-0.4-1.8L-146.5,33.5"/>
		</g>
	</g>
</g>
<g id="Electric_x5F_vehicles" class="st0">
	<g id="car_x5F_background" class="st1">
		<path class="st3" d="M266.4-99c-22.8,0-41.2,18.5-41.2,41.2s18.5,41.2,41.2,41.2c4.3,0,8.4-0.6,12.2-1.8
			c13.2-4.1,23.6-14.7,27.4-28c1-3.6,1.6-7.4,1.6-11.4C307.6-80.5,289.2-99,266.4-99z"/>
	</g>
	<g id="car_x5F_details" class="st1">
		<g>
			<g>
				<path d="M306.7-50.5L283-74l5,13l-8,16l-21.3-0.4L254-45l-1,5.5h-7.5l22.9,23C287.6-17.6,303.4-31.9,306.7-50.5z"/>
			</g>
		</g>
		<g>
			<path class="st4" d="M283.7-73.1c-0.2-0.5-0.8-0.9-1.3-0.9h-11c-0.5,0-1.4,0-2,0h-1.9c-0.5,0-1.5,0-2,0h-11
				c-0.5,0-1.2,0.4-1.3,0.9l-4.5,12.6c-0.2,0.5,0.1,0.9,0.7,0.9h16.2c0.5,0,1.5,0,2,0h1.9c0.6,0,1.5,0,2,0h16.2
				c0.5,0,0.8-0.4,0.7-0.9L283.7-73.1z"/>
		</g>
		<g>
			<path class="st3" d="M269.1-60.6c-0.5,0-1.5,0-2,0h-18.4c-2.6,0-4.7,2.1-4.7,4.7l0,0c0,0,0,0.5,0,1v8.5c0,0.5,0.3,1,0.6,1
				c0.3,0,0.6,0.5,0.6,1v3.9c0,0.5,0.4,1,1,1h6.4c0.6,0,1-0.5,1-1v-3.9c0-0.5,0.5-1,1-1h12.5c0.5,0,1.5,0,2,0h12.5c0.5,0,1,0.5,1,1
				v3.9c0,0.5,0.5,1,1,1h6.4c0.5,0,1-0.5,1-1v-3.9c0-0.5,0.3-1,0.6-1s0.6-0.5,0.6-1v-8.5c0-0.5,0-1,0-1l0,0c0-2.6-2.1-4.7-4.7-4.7
				H269.1z"/>
			<path class="st4" d="M269.1-60.6c-0.5,0-1.5,0-2,0h-18.4c-2.6,0-4.7,2.1-4.7,4.7l0,0c0,0,0,0.5,0,1v8.5c0,0.5,0.3,1,0.6,1
				c0.3,0,0.6,0.5,0.6,1v3.9c0,0.5,0.4,1,1,1h6.4c0.6,0,1-0.5,1-1v-3.9c0-0.5,0.5-1,1-1h12.5c0.5,0,1.5,0,2,0h12.5c0.5,0,1,0.5,1,1
				v3.9c0,0.5,0.5,1,1,1h6.4c0.5,0,1-0.5,1-1v-3.9c0-0.5,0.3-1,0.6-1s0.6-0.5,0.6-1v-8.5c0-0.5,0-1,0-1l0,0c0-2.6-2.1-4.7-4.7-4.7
				H269.1z"/>
		</g>
		<g>
			<path class="st5" d="M253.5-55.6v3.1h-4.2v-3.1H253.5 M254.5-56.6h-6.2v5.1h6.2V-56.6L254.5-56.6z"/>
		</g>
		<g>
			<path class="st5" d="M286.3-55.6v3.1h-4.2v-3.1H286.3 M287.3-56.6h-6.2v5.1h6.2V-56.6L287.3-56.6z"/>
		</g>
		<g>
			<path class="st4" d="M249.4-64H242c-0.6,0-1-0.4-1-1v-15.1c0-0.5,0.4-1,1-1h21.3"/>
		</g>
		<g>
			<path class="st5" d="M268.7-84v5.2h-4.2c-0.5,0-1-0.4-1-1V-83c0-0.5,0.4-1,1-1H268.7 M269.6-85h-5.2c-1.1,0-2,0.9-2,2v3.3
				c0,1.1,0.9,2,2,2h5.2c0,0,0.1,0,0.1-0.1L269.6-85C269.7-85,269.7-85,269.6-85L269.6-85z"/>
		</g>
		<line class="st4" x1="268.7" y1="-79.5" x2="272.3" y2="-79.5"/>
		<line class="st4" x1="268.7" y1="-83.1" x2="272.3" y2="-83.1"/>
		<polygon class="st6" points="268.7,-68.7 267,-66.3 267.8,-66.3 267.4,-64.6 269,-66.8 268.1,-66.8 		"/>
		<path class="st7" d="M280-41.5"/>
	</g>
</g>
<g id="Efficient_x5F_bulbs" class="st0">
	<g id="bulb_x5F_background" class="st1">
		<g>
			<path class="st3" d="M159.4-99c-22.8,0-41.2,18.5-41.2,41.2s18.5,41.2,41.2,41.2c4.3,0,8.4-0.6,12.2-1.8
				c13.2-4.1,23.6-14.7,27.4-28c1-3.6,1.6-7.4,1.6-11.4C200.6-80.5,182.2-99,159.4-99z"/>
		</g>
	</g>
	<g id="bulb_x5F_details" class="st1">
		<g>
			<path d="M196.9-45.2L167.6-75H167l-1-1l3,3l2,5l-1,5l-3,5l-1,2l-2,2l-1,5v6l-1,1v3h-8l19.3,19.4
				C184.5-24.2,193.2-33.6,196.9-45.2z"/>
		</g>
		<g>
			<path class="st5" d="M158.6-77.8c6.5,0,11.8,5.3,11.8,11.8c0,4.3-5.3,9.6-5.4,9.6c-0.5,0.5-1,1.5-1.2,2.2l-1.5,8
				c0,0.1-0.1,0.2-0.2,0.2H162h-2h-3.9h-2H154c-0.1,0-0.2-0.1-0.2-0.2l-1.5-8c-0.1-0.7-0.6-1.7-1.2-2.2c-0.1-0.1-5.4-5.4-5.4-9.6
				c0-6.5,5.3-11.8,11.8-11.8h0.1c0.1,0,0.2,0,0.4,0s0.3,0,0.4,0H158.6 M158.6-78.8c-0.2,0-0.2,0-0.2,0c-0.1,0-0.2,0-0.3,0
				s-0.2,0-0.3,0c0,0,0,0-0.2,0c-7.1,0-12.8,5.7-12.8,12.8c0,4.7,5.7,10.4,5.7,10.4c0.4,0.4,0.8,1.1,0.9,1.7l1.5,8
				c0.1,0.5,0.6,1,1.2,1h0.1c0.5,0,1.5,0,2,0h3.9c0.5,0,1.5,0,2,0h0.1c0.5,0,1.1-0.4,1.2-1l1.5-8c0.1-0.5,0.5-1.3,0.9-1.7
				c0,0,5.7-5.6,5.7-10.4C171.3-73.1,165.6-78.8,158.6-78.8L158.6-78.8z"/>
		</g>
		<g>
			<path class="st5" d="M162-44v1h-8v-1H162 M162-45h-8c-0.5,0-1,0.4-1,1v1c0,0.6,0.5,1,1,1h8c0.5,0,1-0.4,1-1v-1
				C163-44.6,162.5-45,162-45L162-45z"/>
		</g>
		<g>
			<path class="st5" d="M161-41v1h-6v-1H161 M162-42h-8v3h8V-42L162-42z"/>
		</g>
		<g>
			<g>
				<path class="st5" d="M163-70.3l-0.7,1.7l-0.4,1.1c-0.4,1-0.7,1.8-0.9,2.6c-0.1,0.5-0.4,1-0.8,1.4c-0.5,0.5-1.3,0.8-2,0.8
					c-0.9,0-1.7-0.4-2.3-1.1c-0.8-1-0.8-2.5,0-3.5c0.4-0.5,1-0.9,1.6-1.1c0.3-0.1,1.7-0.4,2.3-0.7l1.5-0.6L163-70.3 M164.8-72.1
					l-4,1.6l-1.5,0.6c-0.3,0.2-1.4,0.5-2.1,0.6c-0.8,0.2-1.6,0.7-2.2,1.4c-1.1,1.4-1,3.4,0.1,4.8c0.8,1,1.9,1.5,3.1,1.5
					c1,0,2-0.4,2.8-1.1c0.6-0.6,0.9-1.2,1.1-1.9c0.2-0.8,0.5-1.7,0.8-2.5l0.4-1.1L164.8-72.1L164.8-72.1z"/>
			</g>
		</g>
		<line class="st4" x1="159.9" y1="-67.1" x2="152.9" y2="-60.1"/>
	</g>
</g>
<g id="Wind" class="st0">
	<g id="wind_x5F_background" class="st1">
		<path class="st3" d="M51.4-99c-22.8,0-41.2,18.5-41.2,41.2s18.5,41.2,41.2,41.2c4.3,0,8.4-0.6,12.2-1.8C76.8-22.5,87.2-33,91-46.4
			c1-3.6,1.6-7.4,1.6-11.4C92.6-80.5,74.2-99,51.4-99z"/>
	</g>
	<g id="wind_x5F_details" class="st1">
		<g>
			<g>
				<path d="M91.7-53.7L66-84L52-71l-0.8,2L50-64l0.7,17.1L49-32.3l12,14.1C77.4-22.4,89.8-36.5,91.7-53.7z"/>
			</g>
		</g>
		<g>
			<path class="st5" d="M49.8-64.3C49.8-64.3,49.8-64.3,49.8-64.3l-0.6,32c0,0.1,0.1,0.2,0.2,0.2h2.9c0.1,0,0.2-0.1,0.2-0.2L51.8-52
				c-0.4-1.4-0.7-2.9-1-4.6C50.2-59.6,49.8-62.4,49.8-64.3z"/>
			<g>
				<path class="st5" d="M42.2-74.6c-5.4-2.4-10-3.7-10.4-2.9c-0.4,0.8,3.7,3.3,9.1,5.7c3.5,1.6,6.8,2.7,8.6,3
					c-0.1-0.6,0.1-1.1,0.5-1.5C48.5-71.5,45.6-73.1,42.2-74.6z"/>
			</g>
			<g>
				<path class="st5" d="M66.1-84c-0.6-0.6-4.4,2.3-8.5,6.4c-2.7,2.7-4.8,5.3-5.8,6.9c0.4,0.1,0.7,0.3,0.9,0.7
					c0.1,0.1,0.1,0.3,0.2,0.4c1.6-1,4.2-3.2,6.9-5.9C63.9-79.6,66.7-83.4,66.1-84z"/>
			</g>
			<g>
				<path class="st5" d="M52.4-67.9c-0.1,0.1-0.1,0.1-0.2,0.2c-0.5,0.3-1,0.3-1.5,0.2c0,0.2,0,0.5,0,0.7c0,1.9,0.2,4.7,0.7,7.8
					c0.3,1.7,0.6,3.2,0.9,4.6c0.8,3.3,1.7,5.6,2.3,5.5c0.9-0.1,0.8-4.9-0.2-10.6C53.9-63,53.1-66.1,52.4-67.9z"/>
			</g>
		</g>
		<circle class="st5" cx="51.3" cy="-69" r="0.8"/>
		<path d="M53-46.8"/>
		<path d="M49.8-64.1"/>
	</g>
</g>
<g id="Hydro_x5F_Water" class="st0">
	<g id="hydro_x5F_background_1_" class="st1">
		<path class="st3" d="M-58.6-99c-22.8,0-41.2,18.5-41.2,41.2s18.5,41.2,41.2,41.2c4.3,0,8.4-0.6,12.2-1.8
			c13.2-4.1,23.6-14.7,27.4-28c1-3.6,1.6-7.4,1.6-11.4C-17.4-80.5-35.8-99-58.6-99z"/>
	</g>
	<g id="hydro_x5F_details_1_" class="st1">
		<g>
			<g>
				<path d="M-19-46.4L-53.6-81l-15.4,40l22.7,22.7C-33.2-22.5-22.8-33-19-46.4z"/>
			</g>
		</g>
		<g>
			<path d="M-53.9-59.4c-0.2,0-0.5,0-0.7,0c-2.7-0.3-5-2.5-5.3-5.2c-0.2-1.4,0.1-2.8,0.9-4.1c0.6-1,1.3-2.1,1.8-3.3l3.4-8.2l3.1,7.4
				c0.7,1.7,1.3,2.9,2,4c0.6,1,1,2.1,1,3.3c0,1.6-0.6,3.2-1.8,4.3C-50.8-60.1-52.3-59.4-53.9-59.4L-53.9-59.4z"/>
			<g>
				<path class="st5" d="M-53.9-79l1.9,4.5l0.8,1.8c0.7,1.7,1.3,3,2.1,4.1c0.6,0.9,0.9,2,0.9,3.1c0,3.1-2.5,5.6-5.6,5.6
					c-0.2,0-0.4,0-0.6,0c-2.5-0.3-4.6-2.3-4.9-4.8c-0.2-1.3,0.1-2.6,0.8-3.7c0.6-1,1.3-2.2,1.8-3.4l1.1-2.6L-53.9-79 M-53.9-81.6
					l-2.8,6.7l-1.1,2.6c-0.5,1.1-1.1,2.2-1.7,3.3c-0.8,1.2-1.1,2.8-0.9,4.4c0.4,3,2.8,5.3,5.8,5.6c0.3,0,0.5,0,0.8,0
					c3.6,0,6.6-3,6.6-6.6c0-1.3-0.4-2.6-1.1-3.6c-0.8-1.2-1.4-2.6-2-3.9l-0.8-1.8L-53.9-81.6L-53.9-81.6z"/>
			</g>
		</g>
		<g>
			<path d="M-61.4-38.1c-0.4,0-0.8,0-1.2-0.1c-4.7-0.5-8.6-4.3-9.3-9c-0.3-2.5,0.2-4.9,1.5-7c0.9-1.4,2.6-4.4,3-5.6l6-14.5l5.5,13.2
				c1.2,2.8,2.2,4.8,3.4,6.6c1.1,1.7,1.7,3.7,1.7,5.8c0,2.8-1.1,5.5-3.1,7.5C-55.9-39.2-58.6-38.1-61.4-38.1
				C-61.4-38.1-61.4-38.1-61.4-38.1z"/>
			<g>
				<path class="st5" d="M-61.4-73l3.8,9.1l1.3,3c1.2,2.8,2.2,4.9,3.4,6.7c1.1,1.6,1.6,3.5,1.6,5.5c0,5.6-4.5,10.1-10.1,10.1
					c-0.4,0-0.8,0-1.2-0.1c-4.5-0.5-8.2-4.1-8.8-8.6c-0.3-2.4,0.2-4.7,1.4-6.7c0.9-1.5,2.6-4.3,3-5.7l1.8-4.3L-61.4-73 M-61.4-75.6
					l-4.7,11.3l-1.8,4.3c-0.3,1.1-1.8,3.7-2.9,5.5c-1.3,2.1-1.9,4.6-1.6,7.4c0.7,5,4.7,8.9,9.7,9.5c0.4,0,0.9,0.1,1.3,0.1
					c6.1,0,11.1-5,11.1-11.1c0-2.2-0.7-4.3-1.8-6c-1.3-2.1-2.4-4.3-3.3-6.6l-1.3-3L-61.4-75.6L-61.4-75.6z"/>
			</g>
		</g>
		<polygon class="st6" points="-59.8,-56.8 -64.5,-50.2 -62.3,-50.2 -63.4,-45.5 -59,-51.5 -61.5,-51.5 		"/>
	</g>
</g>
<g id="Solar" class="st0">
	<g id="solar_x5F_background_1_" class="st1">
		<path class="st3" d="M-165.6-99c-22.8,0-41.2,18.5-41.2,41.2s18.5,41.2,41.2,41.2c4.3,0,8.4-0.6,12.2-1.8
			c13.2-4.1,23.6-14.7,27.4-28c1-3.6,1.6-7.4,1.6-11.4C-124.4-80.5-142.8-99-165.6-99z"/>
	</g>
	<g id="solar_x5F_details_1_" class="st1">
		<g>
			<g>
				<path d="M-124.9-57.8c0-0.3,0-0.6,0-0.9L-138-69h-41l-13,26l31.9,26C-140.2-19.9-124.9-37.1-124.9-57.8z"/>
			</g>
		</g>
		<circle cx="-179" cy="-68" r="7"/>
		<path class="st6" d="M-192.5-46.6"/>
		<path class="st6" d="M-125.6-59.8"/>
		<path class="st6" d="M-139.7-73.9"/>
		<path class="st8" d="M-182.5-62.2l3.3-6.5h7.6c-0.2-3.8-3.3-6.7-7.1-6.7c-4,0-7.2,3.2-7.2,7.2C-186-65.7-184.6-63.5-182.5-62.2z"
			/>
		<polyline class="st8" points="-179.3,-68.8 -191.9,-43.5 -150.6,-43.5 -138,-68.8 -171.7,-68.8 		"/>
		<polygon class="st8" points="-171.2,-58.7 -167.9,-65.3 -177.6,-65.3 -180.9,-58.7 		"/>
		<polygon class="st8" points="-158.6,-58.7 -155.3,-65.3 -165,-65.3 -168.3,-58.7 		"/>
		<polygon class="st8" points="-146,-58.7 -142.6,-65.3 -152.4,-65.3 -155.7,-58.7 		"/>
		<polygon class="st8" points="-177.1,-47.7 -173.8,-54.3 -183.5,-54.3 -186.8,-47.7 		"/>
		<polygon class="st8" points="-164.5,-47.7 -161.2,-54.3 -170.9,-54.3 -174.2,-47.7 		"/>
		<polygon class="st8" points="-151.8,-47.7 -148.5,-54.3 -158.3,-54.3 -161.6,-47.7 		"/>
		<line class="st9" x1="-186.2" y1="-80.4" x2="-183.6" y2="-76.3"/>
		<line class="st9" x1="-191.5" y1="-60" x2="-187.4" y2="-62.6"/>
		<line class="st9" x1="-171" y1="-72.8" x2="-166.9" y2="-75.3"/>
		<line class="st9" x1="-175.8" y1="-77.4" x2="-174.7" y2="-82.1"/>
		<line class="st9" x1="-192.5" y1="-71.9" x2="-187.8" y2="-70.8"/>
	</g>
</g>
</svg>
