<?xml version="1.0" encoding="utf-8"?>
<!-- Generator: Adobe Illustrator 22.1.0, SVG Export Plug-In . SVG Version: 6.00 Build 0)  -->
<svg version="1.1" xmlns="http://www.w3.org/2000/svg" xmlns:xlink="http://www.w3.org/1999/xlink" x="0px" y="0px"
	 viewBox="0 0 101 102" style="enable-background:new 0 0 101 102;" xml:space="preserve">
<style type="text/css">
	.st0{display:none;}
	.st1{display:inline;}
	.st2{fill:#A2FFEE;}
	.st3{fill:#1A1A1A;}
	.st4{fill:none;stroke:#FFFFFF;stroke-miterlimit:10;}
	.st5{fill:#FFFFFF;}
	.st6{fill:#FFFFFF;stroke:#FFFFFF;stroke-miterlimit:10;}
	.st7{fill:#1A1A1A;stroke:#FFFFFF;stroke-miterlimit:10;}
	.st8{fill-rule:evenodd;clip-rule:evenodd;fill:none;stroke:#FFFFFF;stroke-miterlimit:10;}
	.st9{fill:#FF0000;stroke:#FFFFFF;stroke-miterlimit:10;}
</style>
<g id="Extra" class="st0">
	<g class="st1">
		<g>
			<path class="st2" d="M126.4,469c-22.5,0-40.7-18.3-40.7-40.7s18.3-40.7,40.7-40.7s40.7,18.3,40.7,40.7c0,3.5-0.5,7-1.4,10.4
				l-34.6-34.6l-15.8,41l22.3,22.3C134,468.5,130.2,469,126.4,469z"/>
			<g>
				<path class="st2" d="M126.4,388c22.2,0,40.2,18.1,40.2,40.2c0,3.2-0.4,6.3-1.1,9.4l-33.4-33.4l-1.1-1.1l-0.6,1.4l-15.4,40
					l-0.2,0.6l0.5,0.5l21.5,21.5c-3.4,0.9-6.8,1.3-10.3,1.3c-22.2,0-40.2-18.1-40.2-40.2C86.1,406.1,104.2,388,126.4,388 M126.4,387
					c-22.8,0-41.2,18.5-41.2,41.2s18.5,41.2,41.2,41.2c4.3,0,8.4-0.6,12.2-1.8L115.9,445l15.4-40l34.6,34.6c1-3.6,1.6-7.4,1.6-11.4
					C167.6,405.5,149.2,387,126.4,387L126.4,387z"/>
			</g>
		</g>
	</g>
	<g class="st1">
		<path class="st2" d="M32.4,409c-22.8,0-41.2,18.5-41.2,41.2s18.5,41.2,41.2,41.2c4.3,0,8.4-0.6,12.2-1.8
			c13.2-4.1,23.6-14.7,27.4-28c1-3.6,1.6-7.4,1.6-11.4C73.6,427.5,55.2,409,32.4,409z"/>
	</g>
	<g class="st1">
		<path class="st2" d="M74.4,319c-22.8,0-41.2,18.5-41.2,41.2s18.5,41.2,41.2,41.2c4.3,0,8.4-0.6,12.2-1.8
			c13.2-4.1,23.6-14.7,27.4-28c1-3.6,1.6-7.4,1.6-11.4C115.6,337.5,97.2,319,74.4,319z"/>
	</g>
	<g class="st1">
		<path class="st2" d="M64.4,520c-22.8,0-41.2,18.5-41.2,41.2s18.5,41.2,41.2,41.2c4.3,0,8.4-0.6,12.2-1.8
			c13.2-4.1,23.6-14.7,27.4-28c1-3.6,1.6-7.4,1.6-11.4C105.6,538.5,87.2,520,64.4,520z"/>
	</g>
	<g class="st1">
		<path class="st2" d="M199.4,330c-22.8,0-41.2,18.5-41.2,41.2s18.5,41.2,41.2,41.2c4.3,0,8.4-0.6,12.2-1.8
			c13.2-4.1,23.6-14.7,27.4-28c1-3.6,1.6-7.4,1.6-11.4C240.6,348.5,222.2,330,199.4,330z"/>
	</g>
	<g class="st1">
		<path class="st2" d="M274.4,447c-22.8,0-41.2,18.5-41.2,41.2s18.5,41.2,41.2,41.2c4.3,0,8.4-0.6,12.2-1.8
			c13.2-4.1,23.6-14.7,27.4-28c1-3.6,1.6-7.4,1.6-11.4C315.6,465.5,297.2,447,274.4,447z"/>
	</g>
	<g class="st1">
		<path class="st2" d="M155.4,493c-22.8,0-41.2,18.5-41.2,41.2s18.5,41.2,41.2,41.2c4.3,0,8.4-0.6,12.2-1.8
			c13.2-4.1,23.6-14.7,27.4-28c1-3.6,1.6-7.4,1.6-11.4C196.6,511.5,178.2,493,155.4,493z"/>
	</g>
</g>
<g id="Saving_x5F_Water" class="st0">
	<g id="save_x5F_background_2_" class="st1">
		<path class="st3" d="M377.4,117c-22.8,0-41.2,18.5-41.2,41.2s18.5,41.2,41.2,41.2c4.3,0,8.4-0.6,12.2-1.8
			c13.2-4.1,23.6-14.7,27.4-28c1-3.6,1.6-7.4,1.6-11.4C418.6,135.5,400.2,117,377.4,117z"/>
	</g>
	<g id="save_x5F_details_2_" class="st1">
		<g>
			<g>
				<path d="M395.8,194.6c-0.2,0.1-0.3,0.2-0.5,0.3C395.4,194.7,395.6,194.6,395.8,194.6z"/>
			</g>
			<g>
				<path d="M404.8,188.3c-0.2,0.2-0.4,0.4-0.6,0.5C404.4,188.7,404.6,188.5,404.8,188.3z"/>
			</g>
			<g>
				<path d="M393.5,195.6c-0.2,0.1-0.4,0.2-0.6,0.3C393.1,195.8,393.3,195.7,393.5,195.6z"/>
			</g>
			<g>
				<path d="M400.5,191.7c-0.2,0.1-0.4,0.3-0.6,0.4C400.1,192,400.3,191.9,400.5,191.7z"/>
			</g>
			<g>
				<path d="M390.6,196.7c-0.1,0-0.2,0.1-0.3,0.1C390.4,196.8,390.5,196.8,390.6,196.7z"/>
			</g>
			<g>
				<path d="M402.8,190c-0.2,0.1-0.3,0.3-0.5,0.4C402.5,190.3,402.7,190.1,402.8,190z"/>
			</g>
			<g>
				<path d="M398.4,193.1c-0.2,0.1-0.4,0.2-0.6,0.3C398,193.3,398.2,193.2,398.4,193.1z"/>
			</g>
			<g>
				<path d="M410.1,182.5c-0.1,0.2-0.2,0.3-0.4,0.5C409.9,182.8,410,182.7,410.1,182.5z"/>
			</g>
			<g>
				<path d="M388.3,197.5c-0.2,0.1-0.4,0.1-0.6,0.2C387.8,197.6,388,197.5,388.3,197.5z"/>
			</g>
			<g>
				<path d="M406.4,186.8c0.1-0.1,0.3-0.3,0.4-0.4C406.7,186.5,406.5,186.7,406.4,186.8z"/>
			</g>
			<g>
				<path d="M408.6,184.4c-0.2,0.2-0.4,0.4-0.6,0.7C408.3,184.8,408.4,184.6,408.6,184.4z"/>
			</g>
			<path d="M402.4,190.4c-0.6,0.5-1.2,0.9-1.8,1.3C401.1,191.3,401.8,190.9,402.4,190.4z"/>
			<path d="M408.1,185c-0.4,0.5-0.8,0.9-1.3,1.4C407.2,186,407.7,185.5,408.1,185z"/>
			<path d="M409.8,183c-0.4,0.5-0.7,0.9-1.1,1.4C409,183.9,409.4,183.5,409.8,183z"/>
			<path d="M404.2,188.9c-0.4,0.4-0.9,0.8-1.4,1.1C403.3,189.6,403.8,189.2,404.2,188.9z"/>
			<path d="M406.4,186.8c-0.5,0.5-1,1-1.6,1.5C405.4,187.8,405.9,187.3,406.4,186.8z"/>
			<path d="M397.8,193.4c-0.7,0.4-1.4,0.8-2.1,1.1C396.5,194.2,397.1,193.8,397.8,193.4z"/>
			<path d="M390.3,196.9c-0.7,0.2-1.4,0.4-2,0.6C388.9,197.3,389.6,197.1,390.3,196.9z"/>
			<path d="M399.9,192.1c-0.5,0.3-1,0.7-1.5,1C398.9,192.8,399.4,192.5,399.9,192.1z"/>
			<path d="M387.6,197.6c-0.8,0.2-1.6,0.4-2.4,0.6C386,198.1,386.8,197.9,387.6,197.6z"/>
			<path d="M392.9,195.9c-0.7,0.3-1.5,0.6-2.3,0.9C391.4,196.5,392.2,196.2,392.9,195.9z"/>
			<path class="st0" d="M395.2,194.8c-0.6,0.3-1.2,0.6-1.8,0.8C394.1,195.4,394.7,195.1,395.2,194.8z"/>
			<path d="M376.3,148.7l7.1,7.1l-15.4-0.9l20,1.1l0,2l15,0.1l13.4,12.4c0.1-0.4,0.3-0.8,0.4-1.2L381,134L376.3,148.7z"/>
			<path d="M403,158.2l-15-0.1l0-2l-20-1.1l-2,2l-11.1,13.2l30.3,28.1c0.8-0.2,1.6-0.4,2.4-0.6c0.2-0.1,0.4-0.1,0.6-0.2
				c0.7-0.2,1.4-0.4,2-0.6c0.1,0,0.2-0.1,0.3-0.1c0.8-0.3,1.5-0.6,2.3-0.9c0.2-0.1,0.4-0.2,0.6-0.3c0.6-0.3,1.2-0.5,1.8-0.8
				c0.2-0.1,0.3-0.2,0.5-0.3c0.7-0.4,1.4-0.7,2.1-1.1c0.2-0.1,0.4-0.2,0.6-0.3c0.5-0.3,1-0.6,1.5-1c0.2-0.1,0.4-0.3,0.6-0.4
				c0.6-0.4,1.2-0.9,1.8-1.3c0.2-0.1,0.3-0.3,0.5-0.4c0.5-0.4,0.9-0.8,1.4-1.1c0.2-0.2,0.4-0.4,0.6-0.5c0.5-0.5,1.1-1,1.6-1.5
				c0.1-0.1,0.3-0.3,0.4-0.4c0.4-0.4,0.9-0.9,1.3-1.4c0.2-0.2,0.4-0.4,0.6-0.7c0.4-0.5,0.8-0.9,1.1-1.4c0.1-0.2,0.2-0.3,0.4-0.5
				c2.7-3.6,4.8-7.6,6.2-11.9L403,158.2z"/>
		</g>
		<g>
			<path class="st4" d="M388.5,158.5l13.4-0.4c0.5,0,0.9,0.4,0.9,1l-0.2,1.4c-0.1,0.5-0.6,1.1-1.1,1.2l-28,5.6
				c-0.5,0.1-1.3,0.6-1.6,1l-5.8,7.4c-0.3,0.4-1,0.5-1.5,0.3l-9.3-5.9c-0.5-0.3-0.6-0.9-0.2-1.3l1.1-1.3c0.3-0.4,0.9-1.1,1.3-1.5
				l9.2-10c0.4-0.4,1.1-0.7,1.7-0.7l19.2,0.3c0.5,0,1,0.5,1,1v1.5c0,0.6-0.4,1.1-1,1.1l-11,1.4"/>
		</g>
		<g>
			<path d="M380.9,150.9c-0.2,0-0.3,0-0.5,0c-2-0.2-3.7-1.9-4-3.9c-0.1-1.1,0.1-2.1,0.6-3c0.4-0.7,1.2-2,1.4-2.6l2.5-6l2.3,5.4
				c0.5,1.3,1,2.2,1.6,3.1c0.5,0.7,0.7,1.6,0.7,2.5c0,1.2-0.5,2.4-1.3,3.2S382.2,150.9,380.9,150.9L380.9,150.9z"/>
			<g>
				<path class="st5" d="M380.9,136.6l1.2,2.9l0.6,1.4c0.5,1.3,1,2.3,1.6,3.2c0.4,0.7,0.7,1.4,0.7,2.2c0,2.2-1.8,4.1-4.1,4.1
					c-0.2,0-0.3,0-0.5,0c-1.8-0.2-3.3-1.7-3.6-3.5c-0.1-1,0.1-1.9,0.6-2.7c0.1-0.2,1.2-1.9,1.4-2.7l0.8-1.9L380.9,136.6 M380.9,134
					l-2.1,5.2l-0.8,2c-0.2,0.5-0.8,1.7-1.3,2.5c-0.6,1-0.9,2.1-0.7,3.4c0.3,2.3,2.2,4.1,4.4,4.3c0.2,0,0.4,0,0.6,0
					c2.8,0,5.1-2.3,5.1-5.1c0-1-0.3-2-0.8-2.8c-0.6-0.9-1.1-2-1.5-3l-0.6-1.4L380.9,134L380.9,134z"/>
			</g>
		</g>
	</g>
</g>
<g id="Recycling" class="st0">
	<g id="recycling_x5F_background" class="st1">
		<path class="st3" d="M266.4,117c-22.8,0-41.2,18.5-41.2,41.2s18.5,41.2,41.2,41.2c4.3,0,8.4-0.6,12.2-1.8
			c13.2-4.1,23.6-14.7,27.4-28c1-3.6,1.6-7.4,1.6-11.4C307.6,135.5,289.2,117,266.4,117z"/>
	</g>
	<g id="recycling_x5F_details" class="st1">
		<g>
			<path d="M306.3,168.8L272,134l5,11l2-1l-4,8l-9-2l3-1l-3-6l-5,8l-6-3l20,19h6l-5-8l6-4l8,13l-4,8h-12v2l-6-7l2-2l-14-14l2,9l-3-1
				l-3,5h11v8l-16-1l0.5,1.5l22.4,22.4C287.3,197.5,301.7,185.2,306.3,168.8z"/>
		</g>
		<polygon class="st4" points="246.5,176.5 241.6,169.2 247.6,159 245.5,157.5 254.5,156.5 257.5,165.5 254.5,163.5 		"/>
		<polyline class="st4" points="246.5,176.5 261.5,176.5 261.5,169.5 250.9,169.5 		"/>
		<polygon class="st4" points="261.8,135.9 270.5,135.6 276,146.2 278.4,145.2 274.5,153.3 265.2,151.1 268.5,149.6 		"/>
		<polyline class="st4" points="261.8,135.9 253.8,148.6 259.7,152.3 265.4,143.4 		"/>
		<polygon class="st4" points="288.7,168.7 285,176.6 273.1,176.7 272.9,179.3 267.5,172.1 273.7,164.9 273.5,168.5 		"/>
		<polyline class="st4" points="288.7,168.7 281.1,155.8 275.1,159.4 280.5,168.5 		"/>
	</g>
</g>
<g id="Geothermal" class="st0">
	<g id="geo_x5F_background" class="st1">
		<path class="st3" d="M159.4,117c-22.8,0-41.2,18.5-41.2,41.2s18.5,41.2,41.2,41.2c4.3,0,8.4-0.6,12.2-1.8
			c13.2-4.1,23.6-14.7,27.4-28c1-3.6,1.6-7.4,1.6-11.4C200.6,135.5,182.2,117,159.4,117z"/>
	</g>
	<g id="geo_x5F_details" class="st1">
		<g>
			<path d="M196.6,174.6L180,158v16h-14l1-7l-3-3l-3,4h1v6l-21.4,0.4l24.2,24.2C179,196.6,190.9,187.3,196.6,174.6z"/>
		</g>
		<path class="st4" d="M180.5,179"/>
		<path class="st4" d="M179.5,176"/>
		<line class="st4" x1="143.5" y1="161.5" x2="146" y2="161.5"/>
		<path class="st4" d="M149,155.5"/>
		<path class="st4" d="M146.5,155.5"/>
		<line class="st4" x1="151.5" y1="161.5" x2="154" y2="161.5"/>
		<line class="st4" x1="147.5" y1="161.5" x2="150" y2="161.5"/>
		<path class="st4" d="M154,161.5"/>
		<path class="st4" d="M150,155.5"/>
		<path class="st4" d="M151.9,136.5c1.1,2.2,2.9,3.3,4.4,3.2c2.1-0.2,3.6-2,5.1-2.1c1.6-0.1,4.3,1.2,4,6"/>
		<path class="st4" d="M163.6,130.4"/>
		<path class="st4" d="M150.4,139.9c1.8,4.5,4.8,4.5,6.2,3.7"/>
		<path class="st4" d="M166.5,168.5v5.5h13v-16h-6.8l-5-11h-7l-5,11h-15c0,5.3,0,10.7,0,16h20.8v-5.5H160l2-2.6l2-2.6l2,2.6l2,2.6
			h-1.9H166.5z"/>
		<line class="st4" x1="166.5" y1="168.5" x2="166" y2="168.5"/>
		<line x1="167" y1="176" x2="164.2" y2="174.3"/>
	</g>
</g>
<g id="Scientific_x5F_research" class="st0">
	<g id="research_x5F_background" class="st1">
		<path class="st3" d="M52.1,117.4c-22.8,0-41.2,18.5-41.2,41.2s18.5,41.2,41.2,41.2c4.3,0,8.4-0.6,12.2-1.8
			c13.2-4.1,23.6-14.7,27.4-28c1-3.6,1.6-7.4,1.6-11.4C93.4,135.8,74.9,117.4,52.1,117.4z"/>
	</g>
	<g id="research_x5F_details" class="st1">
		<g>
			<g>
				<path d="M92.1,165.2L69,140l1,3l-1,3l-1,2l-2,5l7,2l3,2l1,2l-3,3l-8,3l3,8l-1,3h-3l-8-3l-3,9l-2,2h-2l-2-3l-3-8l-5,3l-6.5,1.5
					l20.6,22.4C73.5,198.6,89.2,184,92.1,165.2z"/>
			</g>
		</g>
		<g>
			<path class="st5" d="M51.2,133.7c1.2,0,3,1.8,4.5,6.9c1.4,4.8,2.2,11.2,2.2,18.1s-0.8,13.3-2.2,18.1c-1.5,5.1-3.3,6.9-4.5,6.9
				s-3-1.8-4.5-6.9c-1.4-4.8-2.2-11.2-2.2-18.1s0.8-13.3,2.2-18.1C48.2,135.5,50,133.7,51.2,133.7 M51.2,132.7
				c-4.2,0-7.7,11.6-7.7,26c0,14.4,3.4,26,7.7,26s7.7-11.6,7.7-26C58.8,144.3,55.4,132.7,51.2,132.7L51.2,132.7z"/>
		</g>
		<g>
			<path class="st5" d="M51.2,152c6.9,0,13.3,0.8,18.1,2.2c5.1,1.5,6.9,3.3,6.9,4.5s-1.8,3-6.9,4.5c-4.8,1.4-11.2,2.2-18.1,2.2
				s-13.3-0.8-18.1-2.2c-5.1-1.5-6.9-3.3-6.9-4.5s1.8-3,6.9-4.5C37.9,152.8,44.3,152,51.2,152 M51.2,151c-14.4,0-26,3.4-26,7.7
				c0,4.2,11.6,7.7,26,7.7s26-3.4,26-7.7C77.2,154.4,65.5,151,51.2,151L51.2,151z"/>
		</g>
		<g>
			<path class="st5" d="M67.3,140.5L67.3,140.5c0.7,0,1.3,0.2,1.6,0.5c0.8,0.8,0.8,3.4-1.7,8c-2.4,4.4-6.4,9.5-11.2,14.4
				c-7.9,7.9-16.5,13.5-20.8,13.5c-0.7,0-1.3-0.2-1.6-0.5c-0.8-0.8-0.8-3.4,1.7-8c2.4-4.4,6.4-9.5,11.2-14.4
				C54.4,146,62.9,140.5,67.3,140.5 M67.3,139.5c-4.5,0-13.2,5.4-21.5,13.7c-10.2,10.2-16,20.8-13,23.8c0.5,0.5,1.3,0.8,2.3,0.8
				c4.5,0,13.2-5.4,21.5-13.7c10.2-10.2,16-20.8,13-23.8C69,139.7,68.2,139.5,67.3,139.5L67.3,139.5z"/>
		</g>
		<g>
			<path class="st5" d="M34.2,139.6L34.2,139.6c4.3,0,12.9,5.5,20.8,13.5c4.8,4.8,8.8,9.9,11.2,14.4c2.5,4.7,2.6,7.2,1.7,8
				c-0.3,0.3-0.9,0.5-1.6,0.5c-4.3,0-12.9-5.5-20.8-13.5c-4.8-4.8-8.8-9.9-11.2-14.4c-2.5-4.7-2.6-7.2-1.7-8
				C33,139.8,33.5,139.6,34.2,139.6 M34.2,138.6c-1,0-1.8,0.3-2.3,0.8c-3,3,2.8,13.7,13,23.8c8.3,8.3,17,13.7,21.5,13.7
				c1,0,1.8-0.3,2.3-0.8c3-3-2.8-13.7-13-23.8C47.4,144,38.7,138.6,34.2,138.6L34.2,138.6z"/>
		</g>
		<circle class="st5" cx="51.3" cy="159" r="0.8"/>
	</g>
</g>
<g id="Biofuel" class="st0">
	<g id="fuel_x5F_background" class="st1">
		<path class="st3" d="M-56.6,117c-22.8,0-41.2,18.5-41.2,41.2s18.5,41.2,41.2,41.2c4.3,0,8.4-0.6,12.2-1.8
			c13.2-4.1,23.6-14.7,27.4-28c1-3.6,1.6-7.4,1.6-11.4C-15.4,135.5-33.8,117-56.6,117z"/>
	</g>
	<g class="st1">
		<g>
			<g>
				<path d="M-16.5,164.7l-19.6-21.6l0.3,7.5L-46,139l2,3v16v18v4h-15h-13l17,18.9C-35.6,197.9-19.7,183.5-16.5,164.7z"/>
			</g>
		</g>
		<g>
			<path class="st5" d="M-49.8,137.8l0.5,0.1c2.9,0.4,5.1,3,5.1,5.9v35.5h-5h-17h-5v-35.5c0-2.9,2.2-5.5,5.1-5.9l0.5-0.1h0.4h15
				H-49.8 M-49.1,136.8h-1h-15h-1v0.1c-3.4,0.5-6,3.4-6,6.9v36.5h6h17h6v-36.5C-43.2,140.2-45.8,137.3-49.1,136.8L-49.1,136.8
				L-49.1,136.8z"/>
		</g>
		<g>
			<path class="st4" d="M-43.6,150.8h2.4c0.5,0,1,0.5,1,1v18.5c0,0.6,0.5,1,1,1h2.3c0.5,0,1-0.4,1-1v-26.1c0-0.6-0.3-1.4-0.6-1.8
				l-3.7-5.2"/>
		</g>
		<rect x="-66.5" y="143.5" class="st4" width="18" height="5"/>
		<g>
			<g>
				<path class="st5" d="M-54,159.7l-0.7,1.7l-0.4,1.1c-0.4,1-0.7,1.8-0.9,2.6c-0.1,0.5-0.4,1-0.8,1.4c-0.5,0.5-1.3,0.8-2,0.8
					c-0.9,0-1.7-0.4-2.3-1.1c-0.8-1-0.8-2.5,0-3.5c0.4-0.5,1-0.9,1.6-1.1c0.3-0.1,1.7-0.4,2.3-0.7l1.5-0.6L-54,159.7 M-52.2,157.9
					l-4,1.6l-1.5,0.6c-0.3,0.2-1.4,0.5-2.1,0.6c-0.8,0.2-1.6,0.7-2.2,1.4c-1.1,1.4-1,3.4,0.1,4.8c0.8,1,1.9,1.5,3.1,1.5
					c1,0,2-0.4,2.8-1.1c0.6-0.6,0.9-1.2,1.1-1.9c0.2-0.8,0.5-1.7,0.8-2.5l0.4-1.1L-52.2,157.9L-52.2,157.9z"/>
			</g>
		</g>
		<line class="st4" x1="-57.1" y1="162.9" x2="-64.1" y2="169.9"/>
		<g>
			<path class="st4" d="M-37.5,141.5l-0.9,1.3c-0.3,0.4-0.3,1.2,0,1.6l1.3,1.8c0.3,0.4,0.7,0.4,0.7-0.2l0.2-1.5
				c0.1-0.5-0.1-1.4-0.4-1.8L-37.5,141.5"/>
		</g>
	</g>
</g>
<g id="Electric_x5F_vehicles" class="st0">
	<g id="car_x5F_background" class="st1">
		<path class="st3" d="M375.4,9c-22.8,0-41.2,18.5-41.2,41.2s18.5,41.2,41.2,41.2c4.3,0,8.4-0.6,12.2-1.8
			c13.2-4.1,23.6-14.7,27.4-28c1-3.6,1.6-7.4,1.6-11.4C416.6,27.5,398.2,9,375.4,9z"/>
	</g>
	<g id="car_x5F_details" class="st1">
		<g>
			<g>
				<path d="M415.7,57.5L392,34l5,13l-8,16l-21.3-0.4L363,63l-1,5.5h-7.5l22.9,23C396.6,90.4,412.4,76.1,415.7,57.5z"/>
			</g>
		</g>
		<g>
			<path class="st4" d="M392.7,34.9c-0.2-0.5-0.8-0.9-1.3-0.9h-11c-0.5,0-1.4,0-2,0h-1.9c-0.5,0-1.5,0-2,0h-11
				c-0.6,0-1.2,0.4-1.3,0.9l-4.5,12.6c-0.2,0.5,0.1,0.9,0.7,0.9h16.2c0.5,0,1.5,0,2,0h1.9c0.6,0,1.5,0,2,0h16.2
				c0.5,0,0.8-0.4,0.7-0.9L392.7,34.9z"/>
		</g>
		<g>
			<path class="st3" d="M378.1,47.4c-0.5,0-1.5,0-2,0h-18.4c-2.6,0-4.7,2.1-4.7,4.7l0,0c0,0,0,0.5,0,1v8.5c0,0.5,0.3,1,0.6,1
				c0.3,0,0.6,0.5,0.6,1v3.9c0,0.6,0.5,1,1,1h6.4c0.6,0,1-0.4,1-1v-3.9c0-0.5,0.5-1,1-1h12.5c0.5,0,1.5,0,2,0h12.5c0.5,0,1,0.5,1,1
				v3.9c0,0.6,0.5,1,1,1h6.4c0.5,0,1-0.4,1-1v-3.9c0-0.5,0.3-1,0.6-1s0.6-0.5,0.6-1v-8.5c0-0.5,0-1,0-1l0,0c0-2.6-2.1-4.7-4.7-4.7
				H378.1z"/>
			<path class="st4" d="M378.1,47.4c-0.5,0-1.5,0-2,0h-18.4c-2.6,0-4.7,2.1-4.7,4.7l0,0c0,0,0,0.5,0,1v8.5c0,0.5,0.3,1,0.6,1
				c0.3,0,0.6,0.5,0.6,1v3.9c0,0.6,0.5,1,1,1h6.4c0.6,0,1-0.4,1-1v-3.9c0-0.5,0.5-1,1-1h12.5c0.5,0,1.5,0,2,0h12.5c0.5,0,1,0.5,1,1
				v3.9c0,0.6,0.5,1,1,1h6.4c0.5,0,1-0.4,1-1v-3.9c0-0.5,0.3-1,0.6-1s0.6-0.5,0.6-1v-8.5c0-0.5,0-1,0-1l0,0c0-2.6-2.1-4.7-4.7-4.7
				H378.1z"/>
		</g>
		<g>
			<path class="st5" d="M362.5,52.4v3.1h-4.2v-3.1H362.5 M363.5,51.4h-6.2v5.1h6.2V51.4L363.5,51.4z"/>
		</g>
		<g>
			<path class="st5" d="M395.3,52.4v3.1h-4.2v-3.1H395.3 M396.3,51.4h-6.2v5.1h6.2V51.4L396.3,51.4z"/>
		</g>
		<g>
			<path class="st4" d="M358.4,44H351c-0.5,0-1-0.4-1-1V27.9c0-0.6,0.5-1,1-1h21.3"/>
		</g>
		<g>
			<path class="st5" d="M377.7,24v5.2h-4.2c-0.5,0-1-0.4-1-1V25c0-0.5,0.4-1,1-1H377.7 M378.6,23h-5.2c-1.1,0-2,0.9-2,2v3.3
				c0,1.1,0.9,2,2,2h5.2c0,0,0.1,0,0.1-0.1L378.6,23C378.7,23,378.7,23,378.6,23L378.6,23z"/>
		</g>
		<line class="st4" x1="377.7" y1="28.5" x2="381.3" y2="28.5"/>
		<line class="st4" x1="377.7" y1="24.9" x2="381.3" y2="24.9"/>
		<polygon class="st6" points="377.7,39.3 376,41.7 376.8,41.7 376.4,43.4 378,41.2 377.1,41.2 		"/>
		<path class="st7" d="M389,66.5"/>
	</g>
</g>
<g id="Efficient_x5F_bulbs" class="st0">
	<g id="bulb_x5F_background" class="st1">
		<g>
			<path class="st3" d="M268.4,9c-22.8,0-41.2,18.5-41.2,41.2s18.5,41.2,41.2,41.2c4.3,0,8.4-0.6,12.2-1.8
				c13.2-4.1,23.6-14.7,27.4-28c1-3.6,1.6-7.4,1.6-11.4C309.6,27.5,291.2,9,268.4,9z"/>
		</g>
	</g>
	<g id="bulb_x5F_details" class="st1">
		<g>
			<path d="M305.9,62.8L276.6,33H276l-1-1l3,3l2,5l-1,5l-3,5l-1,2l-2,2l-1,5v6l-1,1v3h-8l19.3,19.4
				C293.5,83.8,302.2,74.4,305.9,62.8z"/>
		</g>
		<g>
			<path class="st5" d="M267.6,30.2c6.5,0,11.8,5.3,11.8,11.8c0,4.3-5.3,9.6-5.4,9.6c-0.5,0.5-1,1.5-1.2,2.2l-1.5,8
				c0,0.1-0.1,0.2-0.2,0.2H271h-2h-3.9h-2H263c-0.1,0-0.2-0.1-0.2-0.2l-1.5-8c-0.1-0.7-0.6-1.7-1.2-2.2c-0.1-0.1-5.4-5.4-5.4-9.6
				c0-6.5,5.3-11.8,11.8-11.8h0.1c0.1,0,0.2,0,0.4,0s0.3,0,0.4,0H267.6 M267.6,29.2c-0.2,0-0.2,0-0.2,0c-0.1,0-0.2,0-0.3,0
				s-0.2,0-0.3,0c0,0,0,0-0.2,0c-7.1,0-12.8,5.7-12.8,12.8c0,4.7,5.7,10.4,5.7,10.4c0.4,0.4,0.8,1.1,0.9,1.7l1.5,8
				c0.1,0.5,0.6,1,1.2,1h0.1c0.5,0,1.5,0,2,0h3.9c0.5,0,1.5,0,2,0h0.1c0.5,0,1.1-0.4,1.2-1l1.5-8c0.1-0.5,0.5-1.3,0.9-1.7
				c0,0,5.7-5.6,5.7-10.4C280.3,34.9,274.6,29.2,267.6,29.2L267.6,29.2z"/>
		</g>
		<g>
			<path class="st5" d="M271,64v1h-8v-1H271 M271,63h-8c-0.5,0-1,0.4-1,1v1c0,0.6,0.5,1,1,1h8c0.5,0,1-0.4,1-1v-1
				C272,63.4,271.5,63,271,63L271,63z"/>
		</g>
		<g>
			<path class="st5" d="M270,67v1h-6v-1H270 M271,66h-8v3h8V66L271,66z"/>
		</g>
		<g>
			<g>
				<path class="st5" d="M272,37.7l-0.7,1.7l-0.4,1.1c-0.4,1-0.7,1.8-0.9,2.6c-0.1,0.5-0.4,1-0.8,1.4c-0.5,0.5-1.3,0.8-2,0.8
					c-0.9,0-1.7-0.4-2.3-1.1c-0.8-1-0.8-2.5,0-3.5c0.4-0.5,1-0.9,1.6-1.1c0.3-0.1,1.7-0.4,2.3-0.7l1.5-0.6L272,37.7 M273.8,35.9
					l-4,1.6l-1.5,0.6c-0.3,0.2-1.4,0.5-2.1,0.6c-0.8,0.2-1.6,0.7-2.2,1.4c-1.1,1.4-1,3.4,0.1,4.8c0.8,1,1.9,1.5,3.1,1.5
					c1,0,2-0.4,2.8-1.1c0.6-0.6,0.9-1.2,1.1-1.9c0.2-0.8,0.5-1.7,0.8-2.5l0.4-1.1L273.8,35.9L273.8,35.9z"/>
			</g>
		</g>
		<line class="st4" x1="268.9" y1="40.9" x2="261.9" y2="47.9"/>
	</g>
</g>
<g id="Wind" class="st0">
	<g id="wind_x5F_background" class="st1">
		<path class="st3" d="M160.4,9c-22.8,0-41.2,18.5-41.2,41.2s18.5,41.2,41.2,41.2c4.3,0,8.4-0.6,12.2-1.8
			c13.2-4.1,23.6-14.7,27.4-28c1-3.6,1.6-7.4,1.6-11.4C201.6,27.5,183.2,9,160.4,9z"/>
	</g>
	<g id="wind_x5F_details" class="st1">
		<g>
			<g>
				<path d="M200.7,54.3L175,24l-14,13l-0.8,2l-1.2,5l0.7,17.1L158,75.7l12,14.1C186.4,85.6,198.8,71.5,200.7,54.3z"/>
			</g>
		</g>
		<g>
			<path class="st5" d="M158.8,43.7C158.8,43.7,158.8,43.7,158.8,43.7l-0.6,32c0,0.1,0.1,0.2,0.2,0.2h2.9c0.1,0,0.2-0.1,0.2-0.2
				L160.8,56c-0.4-1.4-0.7-2.9-1-4.6C159.2,48.4,158.8,45.6,158.8,43.7z"/>
			<g>
				<path class="st5" d="M151.2,33.4c-5.4-2.4-10-3.7-10.4-2.9c-0.4,0.8,3.7,3.3,9.1,5.7c3.5,1.6,6.8,2.7,8.6,3
					c-0.1-0.6,0.1-1.1,0.5-1.5C157.5,36.5,154.6,34.9,151.2,33.4z"/>
			</g>
			<g>
				<path class="st5" d="M175.1,24c-0.6-0.6-4.4,2.3-8.5,6.4c-2.7,2.7-4.8,5.3-5.8,6.9c0.4,0.1,0.7,0.3,0.9,0.7
					c0.1,0.1,0.1,0.3,0.2,0.4c1.6-1,4.2-3.2,6.9-5.9C172.9,28.4,175.7,24.6,175.1,24z"/>
			</g>
			<g>
				<path class="st5" d="M161.4,40.1c-0.1,0.1-0.1,0.1-0.2,0.2c-0.5,0.3-1,0.3-1.5,0.2c0,0.2,0,0.5,0,0.7c0,1.9,0.2,4.7,0.7,7.8
					c0.3,1.7,0.6,3.2,0.9,4.6c0.8,3.3,1.7,5.6,2.3,5.5c0.9-0.1,0.8-4.9-0.2-10.6C162.9,45,162.1,41.9,161.4,40.1z"/>
			</g>
		</g>
		<circle class="st5" cx="160.3" cy="39" r="0.8"/>
		<path d="M162,61.2"/>
		<path d="M158.8,43.9"/>
	</g>
</g>
<g id="Hydro_x5F_Water">
	<g id="hydro_x5F_background_1_">
		<path class="st3" d="M50.4,9C27.6,9,9.1,27.5,9.1,50.2s18.5,41.2,41.2,41.2c4.3,0,8.4-0.6,12.2-1.8C75.8,85.5,86.2,75,90,61.6
			c1-3.6,1.6-7.4,1.6-11.4C91.6,27.5,73.2,9,50.4,9z"/>
	</g>
	<g id="hydro_x5F_details_1_">
		<g>
			<g>
				<path d="M90,61.6L55.4,27L39.9,67l22.7,22.7C75.8,85.5,86.2,75,90,61.6z"/>
			</g>
		</g>
		<g>
			<path d="M55.1,48.6c-0.2,0-0.5,0-0.7,0c-2.7-0.3-5-2.5-5.3-5.2c-0.2-1.4,0.1-2.8,0.9-4.1c0.6-1,1.3-2.1,1.8-3.3l3.4-8.2l3.1,7.4
				c0.7,1.7,1.3,2.9,2,4c0.6,1,1,2.1,1,3.3c0,1.6-0.6,3.2-1.8,4.3C58.2,47.9,56.7,48.6,55.1,48.6L55.1,48.6z"/>
			<g>
				<path class="st5" d="M55.1,29l1.9,4.5l0.8,1.8c0.7,1.7,1.3,3,2.1,4.1c0.6,0.9,0.9,2,0.9,3.1c0,3.1-2.5,5.6-5.6,5.6
					c-0.2,0-0.4,0-0.6,0c-2.5-0.3-4.6-2.3-4.9-4.8c-0.2-1.3,0.1-2.6,0.8-3.7c0.6-1,1.3-2.2,1.8-3.4l1.1-2.6L55.1,29 M55.1,26.4
					l-2.8,6.7l-1.1,2.6c-0.5,1.1-1.1,2.2-1.7,3.3c-0.8,1.2-1.1,2.8-0.9,4.4c0.4,3,2.8,5.3,5.8,5.6c0.3,0,0.5,0,0.8,0
					c3.6,0,6.6-3,6.6-6.6c0-1.3-0.4-2.6-1.1-3.6c-0.8-1.2-1.4-2.6-2-3.9l-0.8-1.8L55.1,26.4L55.1,26.4z"/>
			</g>
		</g>
		<g>
			<path d="M47.6,69.9c-0.4,0-0.8,0-1.2-0.1c-4.7-0.5-8.6-4.3-9.3-9c-0.3-2.5,0.2-4.9,1.5-7c0.9-1.4,2.6-4.4,3-5.6l6-14.5l5.5,13.2
				c1.2,2.8,2.2,4.8,3.4,6.6c1.1,1.7,1.7,3.7,1.7,5.8c0,2.8-1.1,5.5-3.1,7.5C53.1,68.8,50.4,69.9,47.6,69.9
				C47.6,69.9,47.6,69.9,47.6,69.9z"/>
			<g>
				<path class="st5" d="M47.6,35l3.8,9.1l1.3,3c1.2,2.8,2.2,4.9,3.4,6.7c1.1,1.6,1.6,3.5,1.6,5.5c0,5.6-4.5,10.1-10.1,10.1
					c-0.4,0-0.8,0-1.2-0.1c-4.5-0.5-8.2-4.1-8.8-8.6C37.3,58.3,37.8,56,39,54c0.9-1.5,2.6-4.3,3-5.7l1.8-4.3L47.6,35 M47.6,32.4
					l-4.7,11.3L41.1,48c-0.3,1.1-1.8,3.7-2.9,5.5c-1.3,2.1-1.9,4.6-1.6,7.4c0.7,5,4.7,8.9,9.7,9.5c0.4,0,0.9,0.1,1.3,0.1
					c6.1,0,11.1-5,11.1-11.1c0-2.2-0.7-4.3-1.8-6c-1.3-2.1-2.4-4.3-3.3-6.6l-1.3-3L47.6,32.4L47.6,32.4z"/>
			</g>
		</g>
		<polygon class="st6" points="49.2,51.2 44.5,57.8 46.7,57.8 45.6,62.5 50,56.5 47.5,56.5 		"/>
	</g>
</g>
<g id="Solar" class="st0">
	<g id="solar_x5F_background_1_" class="st1">
		<path class="st3" d="M-56.6,9c-22.8,0-41.2,18.5-41.2,41.2s18.5,41.2,41.2,41.2c4.3,0,8.4-0.6,12.2-1.8
			c13.2-4.1,23.6-14.7,27.4-28c1-3.6,1.6-7.4,1.6-11.4C-15.4,27.5-33.8,9-56.6,9z"/>
	</g>
	<g id="solar_x5F_details_1_" class="st1">
		<g>
			<g>
				<path d="M-15.9,50.2c0-0.3,0-0.6,0-0.9L-29,39h-41l-13,26l31.9,26C-31.2,88.1-15.9,70.9-15.9,50.2z"/>
			</g>
		</g>
		<circle cx="-70" cy="40" r="7"/>
		<path class="st6" d="M-83.5,61.4"/>
		<path class="st6" d="M-16.6,48.2"/>
		<path class="st6" d="M-30.7,34.1"/>
		<path class="st8" d="M-73.5,45.8l3.3-6.5h7.6c-0.2-3.8-3.3-6.7-7.1-6.7c-4,0-7.2,3.2-7.2,7.2C-77,42.3-75.6,44.5-73.5,45.8z"/>
		<polyline class="st8" points="-70.3,39.2 -82.9,64.5 -41.6,64.5 -29,39.2 -62.7,39.2 		"/>
		<polygon class="st8" points="-62.2,49.3 -58.9,42.7 -68.6,42.7 -71.9,49.3 		"/>
		<polygon class="st8" points="-49.6,49.3 -46.3,42.7 -56,42.7 -59.3,49.3 		"/>
		<polygon class="st8" points="-37,49.3 -33.6,42.7 -43.4,42.7 -46.7,49.3 		"/>
		<polygon class="st8" points="-68.1,60.3 -64.8,53.7 -74.5,53.7 -77.8,60.3 		"/>
		<polygon class="st8" points="-55.5,60.3 -52.2,53.7 -61.9,53.7 -65.2,60.3 		"/>
		<polygon class="st8" points="-42.8,60.3 -39.5,53.7 -49.3,53.7 -52.6,60.3 		"/>
		<line class="st9" x1="-77.2" y1="27.6" x2="-74.6" y2="31.7"/>
		<line class="st9" x1="-82.5" y1="48" x2="-78.4" y2="45.4"/>
		<line class="st9" x1="-62" y1="35.2" x2="-57.9" y2="32.7"/>
		<line class="st9" x1="-66.8" y1="30.6" x2="-65.7" y2="25.9"/>
		<line class="st9" x1="-83.5" y1="36.1" x2="-78.8" y2="37.2"/>
	</g>
</g>
</svg>
