<?xml version="1.0" encoding="utf-8"?>
<!-- Generator: Adobe Illustrator 22.1.0, SVG Export Plug-In . SVG Version: 6.00 Build 0)  -->
<svg version="1.1" id="Solar" xmlns="http://www.w3.org/2000/svg" xmlns:xlink="http://www.w3.org/1999/xlink" x="0px" y="0px"
	 viewBox="0 0 213 164" style="enable-background:new 0 0 213 164;" xml:space="preserve">
<style type="text/css">
	.st0{fill:#1A1A1A;}
	.st1{fill:#FFFFFF;stroke:#FFFFFF;stroke-miterlimit:10;}
	.st2{fill-rule:evenodd;clip-rule:evenodd;fill:none;stroke:#FFFFFF;stroke-miterlimit:10;}
	.st3{fill:#FF0000;stroke:#FFFFFF;stroke-miterlimit:10;}
</style>
<g>
	<path class="st0" d="M99.4,31c-22.8,0-41.2,18.5-41.2,41.2s18.5,41.2,41.2,41.2c4.3,0,8.4-0.6,12.2-1.8c13.2-4.1,23.6-14.7,27.4-28
		c1-3.6,1.6-7.4,1.6-11.4C140.6,49.5,122.2,31,99.4,31z"/>
</g>
<g>
	<g>
		<path d="M140.1,72.2c0-0.3,0-0.6,0-0.9L127,61H86L73,87l31.9,26C124.8,110.1,140.1,92.9,140.1,72.2z"/>
	</g>
</g>
<circle cx="86" cy="62" r="7"/>
<path class="st1" d="M72.5,83.4"/>
<path class="st1" d="M139.4,70.2"/>
<path class="st1" d="M125.3,56.1"/>
<path class="st2" d="M82.5,67.8l3.3-6.5h7.6c-0.2-3.8-3.3-6.7-7.1-6.7c-4,0-7.2,3.2-7.2,7.2C79,64.3,80.4,66.5,82.5,67.8z"/>
<polyline class="st2" points="85.7,61.2 73.1,86.5 114.4,86.5 127,61.2 93.3,61.2 "/>
<polygon class="st2" points="93.8,71.3 97.1,64.7 87.4,64.7 84.1,71.3 "/>
<polygon class="st2" points="106.4,71.3 109.7,64.7 100,64.7 96.7,71.3 "/>
<polygon class="st2" points="119,71.3 122.4,64.7 112.6,64.7 109.3,71.3 "/>
<polygon class="st2" points="87.9,82.3 91.2,75.7 81.5,75.7 78.2,82.3 "/>
<polygon class="st2" points="100.5,82.3 103.8,75.7 94.1,75.7 90.8,82.3 "/>
<polygon class="st2" points="113.2,82.3 116.5,75.7 106.7,75.7 103.4,82.3 "/>
<line class="st3" x1="78.8" y1="49.6" x2="81.4" y2="53.7"/>
<line class="st3" x1="73.5" y1="70" x2="77.6" y2="67.4"/>
<line class="st3" x1="94" y1="57.2" x2="98.1" y2="54.7"/>
<line class="st3" x1="89.2" y1="52.6" x2="90.3" y2="47.9"/>
<line class="st3" x1="72.5" y1="58.1" x2="77.2" y2="59.2"/>
</svg>
