<?xml version="1.0" encoding="utf-8"?>
<!-- Generator: Adobe Illustrator 22.1.0, SVG Export Plug-In . SVG Version: 6.00 Build 0)  -->
<svg version="1.1" xmlns="http://www.w3.org/2000/svg" xmlns:xlink="http://www.w3.org/1999/xlink" x="0px" y="0px"
	 viewBox="0 0 101 102" style="enable-background:new 0 0 101 102;" xml:space="preserve">
<style type="text/css">
	.st0{display:none;}
	.st1{display:inline;}
	.st2{fill:#A2FFEE;}
	.st3{fill:#1A1A1A;}
	.st4{fill:none;stroke:#FFFFFF;stroke-miterlimit:10;}
	.st5{fill:#FFFFFF;}
	.st6{fill:#FFFFFF;stroke:#FFFFFF;stroke-miterlimit:10;}
	.st7{fill:#1A1A1A;stroke:#FFFFFF;stroke-miterlimit:10;}
	.st8{fill-rule:evenodd;clip-rule:evenodd;fill:none;stroke:#FFFFFF;stroke-miterlimit:10;}
	.st9{fill:#FF0000;stroke:#FFFFFF;stroke-miterlimit:10;}
</style>
<g id="Extra" class="st0">
	<g class="st1">
		<g>
			<path class="st2" d="M-199.6,361c-22.5,0-40.7-18.3-40.7-40.7s18.3-40.7,40.7-40.7s40.7,18.3,40.7,40.7c0,3.5-0.5,7-1.4,10.4
				l-34.6-34.6l-15.8,41l22.3,22.3C-192,360.5-195.8,361-199.6,361z"/>
			<g>
				<path class="st2" d="M-199.6,280c22.2,0,40.2,18.1,40.2,40.2c0,3.2-0.4,6.3-1.1,9.4l-33.4-33.4l-1.1-1.1l-0.6,1.4l-15.4,40
					l-0.2,0.6l0.5,0.5l21.5,21.5c-3.4,0.9-6.8,1.3-10.3,1.3c-22.2,0-40.2-18.1-40.2-40.2C-239.9,298.1-221.8,280-199.6,280
					 M-199.6,279c-22.8,0-41.2,18.5-41.2,41.2s18.5,41.2,41.2,41.2c4.3,0,8.4-0.6,12.2-1.8l-22.7-22.7l15.4-40l34.6,34.6
					c1-3.6,1.6-7.4,1.6-11.4C-158.4,297.5-176.8,279-199.6,279L-199.6,279z"/>
			</g>
		</g>
	</g>
	<g class="st1">
		<path class="st2" d="M-293.6,301c-22.8,0-41.2,18.5-41.2,41.2s18.5,41.2,41.2,41.2c4.3,0,8.4-0.6,12.2-1.8
			c13.2-4.1,23.6-14.7,27.4-28c1-3.6,1.6-7.4,1.6-11.4C-252.4,319.5-270.8,301-293.6,301z"/>
	</g>
	<g class="st1">
		<path class="st2" d="M-251.6,211c-22.8,0-41.2,18.5-41.2,41.2s18.5,41.2,41.2,41.2c4.3,0,8.4-0.6,12.2-1.8
			c13.2-4.1,23.6-14.7,27.4-28c1-3.6,1.6-7.4,1.6-11.4C-210.4,229.5-228.8,211-251.6,211z"/>
	</g>
	<g class="st1">
		<path class="st2" d="M-261.6,412c-22.8,0-41.2,18.5-41.2,41.2s18.5,41.2,41.2,41.2c4.3,0,8.4-0.6,12.2-1.8
			c13.2-4.1,23.6-14.7,27.4-28c1-3.6,1.6-7.4,1.6-11.4C-220.4,430.5-238.8,412-261.6,412z"/>
	</g>
	<g class="st1">
		<path class="st2" d="M-126.6,222c-22.8,0-41.2,18.5-41.2,41.2s18.5,41.2,41.2,41.2c4.3,0,8.4-0.6,12.2-1.8
			c13.2-4.1,23.6-14.7,27.4-28c1-3.6,1.6-7.4,1.6-11.4C-85.4,240.5-103.8,222-126.6,222z"/>
	</g>
	<g class="st1">
		<path class="st2" d="M-51.6,339c-22.8,0-41.2,18.5-41.2,41.2s18.5,41.2,41.2,41.2c4.3,0,8.4-0.6,12.2-1.8
			c13.2-4.1,23.6-14.7,27.4-28c1-3.6,1.6-7.4,1.6-11.4C-10.4,357.5-28.8,339-51.6,339z"/>
	</g>
	<g class="st1">
		<path class="st2" d="M-170.6,385c-22.8,0-41.2,18.5-41.2,41.2s18.5,41.2,41.2,41.2c4.3,0,8.4-0.6,12.2-1.8
			c13.2-4.1,23.6-14.7,27.4-28c1-3.6,1.6-7.4,1.6-11.4C-129.4,403.5-147.8,385-170.6,385z"/>
	</g>
</g>
<g id="Saving_x5F_Water">
	<g id="save_x5F_background_2_">
		<path class="st3" d="M51.4,9C28.6,9,10.1,27.5,10.1,50.2s18.5,41.2,41.2,41.2c4.3,0,8.4-0.6,12.2-1.8C76.8,85.5,87.2,75,91,61.6
			c1-3.6,1.6-7.4,1.6-11.4C92.6,27.5,74.2,9,51.4,9z"/>
	</g>
	<g id="save_x5F_details_2_">
		<g>
			<g>
				<path d="M69.8,86.6c-0.2,0.1-0.3,0.2-0.5,0.3C69.4,86.7,69.6,86.6,69.8,86.6z"/>
			</g>
			<g>
				<path d="M78.8,80.3c-0.2,0.2-0.4,0.4-0.6,0.5C78.4,80.7,78.6,80.5,78.8,80.3z"/>
			</g>
			<g>
				<path d="M67.5,87.6c-0.2,0.1-0.4,0.2-0.6,0.3C67.1,87.8,67.3,87.7,67.5,87.6z"/>
			</g>
			<g>
				<path d="M74.5,83.7c-0.2,0.1-0.4,0.3-0.6,0.4C74.1,84,74.3,83.9,74.5,83.7z"/>
			</g>
			<g>
				<path d="M64.6,88.7c-0.1,0-0.2,0.1-0.3,0.1C64.4,88.8,64.5,88.8,64.6,88.7z"/>
			</g>
			<g>
				<path d="M76.8,82c-0.2,0.1-0.3,0.3-0.5,0.4C76.5,82.3,76.7,82.1,76.8,82z"/>
			</g>
			<g>
				<path d="M72.4,85.1c-0.2,0.1-0.4,0.2-0.6,0.3C72,85.3,72.2,85.2,72.4,85.1z"/>
			</g>
			<g>
				<path d="M84.1,74.5c-0.1,0.2-0.2,0.3-0.4,0.5C83.9,74.8,84,74.7,84.1,74.5z"/>
			</g>
			<g>
				<path d="M62.3,89.5c-0.2,0.1-0.4,0.1-0.6,0.2C61.8,89.6,62,89.5,62.3,89.5z"/>
			</g>
			<g>
				<path d="M80.4,78.8c0.1-0.1,0.3-0.3,0.4-0.4C80.7,78.5,80.5,78.7,80.4,78.8z"/>
			</g>
			<g>
				<path d="M82.6,76.4c-0.2,0.2-0.4,0.4-0.6,0.7C82.3,76.8,82.4,76.6,82.6,76.4z"/>
			</g>
			<path d="M76.4,82.4c-0.6,0.5-1.2,0.9-1.8,1.3C75.1,83.3,75.8,82.9,76.4,82.4z"/>
			<path d="M82.1,77c-0.4,0.5-0.8,0.9-1.3,1.4C81.2,78,81.7,77.5,82.1,77z"/>
			<path d="M83.8,75c-0.4,0.5-0.7,0.9-1.1,1.4C83,75.9,83.4,75.5,83.8,75z"/>
			<path d="M78.2,80.9c-0.4,0.4-0.9,0.8-1.4,1.1C77.3,81.6,77.8,81.2,78.2,80.9z"/>
			<path d="M80.4,78.8c-0.5,0.5-1,1-1.6,1.5C79.4,79.8,79.9,79.3,80.4,78.8z"/>
			<path d="M71.8,85.4c-0.7,0.4-1.4,0.8-2.1,1.1C70.5,86.2,71.1,85.8,71.8,85.4z"/>
			<path d="M64.3,88.9c-0.7,0.2-1.4,0.4-2,0.6C62.9,89.3,63.6,89.1,64.3,88.9z"/>
			<path d="M73.9,84.1c-0.5,0.3-1,0.7-1.5,1C72.9,84.8,73.4,84.5,73.9,84.1z"/>
			<path d="M61.6,89.6c-0.8,0.2-1.6,0.4-2.4,0.6C60,90.1,60.8,89.9,61.6,89.6z"/>
			<path d="M66.9,87.9c-0.7,0.3-1.5,0.6-2.3,0.9C65.4,88.5,66.2,88.2,66.9,87.9z"/>
			<path class="st0" d="M69.2,86.8c-0.6,0.3-1.2,0.6-1.8,0.8C68.1,87.4,68.7,87.1,69.2,86.8z"/>
			<path d="M50.3,40.7l7.1,7.1L42,46.9l20,1.1l0,2l15,0.1l13.4,12.4c0.1-0.4,0.3-0.8,0.4-1.2L55,26L50.3,40.7z"/>
			<path d="M77,50.2l-15-0.1l0-2l-20-1.1l-2,2L28.9,62.1l30.3,28.1c0.8-0.2,1.6-0.4,2.4-0.6c0.2-0.1,0.4-0.1,0.6-0.2
				c0.7-0.2,1.4-0.4,2-0.6c0.1,0,0.2-0.1,0.3-0.1c0.8-0.3,1.5-0.6,2.3-0.9c0.2-0.1,0.4-0.2,0.6-0.3c0.6-0.3,1.2-0.5,1.8-0.8
				c0.2-0.1,0.3-0.2,0.5-0.3c0.7-0.4,1.4-0.7,2.1-1.1c0.2-0.1,0.4-0.2,0.6-0.3c0.5-0.3,1-0.6,1.5-1c0.2-0.1,0.4-0.3,0.6-0.4
				c0.6-0.4,1.2-0.9,1.8-1.3c0.2-0.1,0.3-0.3,0.5-0.4c0.5-0.4,0.9-0.8,1.4-1.1c0.2-0.2,0.4-0.4,0.6-0.5c0.5-0.5,1.1-1,1.6-1.5
				c0.1-0.1,0.3-0.3,0.4-0.4c0.4-0.4,0.9-0.9,1.3-1.4c0.2-0.2,0.4-0.4,0.6-0.7c0.4-0.5,0.8-0.9,1.1-1.4c0.1-0.2,0.2-0.3,0.4-0.5
				c2.7-3.6,4.8-7.6,6.2-11.9L77,50.2z"/>
		</g>
		<g>
			<path class="st4" d="M62.5,50.5l13.4-0.4c0.5,0,0.9,0.4,0.9,1l-0.2,1.4c-0.1,0.5-0.6,1.1-1.1,1.2l-28,5.6c-0.5,0.1-1.3,0.6-1.6,1
				l-5.8,7.4c-0.3,0.4-1,0.5-1.5,0.3L29.3,62c-0.5-0.3-0.6-0.9-0.2-1.3l1.1-1.3c0.3-0.4,0.9-1.1,1.3-1.5l9.2-10
				c0.4-0.4,1.1-0.7,1.7-0.7l19.2,0.3c0.5,0,1,0.5,1,1V50c0,0.5-0.4,1.1-1,1.1l-11,1.4"/>
		</g>
		<g>
			<path d="M54.9,42.9c-0.2,0-0.3,0-0.5,0c-2-0.2-3.7-1.9-4-3.9c-0.1-1.1,0.1-2.1,0.6-3c0.4-0.7,1.2-2,1.4-2.6l2.5-6l2.3,5.4
				c0.5,1.3,1,2.2,1.6,3.1c0.5,0.7,0.7,1.6,0.7,2.5c0,1.2-0.5,2.4-1.3,3.2S56.2,42.9,54.9,42.9L54.9,42.9z"/>
			<g>
				<path class="st5" d="M54.9,28.6l1.2,2.9l0.6,1.4c0.5,1.3,1,2.3,1.6,3.2c0.4,0.7,0.7,1.4,0.7,2.2c0,2.2-1.8,4.1-4.1,4.1
					c-0.2,0-0.3,0-0.5,0c-1.8-0.2-3.3-1.7-3.6-3.5c-0.1-1,0.1-1.9,0.6-2.7c0.1-0.2,1.2-1.9,1.4-2.7l0.8-1.9L54.9,28.6 M54.9,26
					l-2.1,5.2l-0.8,2c-0.2,0.5-0.8,1.7-1.3,2.5c-0.6,1-0.9,2.1-0.7,3.4c0.3,2.3,2.2,4.1,4.4,4.3c0.2,0,0.4,0,0.6,0
					c2.8,0,5.1-2.3,5.1-5.1c0-1-0.3-2-0.8-2.8c-0.6-0.9-1.1-2-1.5-3l-0.6-1.4L54.9,26L54.9,26z"/>
			</g>
		</g>
	</g>
</g>
<g id="Recycling" class="st0">
	<g id="recycling_x5F_background" class="st1">
		<path class="st3" d="M-59.6,9c-22.8,0-41.2,18.5-41.2,41.2s18.5,41.2,41.2,41.2c4.3,0,8.4-0.6,12.2-1.8
			c13.2-4.1,23.6-14.7,27.4-28c1-3.6,1.6-7.4,1.6-11.4C-18.4,27.5-36.8,9-59.6,9z"/>
	</g>
	<g id="recycling_x5F_details" class="st1">
		<g>
			<path d="M-19.7,60.8L-54,26l5,11l2-1l-4,8l-9-2l3-1l-3-6l-5,8l-6-3l20,19h6l-5-8l6-4l8,13l-4,8h-12v2l-6-7l2-2l-14-14l2,9l-3-1
				l-3,5h11v8l-16-1l0.5,1.5l22.4,22.4C-38.7,89.5-24.3,77.2-19.7,60.8z"/>
		</g>
		<polygon class="st4" points="-79.5,68.5 -84.4,61.2 -78.4,51 -80.5,49.5 -71.5,48.5 -68.5,57.5 -71.5,55.5 		"/>
		<polyline class="st4" points="-79.5,68.5 -64.5,68.5 -64.5,61.5 -75.1,61.5 		"/>
		<polygon class="st4" points="-64.2,27.9 -55.5,27.6 -50,38.2 -47.6,37.2 -51.5,45.3 -60.8,43.1 -57.5,41.6 		"/>
		<polyline class="st4" points="-64.2,27.9 -72.2,40.6 -66.3,44.3 -60.6,35.4 		"/>
		<polygon class="st4" points="-37.3,60.7 -41,68.6 -52.9,68.7 -53.1,71.3 -58.5,64.1 -52.3,56.9 -52.5,60.5 		"/>
		<polyline class="st4" points="-37.3,60.7 -44.9,47.8 -50.9,51.4 -45.5,60.5 		"/>
	</g>
</g>
<g id="Geothermal" class="st0">
	<g id="geo_x5F_background" class="st1">
		<path class="st3" d="M-166.6,9c-22.8,0-41.2,18.5-41.2,41.2s18.5,41.2,41.2,41.2c4.3,0,8.4-0.6,12.2-1.8
			c13.2-4.1,23.6-14.7,27.4-28c1-3.6,1.6-7.4,1.6-11.4C-125.4,27.5-143.8,9-166.6,9z"/>
	</g>
	<g id="geo_x5F_details" class="st1">
		<g>
			<path d="M-129.4,66.6L-146,50v16h-14l1-7l-3-3l-3,4h1v6l-21.4,0.4l24.2,24.2C-147,88.6-135.1,79.3-129.4,66.6z"/>
		</g>
		<path class="st4" d="M-145.5,71"/>
		<path class="st4" d="M-146.5,68"/>
		<line class="st4" x1="-182.5" y1="53.5" x2="-180" y2="53.5"/>
		<path class="st4" d="M-177,47.5"/>
		<path class="st4" d="M-179.5,47.5"/>
		<line class="st4" x1="-174.5" y1="53.5" x2="-172" y2="53.5"/>
		<line class="st4" x1="-178.5" y1="53.5" x2="-176" y2="53.5"/>
		<path class="st4" d="M-172,53.5"/>
		<path class="st4" d="M-176,47.5"/>
		<path class="st4" d="M-174.1,28.5c1.1,2.2,2.9,3.3,4.4,3.2c2.1-0.2,3.6-2,5.1-2.1c1.6-0.1,4.3,1.2,4,6"/>
		<path class="st4" d="M-162.4,22.4"/>
		<path class="st4" d="M-175.6,31.9c1.8,4.5,4.8,4.5,6.2,3.7"/>
		<path class="st4" d="M-159.5,60.5V66h13V50h-6.8l-5-11h-7l-5,11h-15c0,5.3,0,10.7,0,16h20.8v-5.5h-1.5l2-2.6l2-2.6l2,2.6l2,2.6
			h-1.9H-159.5z"/>
		<line class="st4" x1="-159.5" y1="60.5" x2="-160" y2="60.5"/>
		<line x1="-159" y1="68" x2="-161.8" y2="66.3"/>
	</g>
</g>
<g id="Scientific_x5F_research" class="st0">
	<g id="research_x5F_background" class="st1">
		<path class="st3" d="M-273.9,9.4c-22.8,0-41.2,18.5-41.2,41.2s18.5,41.2,41.2,41.2c4.3,0,8.4-0.6,12.2-1.8
			c13.2-4.1,23.6-14.7,27.4-28c1-3.6,1.6-7.4,1.6-11.4C-232.6,27.8-251.1,9.4-273.9,9.4z"/>
	</g>
	<g id="research_x5F_details" class="st1">
		<g>
			<g>
				<path d="M-233.9,57.2L-257,32l1,3l-1,3l-1,2l-2,5l7,2l3,2l1,2l-3,3l-8,3l3,8l-1,3h-3l-8-3l-3,9l-2,2h-2l-2-3l-3-8l-5,3l-6.5,1.5
					l20.6,22.4C-252.5,90.6-236.8,76-233.9,57.2z"/>
			</g>
		</g>
		<g>
			<path class="st5" d="M-274.8,25.7c1.2,0,3,1.8,4.5,6.9c1.4,4.8,2.2,11.2,2.2,18.1s-0.8,13.3-2.2,18.1c-1.5,5.1-3.3,6.9-4.5,6.9
				c-1.2,0-3-1.8-4.5-6.9c-1.4-4.8-2.2-11.2-2.2-18.1s0.8-13.3,2.2-18.1C-277.8,27.5-276,25.7-274.8,25.7 M-274.8,24.7
				c-4.2,0-7.7,11.6-7.7,26c0,14.4,3.4,26,7.7,26s7.7-11.6,7.7-26C-267.2,36.3-270.6,24.7-274.8,24.7L-274.8,24.7z"/>
		</g>
		<g>
			<path class="st5" d="M-274.8,44c6.9,0,13.3,0.8,18.1,2.2c5.1,1.5,6.9,3.3,6.9,4.5s-1.8,3-6.9,4.5c-4.8,1.4-11.2,2.2-18.1,2.2
				c-6.9,0-13.3-0.8-18.1-2.2c-5.1-1.5-6.9-3.3-6.9-4.5s1.8-3,6.9-4.5C-288.1,44.8-281.7,44-274.8,44 M-274.8,43
				c-14.4,0-26,3.4-26,7.7c0,4.2,11.6,7.7,26,7.7s26-3.4,26-7.7C-248.8,46.4-260.5,43-274.8,43L-274.8,43z"/>
		</g>
		<g>
			<path class="st5" d="M-258.7,32.5L-258.7,32.5c0.7,0,1.3,0.2,1.6,0.5c0.8,0.8,0.8,3.4-1.7,8c-2.4,4.4-6.4,9.5-11.2,14.4
				c-7.9,7.9-16.5,13.5-20.8,13.5c-0.7,0-1.3-0.2-1.6-0.5c-0.8-0.8-0.8-3.4,1.7-8c2.4-4.4,6.4-9.5,11.2-14.4
				C-271.6,38-263.1,32.5-258.7,32.5 M-258.7,31.5c-4.5,0-13.2,5.4-21.5,13.7c-10.2,10.2-16,20.8-13,23.8c0.5,0.5,1.3,0.8,2.3,0.8
				c4.5,0,13.2-5.4,21.5-13.7c10.2-10.2,16-20.8,13-23.8C-257,31.7-257.8,31.5-258.7,31.5L-258.7,31.5z"/>
		</g>
		<g>
			<path class="st5" d="M-291.8,31.6L-291.8,31.6c4.3,0,12.9,5.5,20.8,13.5c4.8,4.8,8.8,9.9,11.2,14.4c2.5,4.7,2.6,7.2,1.7,8
				c-0.3,0.3-0.9,0.5-1.6,0.5c-4.3,0-12.9-5.5-20.8-13.5c-4.8-4.8-8.8-9.9-11.2-14.4c-2.5-4.7-2.6-7.2-1.7-8
				C-293,31.8-292.5,31.6-291.8,31.6 M-291.8,30.6c-1,0-1.8,0.3-2.3,0.8c-3,3,2.8,13.7,13,23.8c8.3,8.3,17,13.7,21.5,13.7
				c1,0,1.8-0.3,2.3-0.8c3-3-2.8-13.7-13-23.8C-278.6,36-287.3,30.6-291.8,30.6L-291.8,30.6z"/>
		</g>
		<circle class="st5" cx="-274.7" cy="51" r="0.8"/>
	</g>
</g>
<g id="Biofuel" class="st0">
	<g id="fuel_x5F_background" class="st1">
		<path class="st3" d="M-382.6,9c-22.8,0-41.2,18.5-41.2,41.2s18.5,41.2,41.2,41.2c4.3,0,8.4-0.6,12.2-1.8
			c13.2-4.1,23.6-14.7,27.4-28c1-3.6,1.6-7.4,1.6-11.4C-341.4,27.5-359.8,9-382.6,9z"/>
	</g>
	<g class="st1">
		<g>
			<g>
				<path d="M-342.5,56.7l-19.6-21.6l0.3,7.5L-372,31l2,3v16v18v4h-15h-13l17,18.9C-361.6,89.9-345.7,75.5-342.5,56.7z"/>
			</g>
		</g>
		<g>
			<path class="st5" d="M-375.8,29.8l0.5,0.1c2.9,0.4,5.1,3,5.1,5.9v35.5h-5h-17h-5V35.8c0-2.9,2.2-5.5,5.1-5.9l0.5-0.1h0.4h15
				H-375.8 M-375.1,28.8h-1h-15h-1v0.1c-3.4,0.5-6,3.4-6,6.9v36.5h6h17h6V35.8C-369.2,32.2-371.8,29.3-375.1,28.8L-375.1,28.8
				L-375.1,28.8z"/>
		</g>
		<g>
			<path class="st4" d="M-369.6,42.8h2.4c0.6,0,1,0.5,1,1v18.5c0,0.5,0.5,1,1,1h2.3c0.5,0,1-0.5,1-1V36.2c0-0.5-0.3-1.4-0.6-1.8
				l-3.7-5.2"/>
		</g>
		<rect x="-392.5" y="35.5" class="st4" width="18" height="5"/>
		<g>
			<g>
				<path class="st5" d="M-380,51.7l-0.7,1.7l-0.4,1.1c-0.4,1-0.7,1.8-0.9,2.6c-0.1,0.5-0.4,1-0.8,1.4c-0.5,0.5-1.3,0.8-2,0.8
					c-0.9,0-1.7-0.4-2.3-1.1c-0.8-1-0.8-2.5,0-3.5c0.4-0.5,1-0.9,1.6-1.1c0.3-0.1,1.7-0.4,2.3-0.7l1.5-0.6L-380,51.7 M-378.2,49.9
					l-4,1.6l-1.5,0.6c-0.3,0.2-1.4,0.5-2.1,0.6c-0.8,0.2-1.6,0.7-2.2,1.4c-1.1,1.4-1,3.4,0.1,4.8c0.8,1,1.9,1.5,3.1,1.5
					c1,0,2-0.4,2.8-1.1c0.6-0.6,0.9-1.2,1.1-1.9c0.2-0.8,0.5-1.7,0.8-2.5l0.4-1.1L-378.2,49.9L-378.2,49.9z"/>
			</g>
		</g>
		<line class="st4" x1="-383.1" y1="54.9" x2="-390.1" y2="61.9"/>
		<g>
			<path class="st4" d="M-363.5,33.5l-0.9,1.3c-0.3,0.4-0.3,1.2,0,1.6l1.3,1.8c0.3,0.4,0.7,0.4,0.7-0.2l0.2-1.5
				c0.1-0.5-0.1-1.4-0.4-1.8L-363.5,33.5"/>
		</g>
	</g>
</g>
<g id="Electric_x5F_vehicles" class="st0">
	<g id="car_x5F_background" class="st1">
		<path class="st3" d="M49.4-99C26.6-99,8.1-80.5,8.1-57.8s18.5,41.2,41.2,41.2c4.3,0,8.4-0.6,12.2-1.8C74.8-22.5,85.2-33,89-46.4
			c1-3.6,1.6-7.4,1.6-11.4C90.6-80.5,72.2-99,49.4-99z"/>
	</g>
	<g id="car_x5F_details" class="st1">
		<g>
			<g>
				<path d="M89.7-50.5L66-74l5,13l-8,16l-21.3-0.4L37-45l-1,5.5h-7.5l22.9,23C70.6-17.6,86.4-31.9,89.7-50.5z"/>
			</g>
		</g>
		<g>
			<path class="st4" d="M66.7-73.1c-0.2-0.5-0.8-0.9-1.3-0.9h-11c-0.5,0-1.4,0-2,0h-1.9c-0.6,0-1.5,0-2,0h-11
				c-0.5,0-1.2,0.4-1.3,0.9l-4.5,12.6c-0.2,0.5,0.1,0.9,0.7,0.9h16.2c0.5,0,1.4,0,2,0h1.9c0.6,0,1.5,0,2,0h16.2
				c0.5,0,0.8-0.4,0.7-0.9L66.7-73.1z"/>
		</g>
		<g>
			<path class="st3" d="M52.1-60.6c-0.5,0-1.5,0-2,0H31.7c-2.6,0-4.7,2.1-4.7,4.7l0,0c0,0,0,0.5,0,1v8.5c0,0.5,0.3,1,0.6,1
				c0.3,0,0.6,0.5,0.6,1v3.9c0,0.5,0.4,1,1,1h6.4c0.5,0,1-0.5,1-1v-3.9c0-0.5,0.5-1,1-1h12.5c0.5,0,1.5,0,2,0h12.5c0.5,0,1,0.5,1,1
				v3.9c0,0.5,0.4,1,1,1H73c0.6,0,1-0.5,1-1v-3.9c0-0.5,0.3-1,0.6-1s0.6-0.5,0.6-1v-8.5c0-0.5,0-1,0-1l0,0c0-2.6-2.1-4.7-4.7-4.7
				H52.1z"/>
			<path class="st4" d="M52.1-60.6c-0.5,0-1.5,0-2,0H31.7c-2.6,0-4.7,2.1-4.7,4.7l0,0c0,0,0,0.5,0,1v8.5c0,0.5,0.3,1,0.6,1
				c0.3,0,0.6,0.5,0.6,1v3.9c0,0.5,0.4,1,1,1h6.4c0.5,0,1-0.5,1-1v-3.9c0-0.5,0.5-1,1-1h12.5c0.5,0,1.5,0,2,0h12.5c0.5,0,1,0.5,1,1
				v3.9c0,0.5,0.4,1,1,1H73c0.6,0,1-0.5,1-1v-3.9c0-0.5,0.3-1,0.6-1s0.6-0.5,0.6-1v-8.5c0-0.5,0-1,0-1l0,0c0-2.6-2.1-4.7-4.7-4.7
				H52.1z"/>
		</g>
		<g>
			<path class="st5" d="M36.5-55.6v3.1h-4.2v-3.1H36.5 M37.5-56.6h-6.2v5.1h6.2V-56.6L37.5-56.6z"/>
		</g>
		<g>
			<path class="st5" d="M69.3-55.6v3.1h-4.2v-3.1H69.3 M70.3-56.6h-6.2v5.1h6.2V-56.6L70.3-56.6z"/>
		</g>
		<g>
			<path class="st4" d="M32.4-64H25c-0.5,0-1-0.4-1-1v-15.1c0-0.5,0.5-1,1-1h21.3"/>
		</g>
		<g>
			<path class="st5" d="M51.7-84v5.2h-4.2c-0.5,0-1-0.4-1-1V-83c0-0.5,0.4-1,1-1H51.7 M52.6-85h-5.2c-1.1,0-2,0.9-2,2v3.3
				c0,1.1,0.9,2,2,2h5.2c0,0,0.1,0,0.1-0.1L52.6-85C52.7-85,52.7-85,52.6-85L52.6-85z"/>
		</g>
		<line class="st4" x1="51.7" y1="-79.5" x2="55.3" y2="-79.5"/>
		<line class="st4" x1="51.7" y1="-83.1" x2="55.3" y2="-83.1"/>
		<polygon class="st6" points="51.7,-68.7 50,-66.3 50.8,-66.3 50.4,-64.6 52,-66.8 51.1,-66.8 		"/>
		<path class="st7" d="M63-41.5"/>
	</g>
</g>
<g id="Efficient_x5F_bulbs" class="st0">
	<g id="bulb_x5F_background" class="st1">
		<g>
			<path class="st3" d="M-57.6-99c-22.8,0-41.2,18.5-41.2,41.2s18.5,41.2,41.2,41.2c4.3,0,8.4-0.6,12.2-1.8
				c13.2-4.1,23.6-14.7,27.4-28c1-3.6,1.6-7.4,1.6-11.4C-16.4-80.5-34.8-99-57.6-99z"/>
		</g>
	</g>
	<g id="bulb_x5F_details" class="st1">
		<g>
			<path d="M-20.1-45.2L-49.4-75H-50l-1-1l3,3l2,5l-1,5l-3,5l-1,2l-2,2l-1,5v6l-1,1v3h-8l19.3,19.4C-32.5-24.2-23.8-33.6-20.1-45.2z
				"/>
		</g>
		<g>
			<path class="st5" d="M-58.4-77.8c6.5,0,11.8,5.3,11.8,11.8c0,4.3-5.3,9.6-5.4,9.6c-0.5,0.5-1,1.5-1.2,2.2l-1.5,8
				c0,0.1-0.1,0.2-0.2,0.2H-55h-2h-3.9h-2H-63c-0.1,0-0.2-0.1-0.2-0.2l-1.5-8c-0.1-0.7-0.6-1.7-1.2-2.2c-0.1-0.1-5.4-5.4-5.4-9.6
				c0-6.5,5.3-11.8,11.8-11.8h0.1c0.1,0,0.2,0,0.4,0s0.3,0,0.4,0H-58.4 M-58.4-78.8c-0.2,0-0.2,0-0.2,0c-0.1,0-0.2,0-0.3,0
				s-0.2,0-0.3,0c0,0,0,0-0.2,0c-7.1,0-12.8,5.7-12.8,12.8c0,4.7,5.7,10.4,5.7,10.4c0.4,0.4,0.8,1.1,0.9,1.7l1.5,8
				c0.1,0.5,0.6,1,1.2,1h0.1c0.5,0,1.5,0,2,0h3.9c0.5,0,1.5,0,2,0h0.1c0.5,0,1.1-0.4,1.2-1l1.5-8c0.1-0.5,0.5-1.3,0.9-1.7
				c0,0,5.7-5.6,5.7-10.4C-45.7-73.1-51.4-78.8-58.4-78.8L-58.4-78.8z"/>
		</g>
		<g>
			<path class="st5" d="M-55-44v1h-8v-1H-55 M-55-45h-8c-0.5,0-1,0.4-1,1v1c0,0.6,0.5,1,1,1h8c0.5,0,1-0.4,1-1v-1
				C-54-44.6-54.5-45-55-45L-55-45z"/>
		</g>
		<g>
			<path class="st5" d="M-56-41v1h-6v-1H-56 M-55-42h-8v3h8V-42L-55-42z"/>
		</g>
		<g>
			<g>
				<path class="st5" d="M-54-70.3l-0.7,1.7l-0.4,1.1c-0.4,1-0.7,1.8-0.9,2.6c-0.1,0.5-0.4,1-0.8,1.4c-0.5,0.5-1.3,0.8-2,0.8
					c-0.9,0-1.7-0.4-2.3-1.1c-0.8-1-0.8-2.5,0-3.5c0.4-0.5,1-0.9,1.6-1.1c0.3-0.1,1.7-0.4,2.3-0.7l1.5-0.6L-54-70.3 M-52.2-72.1
					l-4,1.6l-1.5,0.6c-0.3,0.2-1.4,0.5-2.1,0.6c-0.8,0.2-1.6,0.7-2.2,1.4c-1.1,1.4-1,3.4,0.1,4.8c0.8,1,1.9,1.5,3.1,1.5
					c1,0,2-0.4,2.8-1.1c0.6-0.6,0.9-1.2,1.1-1.9c0.2-0.8,0.5-1.7,0.8-2.5l0.4-1.1L-52.2-72.1L-52.2-72.1z"/>
			</g>
		</g>
		<line class="st4" x1="-57.1" y1="-67.1" x2="-64.1" y2="-60.1"/>
	</g>
</g>
<g id="Wind" class="st0">
	<g id="wind_x5F_background" class="st1">
		<path class="st3" d="M-165.6-99c-22.8,0-41.2,18.5-41.2,41.2s18.5,41.2,41.2,41.2c4.3,0,8.4-0.6,12.2-1.8
			c13.2-4.1,23.6-14.7,27.4-28c1-3.6,1.6-7.4,1.6-11.4C-124.4-80.5-142.8-99-165.6-99z"/>
	</g>
	<g id="wind_x5F_details" class="st1">
		<g>
			<g>
				<path d="M-125.3-53.7L-151-84l-14,13l-0.8,2l-1.2,5l0.7,17.1l-1.7,14.6l12,14.1C-139.6-22.4-127.2-36.5-125.3-53.7z"/>
			</g>
		</g>
		<g>
			<path class="st5" d="M-167.2-64.3C-167.2-64.3-167.2-64.3-167.2-64.3l-0.6,32c0,0.1,0.1,0.2,0.2,0.2h2.9c0.1,0,0.2-0.1,0.2-0.2
				l-0.7-19.6c-0.4-1.4-0.7-2.9-1-4.6C-166.8-59.6-167.2-62.4-167.2-64.3z"/>
			<g>
				<path class="st5" d="M-174.8-74.6c-5.4-2.4-10-3.7-10.4-2.9c-0.4,0.8,3.7,3.3,9.1,5.7c3.5,1.6,6.8,2.7,8.6,3
					c-0.1-0.6,0.1-1.1,0.5-1.5C-168.5-71.5-171.4-73.1-174.8-74.6z"/>
			</g>
			<g>
				<path class="st5" d="M-150.9-84c-0.6-0.6-4.4,2.3-8.5,6.4c-2.7,2.7-4.8,5.3-5.8,6.9c0.4,0.1,0.7,0.3,0.9,0.7
					c0.1,0.1,0.1,0.3,0.2,0.4c1.6-1,4.2-3.2,6.9-5.9C-153.1-79.6-150.3-83.4-150.9-84z"/>
			</g>
			<g>
				<path class="st5" d="M-164.6-67.9c-0.1,0.1-0.1,0.1-0.2,0.2c-0.5,0.3-1,0.3-1.5,0.2c0,0.2,0,0.5,0,0.7c0,1.9,0.2,4.7,0.7,7.8
					c0.3,1.7,0.6,3.2,0.9,4.6c0.8,3.3,1.7,5.6,2.3,5.5c0.9-0.1,0.8-4.9-0.2-10.6C-163.1-63-163.9-66.1-164.6-67.9z"/>
			</g>
		</g>
		<circle class="st5" cx="-165.7" cy="-69" r="0.8"/>
		<path d="M-164-46.8"/>
		<path d="M-167.2-64.1"/>
	</g>
</g>
<g id="Hydro_x5F_Water" class="st0">
	<g id="hydro_x5F_background_1_" class="st1">
		<path class="st3" d="M-275.6-99c-22.8,0-41.2,18.5-41.2,41.2s18.5,41.2,41.2,41.2c4.3,0,8.4-0.6,12.2-1.8
			c13.2-4.1,23.6-14.7,27.4-28c1-3.6,1.6-7.4,1.6-11.4C-234.4-80.5-252.8-99-275.6-99z"/>
	</g>
	<g id="hydro_x5F_details_1_" class="st1">
		<g>
			<g>
				<path d="M-236-46.4L-270.6-81l-15.4,40l22.7,22.7C-250.2-22.5-239.8-33-236-46.4z"/>
			</g>
		</g>
		<g>
			<path d="M-270.9-59.4c-0.2,0-0.5,0-0.7,0c-2.7-0.3-5-2.5-5.3-5.2c-0.2-1.4,0.1-2.8,0.9-4.1c0.6-1,1.3-2.1,1.8-3.3l3.4-8.2
				l3.1,7.4c0.7,1.7,1.3,2.9,2,4c0.6,1,1,2.1,1,3.3c0,1.6-0.6,3.2-1.8,4.3C-267.8-60.1-269.3-59.4-270.9-59.4L-270.9-59.4z"/>
			<g>
				<path class="st5" d="M-270.9-79l1.9,4.5l0.8,1.8c0.7,1.7,1.3,3,2.1,4.1c0.6,0.9,0.9,2,0.9,3.1c0,3.1-2.5,5.6-5.6,5.6
					c-0.2,0-0.4,0-0.6,0c-2.5-0.3-4.6-2.3-4.9-4.8c-0.2-1.3,0.1-2.6,0.8-3.7c0.6-1,1.3-2.2,1.8-3.4l1.1-2.6L-270.9-79 M-270.9-81.6
					l-2.8,6.7l-1.1,2.6c-0.5,1.1-1.1,2.2-1.7,3.3c-0.8,1.2-1.1,2.8-0.9,4.4c0.4,3,2.8,5.3,5.8,5.6c0.3,0,0.5,0,0.8,0
					c3.6,0,6.6-3,6.6-6.6c0-1.3-0.4-2.6-1.1-3.6c-0.8-1.2-1.4-2.6-2-3.9l-0.8-1.8L-270.9-81.6L-270.9-81.6z"/>
			</g>
		</g>
		<g>
			<path d="M-278.4-38.1c-0.4,0-0.8,0-1.2-0.1c-4.7-0.5-8.6-4.3-9.3-9c-0.3-2.5,0.2-4.9,1.5-7c0.9-1.4,2.6-4.4,3-5.6l6-14.5
				l5.5,13.2c1.2,2.8,2.2,4.8,3.4,6.6c1.1,1.7,1.7,3.7,1.7,5.8c0,2.8-1.1,5.5-3.1,7.5C-272.9-39.2-275.6-38.1-278.4-38.1
				C-278.4-38.1-278.4-38.1-278.4-38.1z"/>
			<g>
				<path class="st5" d="M-278.4-73l3.8,9.1l1.3,3c1.2,2.8,2.2,4.9,3.4,6.7c1.1,1.6,1.6,3.5,1.6,5.5c0,5.6-4.5,10.1-10.1,10.1
					c-0.4,0-0.8,0-1.2-0.1c-4.5-0.5-8.2-4.1-8.8-8.6c-0.3-2.4,0.2-4.7,1.4-6.7c0.9-1.5,2.6-4.3,3-5.7l1.8-4.3L-278.4-73
					 M-278.4-75.6l-4.7,11.3l-1.8,4.3c-0.3,1.1-1.8,3.7-2.9,5.5c-1.3,2.1-1.9,4.6-1.6,7.4c0.7,5,4.7,8.9,9.7,9.5
					c0.4,0,0.9,0.1,1.3,0.1c6.1,0,11.1-5,11.1-11.1c0-2.2-0.7-4.3-1.8-6c-1.3-2.1-2.4-4.3-3.3-6.6l-1.3-3L-278.4-75.6L-278.4-75.6z"
					/>
			</g>
		</g>
		<polygon class="st6" points="-276.8,-56.8 -281.5,-50.2 -279.3,-50.2 -280.4,-45.5 -276,-51.5 -278.5,-51.5 		"/>
	</g>
</g>
<g id="Solar" class="st0">
	<g id="solar_x5F_background_1_" class="st1">
		<path class="st3" d="M-382.6-99c-22.8,0-41.2,18.5-41.2,41.2s18.5,41.2,41.2,41.2c4.3,0,8.4-0.6,12.2-1.8
			c13.2-4.1,23.6-14.7,27.4-28c1-3.6,1.6-7.4,1.6-11.4C-341.4-80.5-359.8-99-382.6-99z"/>
	</g>
	<g id="solar_x5F_details_1_" class="st1">
		<g>
			<g>
				<path d="M-341.9-57.8c0-0.3,0-0.6,0-0.9L-355-69h-41l-13,26l31.9,26C-357.2-19.9-341.9-37.1-341.9-57.8z"/>
			</g>
		</g>
		<circle cx="-396" cy="-68" r="7"/>
		<path class="st6" d="M-409.5-46.6"/>
		<path class="st6" d="M-342.6-59.8"/>
		<path class="st6" d="M-356.7-73.9"/>
		<path class="st8" d="M-399.5-62.2l3.3-6.5h7.6c-0.2-3.8-3.3-6.7-7.1-6.7c-4,0-7.2,3.2-7.2,7.2C-403-65.7-401.6-63.5-399.5-62.2z"
			/>
		<polyline class="st8" points="-396.3,-68.8 -408.9,-43.5 -367.6,-43.5 -355,-68.8 -388.7,-68.8 		"/>
		<polygon class="st8" points="-388.2,-58.7 -384.9,-65.3 -394.6,-65.3 -397.9,-58.7 		"/>
		<polygon class="st8" points="-375.6,-58.7 -372.3,-65.3 -382,-65.3 -385.3,-58.7 		"/>
		<polygon class="st8" points="-363,-58.7 -359.6,-65.3 -369.4,-65.3 -372.7,-58.7 		"/>
		<polygon class="st8" points="-394.1,-47.7 -390.8,-54.3 -400.5,-54.3 -403.8,-47.7 		"/>
		<polygon class="st8" points="-381.5,-47.7 -378.2,-54.3 -387.9,-54.3 -391.2,-47.7 		"/>
		<polygon class="st8" points="-368.8,-47.7 -365.5,-54.3 -375.3,-54.3 -378.6,-47.7 		"/>
		<line class="st9" x1="-403.2" y1="-80.4" x2="-400.6" y2="-76.3"/>
		<line class="st9" x1="-408.5" y1="-60" x2="-404.4" y2="-62.6"/>
		<line class="st9" x1="-388" y1="-72.8" x2="-383.9" y2="-75.3"/>
		<line class="st9" x1="-392.8" y1="-77.4" x2="-391.7" y2="-82.1"/>
		<line class="st9" x1="-409.5" y1="-71.9" x2="-404.8" y2="-70.8"/>
	</g>
</g>
</svg>
